<svg width="107" height="67" viewBox="0 0 107 67" fill="none" xmlns="http://www.w3.org/2000/svg">
<g id="Group 34825">
<g id="Group 34826">
<g id="Group">
<path id="Vector" d="M48.4373 -2.80731e-05L-0.000488281 9.49207L9.49161 57.9299L57.9294 48.4378L48.4373 -2.80731e-05Z" fill="#B0B7BD"/>
<path id="Vector_2" d="M46.0875 3.45998L3.45361 11.8147L11.8083 54.4485L54.4422 46.0938L46.0875 3.45998Z" fill="#F6F7F9"/>
<g id="Group_2">
<path id="Vector_3" d="M13.154 42.1154L18.9595 27.1791C19.2593 26.3887 20.2133 26.2251 20.7584 26.8793L30.3798 38.0543C30.9795 38.7629 31.988 38.5176 32.2333 37.6182L33.2145 34.0204C33.4598 33.0937 34.5228 32.8756 35.1224 33.6388L37.0303 36.1463C37.6572 36.964 38.8292 36.6642 38.9655 35.6012L40.5736 23.8811C40.7372 22.7091 42.1 22.491 42.6178 23.5268L48.805 35.4104C49.2138 36.1736 48.8323 37.1276 48.0963 37.2639L14.4077 43.8598C13.5355 44.1051 12.7996 43.0422 13.154 42.1154Z" fill="#B0B7BD"/>
<path id="Vector_4" d="M28.5612 16.9096C26.8034 17.254 25.6999 19.1738 26.0965 21.1976C26.493 23.2213 28.2395 24.5826 29.9974 24.2381C31.7552 23.8936 32.8587 21.9738 32.4621 19.9501C32.0655 17.9264 30.3191 16.5651 28.5612 16.9096Z" fill="#B0B7BD"/>
<path id="Vector_5" d="M19.0426 20.9646C18.9881 20.9646 18.9336 20.9919 18.879 21.0192C18.879 20.9647 18.879 20.9101 18.8518 20.8556C18.6882 20.0379 18.0068 19.5201 17.2982 19.6564C16.6986 19.7654 16.2897 20.3378 16.2897 21.0192C16.1262 20.9101 15.9354 20.8556 15.7446 20.8829C15.472 20.9374 15.254 21.1554 15.1722 21.428C15.0359 21.4007 14.8996 21.3735 14.7361 21.4008C14.1637 21.5098 13.8094 22.1367 13.9457 22.7908C14.082 23.445 14.6543 23.8811 15.2267 23.772C15.472 23.7175 15.6628 23.5812 15.8264 23.3905C16.2352 23.663 16.8348 23.7448 17.489 23.6358C18.0886 23.5267 18.5792 23.2269 18.879 22.8726C19.0698 22.9816 19.2606 23.0361 19.4787 22.9816C19.9693 22.8726 20.2691 22.3547 20.1601 21.7823C20.0238 21.2372 19.5332 20.8556 19.0426 20.9646Z" fill="#B0B7BD"/>
<path id="Vector_6" d="M41.1178 16.6309C41.0633 16.6309 41.0087 16.6582 40.9542 16.6854C40.9542 16.6309 40.9542 16.5764 40.927 16.5219C40.7634 15.7042 40.082 15.1863 39.3734 15.3226C38.7737 15.4316 38.3649 16.004 38.3649 16.6854C38.2014 16.5764 38.0106 16.5219 37.8198 16.5491C37.5472 16.6037 37.3292 16.8217 37.2474 17.0943C37.1111 17.067 36.9748 17.0397 36.8113 17.067C36.2389 17.176 35.8846 17.8029 36.0209 18.4571C36.1571 19.1112 36.7295 19.5473 37.3019 19.4383C37.5472 19.3838 37.738 19.2475 37.9015 19.0567C38.3104 19.3293 38.91 19.411 39.5642 19.302C40.1638 19.193 40.6544 18.8932 40.9542 18.5388C41.145 18.6479 41.3358 18.7024 41.5539 18.6479C42.0445 18.5388 42.3443 18.021 42.2353 17.4486C42.099 16.9035 41.6084 16.5219 41.1178 16.6309Z" fill="#B0B7BD"/>
</g>
</g>
<g id="Group_3">
<path id="Vector_7" d="M106.312 27.9854L58.1897 16.9878L49.3843 55.5172L97.5062 66.5148L106.312 27.9854Z" fill="#B0B7BD"/>
<path id="Vector_8" d="M102.889 29.6352L60.5332 19.9553L52.7845 53.8612L95.1402 63.541L102.889 29.6352Z" fill="#F6F7F9"/>
<g id="Group_4">
<path id="Vector_9" d="M58.046 47.3487L69.4118 36.0647C70.0114 35.4651 70.9381 35.7104 71.1834 36.5281L75.4354 50.674C75.708 51.5462 76.7164 51.737 77.2888 51.0283L79.6328 48.1392C80.2325 47.4032 81.2955 47.6213 81.5135 48.5753L82.2494 51.6552C82.4947 52.6637 83.6668 52.8545 84.2391 51.955L90.4808 41.8975C91.1077 40.9163 92.416 41.2434 92.4978 42.4154L93.3427 55.7981C93.3972 56.6703 92.6886 57.379 91.9526 57.2155L58.4821 49.5565C57.5826 49.3112 57.3373 48.0301 58.046 47.3487Z" fill="#B0B7BD"/>
<path id="Vector_10" d="M82.3461 30.5485C80.5997 30.1494 78.8115 31.4557 78.352 33.4662C77.8926 35.4767 78.9358 37.4301 80.6822 37.8292C82.4285 38.2283 84.2167 36.922 84.6762 34.9115C85.1357 32.901 84.0924 30.9476 82.3461 30.5485Z" fill="#B0B7BD"/>
<path id="Vector_11" d="M72.0287 30.3954C71.9742 30.3954 71.9197 30.3681 71.8652 30.3681C71.8924 30.3136 71.8924 30.2591 71.8924 30.2318C72.0832 29.4414 71.6472 28.651 70.9658 28.4875C70.3661 28.3512 69.7665 28.7055 69.4939 29.3051C69.3849 29.1416 69.2486 29.0053 69.0305 28.9508C68.758 28.8963 68.4854 29.0053 68.2946 29.2234C68.1856 29.1416 68.0493 29.0598 67.913 29.0326C67.3407 28.8963 66.7683 29.3324 66.6048 29.9865C66.4685 30.6407 66.7955 31.2676 67.3679 31.4039C67.6132 31.4584 67.8585 31.4039 68.0766 31.2948C68.3491 31.7037 68.867 32.0308 69.4939 32.1943C70.0935 32.3306 70.6659 32.2761 71.0747 32.058C71.1838 32.2215 71.3746 32.3578 71.5926 32.4123C72.0832 32.5214 72.5738 32.167 72.7101 31.5946C72.7919 31.0495 72.5193 30.5044 72.0287 30.3954Z" fill="#B0B7BD"/>
<path id="Vector_12" d="M93.9438 35.4104C93.8893 35.4104 93.8348 35.3832 93.7803 35.3832C93.8075 35.3286 93.8075 35.2741 93.8075 35.2469C93.9983 34.4564 93.5622 33.666 92.8808 33.5025C92.2812 33.3662 91.6815 33.7205 91.409 34.3202C91.3 34.1566 91.1637 34.0203 90.9456 33.9658C90.673 33.9113 90.4005 34.0203 90.2097 34.2384C90.1007 34.1566 89.9644 34.0749 89.8281 34.0476C89.2557 33.9113 88.6833 34.3474 88.5198 35.0016C88.3835 35.6557 88.7106 36.2826 89.283 36.4189C89.5283 36.4734 89.7736 36.4189 89.9916 36.3099C90.2642 36.7187 90.7821 37.0458 91.409 37.2093C92.0086 37.3456 92.581 37.2911 92.9898 37.073C93.0988 37.2366 93.2896 37.3729 93.5077 37.4274C93.9983 37.5364 94.4889 37.1821 94.6252 36.6097C94.7342 36.0646 94.4344 35.5194 93.9438 35.4104Z" fill="#B0B7BD"/>
</g>
</g>
</g>
</g>
</svg>
