<svg width="322" height="275" viewBox="0 0 322 275" fill="none" xmlns="http://www.w3.org/2000/svg">
<g clip-path="url(#clip0_73_2655)">
<path d="M246.506 41.7319H160.21V218.591H246.506V41.7319Z" fill="#803319"/>
<path d="M200.902 52.8585H169.548V139.605H200.902V52.8585Z" fill="#52260F"/>
<path d="M171.672 137.693L169.548 139.605H200.902V52.8585L198.778 54.7709L171.672 137.693Z" fill="#AE4625"/>
<path d="M198.778 54.7709H171.672V137.693H198.778V54.7709Z" fill="#D5E7EB"/>
<path d="M171.672 100.305L198.778 71.6618V61.8075L171.672 90.4515V100.305Z" fill="#ECF0ED"/>
<path d="M171.672 110.984L198.778 82.3403V76.1987L171.672 104.842V110.984Z" fill="#ECF0ED"/>
<path d="M237.168 52.8585H205.815V139.605H237.168V52.8585Z" fill="#52260F"/>
<path d="M207.939 137.693L205.815 139.605H237.168V52.8585L235.045 54.7709L207.939 137.693Z" fill="#AE4625"/>
<path d="M235.045 54.7709H207.939V137.693H235.045V54.7709Z" fill="#D5E7EB"/>
<path d="M207.939 100.305L235.045 71.6618V61.8075L207.939 90.4515V100.305Z" fill="#ECF0ED"/>
<path d="M207.939 110.984L235.045 82.3403V76.1987L207.939 104.842V110.984Z" fill="#ECF0ED"/>
<path d="M170.663 179.082V207.414L174.861 203.067V179.082V155.097L170.663 150.75V179.082Z" fill="#52260F"/>
<path d="M170.663 150.75L174.861 155.097H185.278H196.785L200.983 150.75H173.617H170.663Z" fill="#AB4624"/>
<path d="M186.367 203.067H174.861L170.663 207.414H198.029H200.983L196.785 203.067H186.367Z" fill="#622B0F"/>
<path d="M196.785 179.082V203.067L200.983 207.414V179.082V150.75L196.785 155.097V179.082Z" fill="#642C10"/>
<path d="M198.651 153.165H172.995V204.999H198.651V153.165Z" fill="#763217"/>
<path d="M206.332 179.082V207.414L210.53 203.067V179.082V155.097L206.332 150.75V179.082Z" fill="#52260F"/>
<path d="M206.332 150.75L210.53 155.097H220.947H232.454L236.652 150.75H209.286H206.332Z" fill="#AB4624"/>
<path d="M222.036 203.067H210.53L206.332 207.414H233.698H236.652L232.454 203.067H222.036Z" fill="#622B0F"/>
<path d="M232.454 179.082V203.067L236.652 207.414V179.082V150.75L232.454 155.097V179.082Z" fill="#642C10"/>
<path d="M234.32 153.165H208.664V204.999H234.32V153.165Z" fill="#763217"/>
<path d="M163.017 217.732H163.656V45.5908H243.061V217.732H243.7V44.9514H163.017V217.732Z" fill="#AE4625"/>
<path d="M162.716 218.376H163.36V44.9514H243.357V218.376H244.001V44.3075H162.716V218.376Z" fill="#562912"/>
<path d="M240.975 137.673C239.766 137.673 238.785 138.654 238.785 139.863V153.551C238.785 154.76 239.766 155.741 240.975 155.741C242.185 155.741 243.165 154.76 243.165 153.551V139.863C243.165 138.654 242.185 137.673 240.975 137.673Z" fill="#EC9B21"/>
<path d="M240.975 139.536C238.767 139.536 236.977 141.325 236.977 143.533C236.977 145.741 238.767 147.531 240.975 147.531C243.183 147.531 244.973 145.741 244.973 143.533C244.973 141.325 243.183 139.536 240.975 139.536Z" fill="#EEAC1F"/>
<path d="M239.559 141.116C239.089 140.894 238.394 141.383 238.006 142.206C237.617 143.031 237.681 143.878 238.151 144.099C238.619 144.321 239.316 143.832 239.704 143.008C240.093 142.184 240.028 141.337 239.559 141.116Z" fill="#F0BE5D"/>
<path d="M262.755 254.799L248.318 227.089C247.768 226.032 245.826 225.195 243.968 225.195H162.75C160.892 225.195 158.95 226.033 158.4 227.089L143.962 254.799C143.728 255.249 143.626 255.679 143.633 256.077H143.628V258.866L143.636 258.86C143.725 260.082 144.916 260.952 146.83 260.952H259.889C261.691 260.952 262.851 260.181 263.055 259.072L263.092 259.095V256.036L263.085 256.039C263.084 255.652 262.982 255.235 262.755 254.799Z" fill="#6C8930"/>
<path d="M248.317 227.089C247.767 226.032 245.826 225.195 243.968 225.195H162.75C160.892 225.195 158.95 226.033 158.4 227.089L143.962 254.799C142.974 256.696 144.244 258.281 146.829 258.281H259.888C262.474 258.281 263.743 256.696 262.755 254.799L248.317 227.089Z" fill="#88AB3E"/>
<path d="M234.325 227.608C234.319 227.592 234.315 227.576 234.31 227.56H172.453C172.446 227.576 172.443 227.592 172.437 227.608C171.291 230.826 165.551 233.614 159.696 233.614C159.68 233.614 159.664 233.613 159.647 233.613L154.284 245.001C154.302 245 154.321 245 154.34 245C160.913 245 164.905 248.754 163.117 253.775C163.092 253.845 163.061 253.915 163.034 253.986H243.74C243.713 253.915 243.683 253.845 243.658 253.775C241.867 248.754 245.857 245 252.43 245L247.068 233.613C241.215 233.614 235.473 230.826 234.325 227.608ZM242.267 253.112H164.509C165.769 248.248 161.94 244.63 155.713 244.287L160.362 234.188C166.167 233.912 171.649 231.225 173.157 228.081H233.604C235.11 231.215 240.566 233.896 246.353 234.185L251.005 244.289C244.812 244.651 241.008 248.262 242.267 253.112Z" fill="#6C8930"/>
<path d="M178.625 242.054L179.36 234.279H177.117L173.738 241.993L174.747 234.279H172.482L171.006 244.282H174.543L176.984 238.7L176.417 244.282H179.838L183.762 234.279H181.73L178.625 242.054Z" fill="#6C8930"/>
<path d="M182.954 244.282H189.981L190.182 242.725H185.799L186.325 239.673H189.704L189.901 238.249H186.57L187.029 235.588H191.106L191.274 234.279H184.926L182.954 244.282Z" fill="#6C8930"/>
<path d="M195.042 234.279H192.714L191.575 244.282H198.393L198.467 242.725H194.29L195.042 234.279Z" fill="#6C8930"/>
<path d="M204.508 240.312L204.525 241.797C204.534 242.556 204.029 242.832 203.221 242.832C202.412 242.832 201.908 242.555 201.918 241.797L201.995 236.406C202.005 235.735 202.48 235.482 203.23 235.482C203.98 235.482 204.455 235.735 204.462 236.406L204.474 237.429H206.749L206.716 236.5C206.664 235.009 205.451 234.177 203.168 234.177C200.885 234.177 199.668 235.009 199.611 236.5L199.408 241.693C199.341 243.405 200.615 244.411 203.148 244.411C205.681 244.411 206.96 243.405 206.899 241.693L206.851 240.313H204.508V240.312Z" fill="#6C8930"/>
<path d="M215.209 236.5C215.025 235.008 213.674 234.176 211.392 234.176C209.109 234.176 207.901 235.008 207.973 236.5L208.224 241.692C208.306 243.404 209.739 244.41 212.271 244.41C214.804 244.41 216.064 243.405 215.852 241.692L215.209 236.5ZM212.137 242.847C211.329 242.847 210.799 242.555 210.744 241.796L210.349 236.405C210.3 235.734 210.754 235.482 211.504 235.482C212.253 235.482 212.75 235.734 212.817 236.405L213.35 241.796C213.425 242.555 212.946 242.847 212.137 242.847Z" fill="#6C8930"/>
<path d="M222.955 234.279L222.695 241.168L219.654 234.279H216.416L217.814 244.282H220.063L218.887 237.002L221.983 244.282H224.419L224.572 236.907L226.2 244.282H228.636L226.193 234.279H222.955Z" fill="#6C8930"/>
<path d="M232.64 242.725L231.763 239.673H235.143L234.685 238.249H231.354L230.59 235.588H234.667L234.235 234.279H227.886L230.511 244.282H237.538L237.024 242.725H232.64Z" fill="#6C8930"/>
<path d="M115.201 129.71C115.29 125.623 115.342 121.805 115.342 121.805C115.676 121.875 115.997 121.927 116.304 121.954C116.304 121.954 115.905 116.382 115.342 112.994C115.342 112.994 117.469 113.781 119.503 114.564C121.288 120.086 121.639 131.217 121.705 135.977C121.666 135.928 121.648 135.906 121.648 135.906C121.648 135.906 121.67 136.033 121.71 136.27C121.727 137.483 121.722 138.214 121.722 138.214C120.404 139.751 114.801 139.311 114.801 139.311C114.968 138.42 115.105 133.924 115.201 129.71Z" fill="#FFD14F"/>
<path d="M121.71 136.27C122.198 139.1 125.353 157.667 124.931 160.245C122.339 161.05 117.549 162.86 114.582 163.37C110.736 164.028 103.705 164.249 95.9038 163.15C90.634 162.408 88.0239 161.568 86.5781 161.401C86.7494 156.669 85.9804 147.353 85.9804 147.353C88.8411 142.027 89.9314 135.379 89.9314 135.379C90.0943 137.413 90.1999 139.628 90.2302 142.022C90.2302 142.022 97.8468 142.168 98.8707 140.559C98.8707 140.559 98.0046 135.761 96.4403 130.145C96.4403 130.145 102.756 131.406 108.685 131.068C111.067 130.936 113.383 130.545 115.203 129.711C115.106 133.925 114.969 138.42 114.803 139.312C114.803 139.312 120.406 139.751 121.724 138.214C121.724 138.214 121.728 137.483 121.71 136.27Z" fill="#F9C941"/>
<path d="M161.73 150.459C138.077 155.231 122.739 137.228 121.706 135.977C121.64 131.217 121.289 120.086 119.505 114.564C121.087 115.174 122.612 115.785 123.043 116.022C124.032 116.571 140.842 133.599 144.577 135.137C148.313 136.675 163.476 142.027 163.476 142.027L163.629 142.063L161.73 150.459Z" fill="#25B1CA"/>
<path d="M95.7892 138.278C95.7892 139.029 95.18 139.639 94.4284 139.639C93.6762 139.639 93.067 139.029 93.067 138.278C93.067 137.526 93.6762 136.917 94.4284 136.917C95.18 136.917 95.7892 137.526 95.7892 138.278Z" fill="#AD5E26"/>
<path d="M73.9422 64.3901C73.9422 64.3901 77.432 64.7636 82.5299 64.913C82.3277 65.2742 78.0689 73.012 80.9959 81.3782C80.8336 81.2642 77.5331 78.961 75.2128 80.2488C72.8699 69.0874 73.9422 64.3901 73.9422 64.3901Z" fill="#461808"/>
<path d="M121.706 135.977C121.71 136.077 121.71 136.174 121.71 136.27C121.671 136.033 121.648 135.906 121.648 135.906C121.648 135.906 121.666 135.928 121.706 135.977Z" fill="#FBB040"/>
<path d="M83.132 64.9266C82.9298 64.9214 82.7276 64.9175 82.5299 64.913C77.432 64.7643 73.9421 64.3902 73.9421 64.3902C72.6239 46.1542 81.1453 39.1982 101.507 39.343C101.757 39.343 102.003 39.3482 102.245 39.3611C102.245 39.3611 80.3403 41.0307 83.1185 64.9175C83.1185 64.9175 83.1236 64.9214 83.132 64.9266Z" fill="#E5731F"/>
<path d="M85.7731 116.822C86.7268 116.554 88.4759 115.798 90.0228 115.095V115.099C92.7257 118.443 94.9147 124.683 96.439 130.145C98.0039 135.761 98.8695 140.559 98.8695 140.559C97.8455 142.168 90.2289 142.022 90.2289 142.022C90.198 139.627 90.093 137.413 89.9301 135.379C88.9197 122.652 85.7724 116.826 85.7724 116.826V116.822H85.7731Z" fill="#FFD14F"/>
<path d="M195.926 215.755L177.468 233.481H169.408V216.643L170.33 215.755H178.773H180.065H185.269H186.561H195.926Z" fill="#70121B"/>
<path d="M175.218 145.305C175.218 145.305 183.256 144.62 182.742 150.864C182.232 157.108 176.203 158.773 167.412 153.663L167.105 153.597L169.491 142.185L169.803 142.251C169.803 142.251 175.903 141.201 177.955 139.663C180.008 138.125 180.179 143.082 175.218 145.305Z" fill="#F7A484"/>
<path d="M186.561 198.947V215.755H185.269V198.947C185.269 198.464 184.873 198.069 184.39 198.069H185.682C186.17 198.068 186.561 198.464 186.561 198.947Z" fill="#C92030"/>
<path d="M185.269 198.947V215.755H180.066H178.773V207.648L182.667 203.908C183.103 203.908 183.454 203.09 183.454 202.08C183.454 201.069 183.103 200.247 182.667 200.247C182.443 200.247 182.246 200.462 182.101 200.809L178.773 204.004V198.947C178.773 198.464 179.169 198.068 179.652 198.068H180.945H184.391C184.873 198.068 185.269 198.464 185.269 198.947Z" fill="#BE1E2D"/>
<path d="M182.101 200.81C182.246 200.463 182.443 200.248 182.667 200.248C183.103 200.248 183.454 201.069 183.454 202.08C183.454 203.091 183.103 203.908 182.667 203.908L178.773 207.648L170.331 215.756L169.408 216.643L168.749 217.276V216.673C168.749 216.186 168.358 215.795 167.87 215.795H166.578H166.499L178.774 204.004L182.101 200.81Z" fill="#C92030"/>
<path d="M169.764 140.876L169.491 142.185L167.105 153.597L166.92 154.471L161.058 153.448L161.73 150.459L163.629 142.062L164.429 138.507L169.764 140.876Z" fill="#26B7D1"/>
<path d="M169.408 216.643V233.481H168.749V217.275L169.408 216.643Z" fill="#9C1925"/>
<path d="M160.961 223.867V233.481H150.95L160.961 223.867Z" fill="#9C1925"/>
<path d="M134.359 243.015C136.996 244.882 138.425 250.045 136.227 253.451C136.227 253.451 121.618 256.526 115.188 252.023L114.582 254.479H110.736C110.736 254.479 108.759 249.935 110.736 242.465L111.813 236.585C113.004 236.638 114.292 236.577 115.478 236.471C115.478 236.471 114.832 239.829 115.478 241.257C116.12 242.685 120.955 243.563 123.482 243.563C126.009 243.563 131.722 241.147 134.359 243.015Z" fill="#4A160B"/>
<path d="M86.5781 161.401C88.0238 161.568 90.6346 162.408 95.9038 163.15C103.705 164.249 110.736 164.028 114.582 163.37C117.548 162.86 122.338 161.05 124.931 160.245C125.705 160.004 126.281 159.854 126.558 159.854C127.766 159.854 130.513 169.082 129.634 170.95C129.445 171.354 128.887 171.96 127.99 172.659C124.738 175.19 117.003 178.911 106.232 178.309H106.223C106.134 176.78 105.282 175.062 102.574 173.731C102.478 173.678 102.377 173.635 102.276 173.586C96.6502 171.006 87.2369 169.583 84.3537 169.191L84.3672 169.081C84.3672 169.081 84.1476 162.706 85.1362 161.721C85.4575 161.401 85.8832 161.322 86.5781 161.401Z" fill="#AD5E26"/>
<path d="M111.813 236.586C110.464 236.529 109.242 236.327 108.43 235.874C108.43 235.874 107.08 205.735 109.019 188.233C109.019 188.233 95.4344 233.129 89.3518 238.111C89.3518 238.111 88.0863 238.292 86.3585 238.257C85.1761 238.23 83.7786 238.107 82.4211 237.751C81.3926 237.483 80.386 237.084 79.5115 236.5C79.5115 236.5 78.7818 217.24 82.2143 193.774C86.3501 196.415 93.9841 196.151 97.3329 194.789C97.7412 194.621 98.1636 194.464 98.5848 194.293C98.59 194.293 98.59 194.289 98.5938 194.289C101.829 192.974 105.243 191.085 104.316 182.57C104.593 182.394 104.865 182.208 105.134 182.011C105.134 182.011 106.342 180.328 106.223 178.311H106.232C117.004 178.913 124.739 175.191 127.991 172.661C127.991 172.661 131.876 211.488 119.825 235.876C119.825 235.876 117.852 236.263 115.479 236.473C114.292 236.577 113.004 236.639 111.813 236.586Z" fill="#F9C941"/>
<path d="M117.329 58.2377C117.329 58.2377 138.354 63.7308 120.48 69.6631C119.891 69.8562 119.307 70.041 118.731 70.2078C97.262 76.5136 83.5938 65.3122 83.1327 64.9265C93.3459 65.177 109.436 64.4565 117.329 58.2377Z" fill="#F7941E"/>
<path d="M80.9965 81.3783C78.0696 73.0121 82.3283 65.2737 82.5305 64.9131C82.7282 64.9182 82.9305 64.9221 83.1327 64.9266C83.5938 65.313 97.262 76.5136 118.731 70.2079V70.2124C118.23 71.6367 117.989 77.0635 119.456 79.7698C120.92 82.4813 121.14 85.7768 121.14 87.7542C121.14 89.4548 120.164 99.2363 108.456 102.817C106.558 103.401 104.382 103.819 101.877 104.011C100.655 104.109 99.5083 104.122 98.4315 104.06C83.6208 103.278 81.5858 89.2165 81.5858 89.2165C75.8729 91.7825 71.6972 87.0936 73.6002 82.2598C74.0046 81.2367 74.572 80.6037 75.2134 80.2521V80.2476C77.5331 78.9611 80.8336 81.2643 80.9965 81.3783ZM109.37 91.9988C109.392 89.7754 109.712 87.61 109.712 87.61C104.144 92.2931 96.7475 90.0961 96.7475 90.0961C96.334 90.4168 95.8375 91.8675 95.9914 93.5326C96.1936 95.7032 97.49 98.2344 101.507 99.1043C108.613 100.643 110.516 96.6176 110.516 96.6176C109.571 96.0941 109.347 94.0207 109.37 91.9988Z" fill="#F7A484"/>
<path d="M102.245 39.3611C121.763 39.9496 117.328 58.2377 117.328 58.2377C109.435 64.4559 93.3452 65.1764 83.132 64.9266C83.123 64.9214 83.1185 64.9176 83.1185 64.9176C80.3409 41.0307 102.245 39.3611 102.245 39.3611Z" fill="#FBB040"/>
<path d="M115.342 112.994C115.905 116.382 116.304 121.954 116.304 121.954C115.997 121.927 115.676 121.875 115.342 121.805C112.837 121.264 109.782 119.577 108.683 118.935C108.56 118.866 108.459 118.804 108.388 118.764L108.265 118.544C108.332 118.513 108.397 118.479 108.455 118.439C110.679 116.9 110.516 110.529 110.516 110.529C109.8 109.242 109.316 107.624 109.005 106.201C109.005 106.201 113.98 108.939 114.802 110.753C114.991 111.17 115.171 111.984 115.342 112.994Z" fill="#26B7D1"/>
<path d="M108.684 118.935C108.561 118.866 108.46 118.804 108.389 118.764C108.31 118.716 108.266 118.689 108.266 118.689C107.989 121.242 104.531 124.758 104.531 124.758C100.246 123.66 92.5544 115.75 92.5544 115.75C92.5544 115.75 92.774 114.827 93.0992 113.649C93.0992 113.649 91.6708 114.344 90.0228 115.095V115.099C92.7257 118.443 94.9146 124.683 96.439 130.145C96.439 130.145 102.755 131.406 108.683 131.068C111.066 130.936 113.381 130.545 115.201 129.711C115.29 125.623 115.342 121.806 115.342 121.806C112.837 121.264 109.783 119.577 108.684 118.935Z" fill="#23A8BF"/>
<path d="M98.6241 109.215C98.6196 108.447 98.5977 107.655 98.5713 106.93C98.5146 105.353 98.4309 104.096 98.4309 104.096V104.061C99.5077 104.122 100.655 104.109 101.876 104.012C104.381 103.819 106.557 103.402 108.455 102.818C108.455 102.818 108.587 104.342 109.005 106.201C109.317 107.625 109.801 109.242 110.517 110.53C110.517 110.53 110.68 116.901 108.455 118.439C108.398 118.479 108.332 118.514 108.266 118.544C105.827 119.661 98.4876 113.904 97.4069 111.298C97.1165 110.604 98.523 109.308 98.6241 109.215Z" fill="#F7A484"/>
<path d="M109.712 87.61C109.712 87.61 109.392 89.7754 109.37 91.9988C102.949 95.9537 95.9921 93.5326 95.9921 93.5326C95.8381 91.8675 96.3347 90.4168 96.7481 90.0961C96.7481 90.0961 104.144 92.2931 109.712 87.61Z" fill="white"/>
<path d="M109.37 91.9988C109.347 94.0206 109.571 96.094 110.517 96.6175C110.517 96.6175 108.614 100.643 101.507 99.1042C97.4907 98.2337 96.1936 95.7032 95.9921 93.5326C95.9921 93.5326 102.949 95.9536 109.37 91.9988Z" fill="#961824"/>
<path d="M108.266 118.544L108.389 118.764C108.31 118.716 108.266 118.689 108.266 118.689C107.989 121.242 104.531 124.758 104.531 124.758C100.246 123.659 92.5544 115.75 92.5544 115.75C92.5544 115.75 92.774 114.827 93.0992 113.649C93.6047 111.821 94.3698 109.382 94.972 108.881C95.8774 108.13 98.1797 107.102 98.5713 106.931C98.5977 107.656 98.6196 108.447 98.6241 109.216C98.523 109.308 97.1165 110.604 97.4069 111.299C98.4882 113.904 105.827 119.661 108.266 118.544Z" fill="#26B7D1"/>
<path d="M106.223 178.309C106.341 180.327 105.133 182.01 105.133 182.01C104.864 182.208 104.592 182.392 104.315 182.568C103.388 183.166 102.439 183.653 101.476 184.049C100.671 184.379 99.8631 184.638 99.0498 184.844V184.839C102.522 182.69 102.574 173.731 102.574 173.731C105.282 175.063 106.135 176.781 106.223 178.309Z" fill="#DB7228"/>
<path d="M104.315 182.568C105.242 191.084 101.828 192.973 98.5932 194.287C101.265 192.565 101.476 184.049 101.476 184.049C102.438 183.654 103.388 183.166 104.315 182.568Z" fill="#D16D27"/>
<path d="M102.276 173.586C102.377 173.635 102.478 173.678 102.574 173.731C102.574 173.731 102.522 182.691 99.0498 184.84V184.844C90.3262 187.02 81.4003 182.38 80.4775 179.628C79.3305 176.223 80.9611 169.961 83.0483 169.082H83.4882C83.4882 169.082 83.8005 169.118 84.3537 169.192C87.2369 169.583 96.6509 171.007 102.276 173.586Z" fill="#F09356"/>
<path d="M101.476 184.049C101.476 184.049 101.265 192.565 98.5932 194.287C98.5893 194.287 98.5893 194.292 98.5841 194.292C98.1623 194.463 97.7405 194.621 97.3322 194.787C93.9834 196.15 86.3494 196.413 82.2137 193.773C82.0069 193.645 81.8099 193.505 81.6205 193.359C77.6651 190.284 80.4781 179.627 80.4781 179.627C81.4009 182.378 90.3268 187.018 99.0504 184.844C99.8631 184.638 100.672 184.379 101.476 184.049Z" fill="#E38B51"/>
<path d="M89.9307 135.379C89.9307 135.379 88.8411 142.027 85.9798 147.353C85.9798 147.353 75.3139 166.555 74.9706 173.731C71.1601 174.703 66.739 174.043 64.4799 173.573C63.1655 163.462 68.4353 145.02 73.1333 131.951C77.8313 118.879 83.8172 117.231 85.4659 116.901C85.5535 116.884 85.6591 116.857 85.7731 116.822V116.826C85.7731 116.826 88.9203 122.652 89.9307 135.379Z" fill="#25B1CA"/>
<path d="M86.3578 238.256V238.26L85.4788 244.255C87.4565 251.725 85.4788 256.263 85.4788 256.263H81.6328L81.0268 253.811C74.5971 258.316 59.9886 255.24 59.9886 255.24C57.7913 251.834 59.2197 246.671 61.8568 244.803C64.4934 242.936 70.2069 245.353 72.734 245.353C75.2611 245.353 80.0956 244.474 80.7415 243.046C81.3874 241.618 82.4204 237.751 82.4204 237.751C83.778 238.106 85.1754 238.23 86.3578 238.256Z" fill="#4A160B"/>
<path d="M64.4805 173.573C66.739 174.043 71.1607 174.703 74.9712 173.731C75.5071 173.595 76.0306 173.428 76.531 173.221L76.0912 180.472C76.0912 180.472 74.8038 180.908 72.9491 181.316C70.659 181.821 67.5041 182.283 64.8405 181.826C63.8648 181.659 62.9503 181.369 62.173 180.911L62.9819 173.222C62.9819 173.222 63.5441 173.384 64.4805 173.573Z" fill="#26B7D1"/>
<path d="M72.9491 181.316C79.8315 188.768 74.4792 191.822 74.4792 190.285C74.4792 188.746 72.9407 186.989 72.9407 186.989C71.9515 188.746 72.9407 194.125 72.9407 194.125C70.5238 195.553 65.3022 195.887 63.6678 192.481C62.0326 189.075 64.8102 182.01 64.8102 182.01L64.8405 181.825C67.5041 182.282 70.659 181.821 72.9491 181.316Z" fill="#F7A484"/>
<path d="M177.037 227.619L170.829 226.787L170.995 225.551C171.03 225.294 171.266 225.113 171.522 225.148L176.799 225.856C177.055 225.891 177.237 226.126 177.201 226.383L177.037 227.619Z" fill="#F37D4C"/>
<path d="M170.198 231.493L169.083 239.809C168.853 241.523 170.057 243.098 171.771 243.328C173.485 243.558 175.06 242.355 175.29 240.64L176.406 232.325L170.198 231.493Z" fill="#F37D4C"/>
<path d="M176.918 227.58C174.533 227.26 173.34 227.1 170.955 226.781C172.013 228.6 171.821 230.033 170.321 231.509C172.705 231.83 173.898 231.989 176.283 232.309C175.226 230.488 175.417 229.055 176.918 227.58Z" fill="#D15727"/>
<path d="M177.247 213.071L174.452 212.697L172.766 225.274L175.561 225.649L177.247 213.071Z" fill="#CDC8C9"/>
<path d="M177.768 207.067L176.654 206.919L175.54 206.768L173.817 210.444L174.455 212.704L175.853 212.891L177.25 213.079L178.461 211.067L177.768 207.067Z" fill="#A39FA0"/>
<path d="M182.313 230.883L176.627 228.259L177.15 227.126C177.258 226.891 177.537 226.789 177.772 226.898L182.607 229.129C182.841 229.239 182.944 229.518 182.835 229.752L182.313 230.883Z" fill="#46BBD1"/>
<path d="M174.636 232.568L171.118 240.186C170.393 241.756 171.077 243.616 172.649 244.342C174.217 245.066 176.079 244.381 176.803 242.812L180.321 235.194L174.636 232.568Z" fill="#46BBD1"/>
<path d="M182.21 230.811C180.026 229.802 178.933 229.298 176.749 228.289C177.223 230.34 176.616 231.652 174.748 232.621C176.933 233.63 178.026 234.134 180.21 235.143C179.735 233.092 180.341 231.78 182.21 230.811Z" fill="#1A7795"/>
<path d="M186.8 217.057L184.239 215.875L178.921 227.398L181.481 228.58L186.8 217.057Z" fill="#CDC8C9"/>
<path d="M188.928 212.576C189.014 211.913 188.659 211.271 188.052 210.99C187.445 210.71 186.725 210.856 186.275 211.351L185.753 211.926C184.816 212.957 184.282 214.291 184.249 215.683L184.243 215.872L185.524 216.463L186.804 217.054L186.944 216.928C187.982 216 188.651 214.728 188.83 213.347L188.928 212.576Z" fill="#A39FA0"/>
<path d="M188.121 212.203C188.317 211.591 188.29 211.1 188.052 210.99C187.814 210.881 187.423 211.177 187.083 211.725L186.69 212.358C185.984 213.496 185.41 214.811 185.07 216.061L185.024 216.231L185.525 216.462L186.025 216.692L186.124 216.548C186.856 215.478 187.484 214.188 187.892 212.913L188.121 212.203Z" fill="#CDC8C9"/>
<path d="M168.749 217.275V233.481H167.456V216.673C167.456 216.186 167.065 215.795 166.577 215.795H167.87C168.357 215.795 168.749 216.186 168.749 216.673V217.275Z" fill="#C92030"/>
<path d="M167.456 216.673V233.481H162.258H160.961V223.866V216.673C160.961 216.186 161.355 215.795 161.84 215.795H163.136H166.498H166.577C167.065 215.795 167.456 216.186 167.456 216.673Z" fill="#BE1E2D"/>
<path d="M195.926 215.755V234.944L177.468 252.666V233.481L195.926 215.755Z" fill="#C92030"/>
<path d="M177.468 233.481V252.666H150.95V233.481H160.961H162.258H167.456H168.749H169.408H177.468Z" fill="#BE1E2D"/>
<path d="M93.8186 78.4008C93.8186 79.4227 93.1462 80.252 92.3167 80.252C91.4879 80.252 90.8149 79.4227 90.8149 78.4008C90.8149 77.3783 91.4873 76.549 92.3167 76.549C93.1456 76.549 93.8186 77.3783 93.8186 78.4008Z" fill="#603913"/>
<path d="M112.021 76.5491C112.021 77.5716 111.348 78.4009 110.519 78.4009C109.691 78.4009 109.018 77.5716 109.018 76.5491C109.018 75.5272 109.69 74.6985 110.519 74.6985C111.349 74.6985 112.021 75.5272 112.021 76.5491Z" fill="#603913"/>
<path d="M87.2942 75.1085C87.2536 75.1085 87.2118 75.1027 87.1705 75.0912C86.9381 75.0235 86.8041 74.7789 86.8724 74.5458C87.6767 71.7957 90.9418 70.9605 91.0809 70.9264C91.316 70.8672 91.5543 71.0114 91.6122 71.2471C91.6708 71.4821 91.5272 71.7203 91.2921 71.7789C91.2632 71.7866 88.3774 72.5316 87.716 74.7924C87.66 74.9836 87.4848 75.1085 87.2942 75.1085Z" fill="#603913"/>
<path d="M90.8517 180.786C90.8517 181.614 90.18 182.286 89.3511 182.286C88.5223 182.286 87.8513 181.614 87.8513 180.786C87.8513 179.957 88.5223 179.286 89.3511 179.286C90.18 179.286 90.8517 179.957 90.8517 180.786Z" fill="#231F20"/>
<path d="M105.061 85.5682C104.816 85.5682 104.657 85.5572 104.631 85.5559C104.389 85.5392 104.207 85.3293 104.224 85.0865C104.24 84.8451 104.45 84.6628 104.692 84.6789C105.324 84.7227 107.131 84.6725 107.862 83.9262C108.111 83.6725 108.214 83.3564 108.179 82.9584C107.996 80.8735 104.674 80.6925 104.641 80.6912C104.399 80.6797 104.211 80.4742 104.222 80.2315C104.235 79.9887 104.443 79.8123 104.682 79.8136C104.85 79.822 108.804 80.0403 109.055 82.8812C109.113 83.5418 108.922 84.1014 108.489 84.5431C107.594 85.4548 105.867 85.5682 105.061 85.5682Z" fill="#603913"/>
<g clip-path="url(#clip1_73_2655)">
<path d="M100.331 53.8111L100.405 53.7185C100.507 53.6616 100.579 53.5726 100.652 53.486L102.953 51.174C103.236 50.8903 103.519 50.607 103.802 50.3243C104.234 49.8902 104.694 49.8922 105.124 50.3295C105.342 50.5484 105.56 50.7616 105.773 50.9837C105.93 51.146 105.941 51.3007 105.813 51.4169C105.693 51.5252 105.549 51.5023 105.392 51.3472C105.169 51.1267 104.951 50.9031 104.725 50.6838C104.525 50.4874 104.394 50.4866 104.196 50.6838C103.029 51.8481 101.863 53.0129 100.697 54.1782C100.497 54.3786 100.497 54.5065 100.694 54.7045C101.87 55.8803 103.046 57.0541 104.222 58.2261C104.402 58.4061 104.517 58.4069 104.7 58.2261C105.882 57.0491 107.063 55.8705 108.243 54.6905C108.426 54.5073 108.425 54.3794 108.243 54.1951C108.023 53.9718 107.797 53.7542 107.576 53.5317C107.424 53.3778 107.42 53.2371 107.571 53.0792C107.792 52.8483 108.017 52.6202 108.249 52.3978C108.352 52.3 108.373 52.2342 108.256 52.1268C108.021 51.9096 107.795 51.6811 107.575 51.4486C107.473 51.3408 107.409 51.3424 107.302 51.4486C106.485 52.2731 105.659 53.092 104.84 53.9125C104.486 54.268 104.453 54.2732 104.091 53.9197C103.976 53.8083 103.859 53.6976 103.752 53.5794C103.681 53.5016 103.625 53.5044 103.554 53.5758C103.301 53.8311 103.046 54.086 102.788 54.3373C102.704 54.4175 102.717 54.4764 102.794 54.5526C103.301 55.0556 103.808 55.5583 104.306 56.0697C104.423 56.19 104.486 56.1675 104.592 56.0609C105.301 55.3454 106.018 54.6368 106.729 53.9225C106.846 53.8047 106.966 53.7485 107.116 53.8491C107.266 53.9498 107.258 54.1381 107.103 54.2937C106.354 55.0445 105.604 55.7949 104.853 56.5447C104.454 56.9431 104.45 56.9455 104.047 56.5475C103.425 55.9329 102.807 55.315 102.193 54.6937C101.991 54.4889 101.993 54.385 102.193 54.1866C102.602 53.7762 103.014 53.3676 103.428 52.9609C103.591 52.8006 103.705 52.8038 103.876 52.9641C104.031 53.1104 104.19 53.2543 104.331 53.4143C104.437 53.5345 104.499 53.5088 104.598 53.4082C105.412 52.5894 106.232 51.7769 107.048 50.9592C107.416 50.5892 107.446 50.5848 107.809 50.9468C107.989 51.1251 108.165 51.3075 108.343 51.4871C108.504 51.6643 108.672 51.8314 108.842 51.9981C109.006 52.1585 109 52.3589 108.84 52.5216C108.752 52.611 108.65 52.688 108.585 52.7982C108.465 52.9228 108.351 53.0535 108.224 53.1701C108.124 53.2623 108.11 53.3305 108.219 53.4287C108.372 53.5674 108.517 53.7157 108.657 53.8676C108.98 54.2179 109.006 54.6336 108.68 54.9795C108.141 55.5518 107.577 56.1018 107.021 56.6581C106.391 57.2912 105.759 57.9231 105.126 58.554C104.673 59.0066 104.257 59.015 103.808 58.5673C102.643 57.4041 101.48 56.2382 100.32 55.0697C100.223 54.9727 100.124 54.8757 100.086 54.7366C100.038 54.546 100.038 54.3468 100.086 54.1562C100.179 54.0504 100.231 53.9137 100.331 53.8111Z" fill="#00468B"/>
</g>
<path opacity="0.48" d="M101.876 104.012C100.654 104.109 99.5077 104.122 98.4309 104.061V104.096C98.4309 104.096 98.5146 105.353 98.5713 106.93C98.5977 107.655 98.6196 108.446 98.6241 109.215C98.523 109.308 97.1165 110.604 97.4069 111.298C97.9151 112.523 99.8065 114.445 101.921 116.02C101.92 115.853 101.919 115.692 101.919 115.541C101.914 113.21 101.932 111.092 102.56 108.829C103.171 106.624 104.318 104.852 105.916 103.457C104.673 103.71 103.332 103.9 101.876 104.012Z" fill="#F7A484"/>
<path opacity="0.48" d="M93.2087 103.113C89.3769 98.1906 87.1454 91.5423 86.2503 85.9191C85.4517 80.905 85.4337 75.9766 85.7602 70.9187C85.8452 69.6019 86.126 68.3631 86.4519 67.141C84.4065 65.9736 83.2602 65.0341 83.132 64.9272C82.9298 64.9221 82.7276 64.9182 82.5299 64.9137C82.3277 65.2749 78.0689 73.0127 80.9959 81.3789C80.8336 81.265 77.5331 78.9617 75.2128 80.2495V80.254C74.5713 80.6056 74.004 81.2386 73.5996 82.2617C71.6965 87.0955 75.8722 91.7844 81.5851 89.2184C81.5851 89.2184 83.1237 99.8029 93.2087 103.113Z" fill="#F7A484"/>
<path opacity="0.38" d="M118.73 70.2079C118.845 70.175 118.962 70.1383 119.077 70.1035C116.065 69.9645 113.057 69.5904 110.117 69.137C106.351 68.5556 101.795 67.1725 98.8785 64.3C93.2918 64.9575 87.6394 65.0367 83.1314 64.9266C83.5938 65.3129 97.2614 76.5136 118.73 70.2079Z" fill="#F7941E"/>
<path opacity="0.38" d="M97.9369 55.0826C98.8501 49.6603 100.825 43.8047 104.311 39.4995C103.653 39.4319 102.968 39.3823 102.245 39.3611C102.245 39.3611 80.3409 41.0307 83.1191 64.9176C83.1191 64.9176 83.1236 64.9214 83.1326 64.9266C87.4249 65.0315 92.7553 64.9633 98.0786 64.3896C97.2865 61.4527 97.4604 57.9068 97.9369 55.0826Z" fill="#F7941E"/>
<path opacity="0.3" d="M99.7421 130.66C99.1386 129.132 98.8489 127.534 99.2945 125.788C99.6191 124.518 100.201 123.524 101.096 123.049C97.0605 120.382 92.5544 115.75 92.5544 115.75C92.5544 115.75 92.774 114.827 93.0992 113.649C93.0992 113.649 91.6708 114.344 90.0228 115.095V115.099C92.7257 118.443 94.9146 124.683 96.439 130.145C96.439 130.145 97.7534 130.407 99.7421 130.66Z" fill="#25B1CA"/>
<path opacity="0.33" d="M101.333 122.704C100.476 121.632 99.905 120.567 99.3544 119.321C98.7574 117.969 98.0277 116.663 97.9299 115.158C97.8655 114.176 97.9234 113.307 98.1984 112.547C97.8339 112.087 97.5583 111.662 97.4076 111.299C97.1171 110.604 98.5236 109.308 98.6247 109.216C98.6202 108.447 98.5983 107.656 98.5719 106.931C98.181 107.102 95.8781 108.13 94.9726 108.881C94.3705 109.382 93.6054 111.821 93.0999 113.649C92.7746 114.827 92.555 115.75 92.555 115.75C92.555 115.75 98.0033 121.352 102.283 123.782C101.961 123.408 101.612 123.053 101.333 122.704Z" fill="#25B1CA"/>
<path opacity="0.33" d="M111.14 116.928C111.147 114.752 110.651 112.703 110.595 110.552L110.815 110.332C110.691 110.338 110.561 110.351 110.431 110.366C110.46 110.42 110.487 110.476 110.516 110.53C110.516 110.53 110.679 116.901 108.455 118.439C108.397 118.479 108.332 118.514 108.265 118.544L108.388 118.765C108.459 118.805 108.56 118.866 108.683 118.936C109.137 119.202 109.929 119.647 110.876 120.114C111.135 119.134 111.137 117.909 111.14 116.928Z" fill="#25B1CA"/>
<path opacity="0.38" d="M117.536 139.349C116.067 139.41 114.802 139.311 114.802 139.311C114.969 138.419 115.105 133.924 115.202 129.71C114.766 129.91 114.3 130.083 113.813 130.234C113.861 131.314 113.945 132.369 113.826 133.515C113.615 135.536 113.368 137.847 113.468 139.872C114.648 139.904 115.749 139.907 116.887 139.582C117.089 139.525 117.309 139.441 117.536 139.349Z" fill="#F9C941"/>
<path opacity="0.38" d="M94.6345 162.961C91.9407 160.837 89.8947 158.132 89.2668 154.536C88.8359 152.068 88.8475 149.149 89.2049 146.653C89.4593 144.872 90.1574 143.881 91.8305 143.376C93.3967 142.904 94.791 142.425 96.1048 141.665C93.5532 142.085 90.2302 142.023 90.2302 142.023C90.1993 139.628 90.0943 137.414 89.9314 135.379C89.9314 135.379 88.8417 142.027 85.9804 147.354C85.9804 147.354 86.7494 156.67 86.5781 161.402C87.9015 161.554 90.2096 162.271 94.6345 162.961Z" fill="#F9C941"/>
<path opacity="0.38" d="M95.5438 138.525C95.5438 139.277 94.9346 139.886 94.1831 139.886C93.4309 139.886 92.8217 139.277 92.8217 138.525C92.8217 137.774 93.4309 137.165 94.1831 137.165C94.9346 137.164 95.5438 137.774 95.5438 138.525Z" fill="#F9C941"/>
<path d="M95.7892 138.278C95.7892 139.029 95.18 139.639 94.4284 139.639C93.6762 139.639 93.067 139.029 93.067 138.278C93.067 137.526 93.6762 136.917 94.4284 136.917C95.18 136.917 95.7892 137.526 95.7892 138.278Z" fill="#AD5E26"/>
<path opacity="0.16" d="M94.9411 139.369C94.1889 139.369 93.5796 138.76 93.5796 138.008C93.5796 137.59 93.7728 137.22 94.0697 136.97C93.4933 137.128 93.0664 137.651 93.0664 138.278C93.0664 139.029 93.6756 139.639 94.4278 139.639C94.7607 139.639 95.0615 139.514 95.2985 139.316C95.1838 139.347 95.0653 139.369 94.9411 139.369Z" fill="#AD5E26"/>
<path opacity="0.38" d="M120.009 136.394C120.009 137.146 119.4 137.754 118.648 137.754C117.896 137.754 117.287 137.146 117.287 136.394C117.287 135.642 117.896 135.033 118.648 135.033C119.4 135.033 120.009 135.642 120.009 136.394Z" fill="#F9C941"/>
<path d="M120.253 136.147C120.253 136.898 119.644 137.507 118.893 137.507C118.141 137.507 117.532 136.898 117.532 136.147C117.532 135.395 118.141 134.786 118.893 134.786C119.644 134.786 120.253 135.395 120.253 136.147Z" fill="#AD5E26"/>
<path opacity="0.16" d="M119.405 137.238C118.654 137.238 118.045 136.63 118.045 135.878C118.045 135.459 118.238 135.089 118.535 134.84C117.958 134.998 117.532 135.521 117.532 136.147C117.532 136.899 118.141 137.508 118.893 137.508C119.226 137.508 119.527 137.384 119.763 137.185C119.649 137.216 119.53 137.238 119.405 137.238Z" fill="#AD5E26"/>
<path opacity="0.3" d="M161.73 150.459L162.347 147.734C160.534 147.641 158.704 147.395 156.978 147.22C152.974 146.814 148.88 146.321 144.993 145.243C139.599 143.747 135.415 140.724 131.294 137.095C125.416 131.916 122.784 124.124 123.269 116.195C123.168 116.112 123.084 116.047 123.042 116.022C122.611 115.785 121.086 115.175 119.504 114.564C121.288 120.086 121.64 131.217 121.706 135.977C122.739 137.228 138.077 155.231 161.73 150.459Z" fill="#25B1CA"/>
<path opacity="0.3" d="M108.389 118.764C108.311 118.716 108.266 118.689 108.266 118.689C108.216 119.15 108.061 119.642 107.843 120.137C108.424 120.687 108.896 121.354 109.529 121.857C110.597 122.706 111.848 123.038 113.146 123.407C113.566 123.527 114.499 123.852 115.309 123.983C115.331 122.658 115.342 121.804 115.342 121.804C112.837 121.264 109.783 119.577 108.684 118.935C108.561 118.866 108.46 118.804 108.389 118.764Z" fill="#25B1CA"/>
<path opacity="0.3" d="M74.7993 159.598C73.4392 162.126 73.34 164.605 72.6915 167.31C72.195 169.381 71.3011 171.85 71.0551 174.224C72.3598 174.195 73.6987 174.054 74.9712 173.731C75.3139 166.554 85.9804 147.352 85.9804 147.352C88.8411 142.027 89.9314 135.378 89.9314 135.378C88.9209 122.652 85.7737 116.825 85.7737 116.825V116.821C85.6597 116.856 85.5541 116.882 85.4665 116.9C85.16 116.962 84.704 117.068 84.1341 117.285C84.7581 120.544 84.7497 123.677 84.6699 127.035C84.5868 130.531 85.2437 134.063 84.8457 137.543C83.863 146.144 78.7116 152.334 74.7993 159.598Z" fill="#25B1CA"/>
<path opacity="0.33" d="M69.6628 181.864C70.8439 181.732 71.9767 181.529 72.9491 181.315C74.8038 180.906 76.0912 180.471 76.0912 180.471L76.531 173.22C76.03 173.427 75.5071 173.594 74.9713 173.73C73.3368 174.146 71.5909 174.262 69.9507 174.223C70.9385 175.365 71.3449 177.39 71.1588 178.759C70.9991 179.94 70.3647 180.918 69.6628 181.864Z" fill="#25B1CA"/>
<path opacity="0.33" d="M162.305 147.913L161.729 150.459L161.057 153.448L166.92 154.471L167.105 153.598L167.776 150.386C165.768 150.184 163.869 149.239 162.305 147.913Z" fill="#25B1CA"/>
<path opacity="0.48" d="M173.612 152.104C172.115 151.486 170.594 151.018 169.381 149.928C169.055 149.635 168.56 149.158 168.145 148.628L167.106 153.597L167.413 153.663C175.059 158.108 180.614 157.425 182.267 153.062C179.4 153.596 176.422 153.265 173.612 152.104Z" fill="#F7A484"/>
<path opacity="0.48" d="M71.1105 194.848C69.1166 193.766 67.5079 192.234 66.5896 189.914C66.0357 188.515 66.0944 186.753 66.2895 185.299C66.4428 184.155 67.1151 183.009 67.3566 182.005C66.4981 182.01 65.6461 181.963 64.8405 181.825L64.8102 182.01C64.8102 182.01 62.0326 189.075 63.6678 192.481C64.9603 195.174 68.492 195.524 71.1105 194.848Z" fill="#F7A484"/>
<path opacity="0.48" d="M67.7907 182C67.6876 182.003 67.5852 182.002 67.4822 182.003L67.5253 182.177C67.6412 182.124 67.723 182.063 67.7907 182Z" fill="#F7A484"/>
<path opacity="0.27" d="M87.3534 184.921C87.953 184.853 88.5429 184.807 89.1283 184.766C84.5269 183.647 81.0364 181.293 80.4774 179.629C80.4774 179.629 77.6651 190.285 81.6199 193.361C81.8086 193.506 82.0063 193.646 82.213 193.774C83.1063 194.345 84.1631 194.779 85.3042 195.097C83.0927 193.28 81.6837 190.792 83.0811 187.797C83.8604 186.126 85.556 185.127 87.3534 184.921Z" fill="#F09356"/>
<path opacity="0.27" d="M87.7901 169.716C86.3198 169.469 85.1104 169.295 84.3543 169.192C83.8011 169.118 83.4888 169.082 83.4888 169.082H83.0489C80.9617 169.961 79.3311 176.223 80.4781 179.628C80.8433 180.716 82.461 182.097 84.8199 183.237C84.3627 181.514 84.2854 179.785 84.3408 177.89C84.4175 175.259 85.5638 171.52 87.7901 169.716Z" fill="#F09356"/>
<path opacity="0.25" d="M102.275 170.267C101.265 168.739 100.242 167.226 100.344 165.314C100.371 164.789 100.51 164.227 100.736 163.676C99.1747 163.554 97.5576 163.383 95.9038 163.151C90.634 162.408 88.0239 161.569 86.5781 161.402C85.8832 161.323 85.4575 161.402 85.1368 161.722C84.1476 162.706 84.3679 169.082 84.3679 169.082L84.3543 169.192C87.2375 169.584 96.6509 171.008 102.277 173.587C102.378 173.635 102.478 173.679 102.575 173.732C105.282 175.063 106.135 176.781 106.223 178.31H106.232C108.414 178.432 110.469 178.375 112.388 178.188C108.286 176.636 104.712 173.953 102.275 170.267Z" fill="#AD5E26"/>
<path opacity="0.38" d="M91.6361 195.784C88.3465 195.883 84.6654 195.339 82.2137 193.773C78.7818 217.239 79.5108 236.499 79.5108 236.499C80.3854 237.083 81.392 237.483 82.4204 237.751C82.8532 237.865 83.2892 237.948 83.7219 238.018C84.2771 234.11 84.7478 230.186 85.2257 226.265C86.0893 219.179 87.2453 211.948 88.8991 205.004C89.5624 202.217 90.8646 198.943 91.6361 195.784Z" fill="#F9C941"/>
<path opacity="0.38" d="M113.659 193.886C113.919 188.504 115.02 183.174 115.253 177.8C113.446 178.116 111.49 178.32 109.4 178.364C109.403 178.527 109.403 178.709 109.395 178.913C109.224 183.302 108.188 187.538 107.889 191.885C108.604 189.602 109.018 188.232 109.018 188.232C107.08 205.734 108.429 235.874 108.429 235.874C109.242 236.326 110.464 236.528 111.813 236.585C112.031 236.595 112.255 236.597 112.478 236.599C113.224 231.167 112.827 223.455 112.851 222.143C113.016 212.742 113.205 203.279 113.659 193.886Z" fill="#F9C941"/>
</g>
<defs>
<clipPath id="clip0_73_2655">
<rect width="322" height="275" fill="white"/>
</clipPath>
<clipPath id="clip1_73_2655">
<rect width="8.91354" height="8.8983" fill="white" transform="translate(100.051 50)"/>
</clipPath>
</defs>
</svg>
