<svg width="300" height="300" viewBox="0 0 300 300" fill="none" xmlns="http://www.w3.org/2000/svg">
<g clip-path="url(#clip0_73_2966)">
<mask id="mask0_73_2966" style="mask-type:luminance" maskUnits="userSpaceOnUse" x="0" y="0" width="300" height="300">
<path d="M300 0H0V300H300V0Z" fill="white"/>
</mask>
<g mask="url(#mask0_73_2966)">
<path d="M285.134 209.863H303.613V110.089H285.134V209.863Z" fill="#C2C3C9"/>
<path d="M292.698 113.024V200.164C292.698 205.694 288.214 210.178 282.683 210.178H177.263V165.713C177.263 158.481 181.808 152.029 188.617 149.592L215.593 139.94C218.886 138.761 221.739 136.603 223.769 133.756L240.21 110.685C243.423 106.177 248.617 103.5 254.153 103.5H283.175C288.434 103.5 292.698 107.764 292.698 113.024Z" fill="#EBEBEB"/>
<path d="M179.542 218.36H196.043C203.208 218.36 209.07 212.498 209.07 205.333C209.07 198.167 203.208 192.305 196.043 192.305H179.542C172.377 192.305 166.514 198.167 166.514 205.333C166.514 212.497 172.376 218.36 179.542 218.36Z" fill="#AEADB3"/>
<path d="M279.706 210.178C279.706 191.194 264.316 175.805 245.332 175.805C226.348 175.805 210.959 191.194 210.959 210.178" fill="#0A0A0A"/>
<path d="M265.108 233.865C276.031 222.941 276.031 205.231 265.108 194.308C254.184 183.384 236.474 183.384 225.551 194.308C214.627 205.231 214.627 222.941 225.551 233.865C236.474 244.788 254.184 244.788 265.108 233.865Z" fill="#1C1C1C"/>
<path d="M260.135 222.123C264.572 213.936 261.533 203.702 253.346 199.264C245.158 194.826 234.924 197.866 230.486 206.053C226.048 214.24 229.088 224.475 237.275 228.912C245.462 233.35 255.697 230.311 260.135 222.123Z" fill="#0A0A0A"/>
<path d="M256.461 215.907C257.466 209.753 253.291 203.95 247.137 202.946C240.983 201.941 235.18 206.115 234.176 212.269C233.171 218.424 237.345 224.227 243.499 225.231C249.654 226.236 255.457 222.061 256.461 215.907Z" fill="#9A999E"/>
<path d="M248.645 166.56H270.863V159.059H249.13L248.993 159.629C248.747 160.865 248.63 162.312 248.656 163.77L248.645 166.56Z" fill="#BF0411"/>
<path d="M263.505 173.634V151.415H256.004V173.149L256.574 173.286C257.81 173.531 259.257 173.649 260.715 173.623L263.505 173.634Z" fill="#BF0411"/>
<path d="M282.745 114.635V135.868C282.745 138.379 280.71 140.414 278.2 140.414H237.238C233.629 140.414 231.46 136.411 233.429 133.387L247.264 112.154C248.102 110.866 249.535 110.09 251.072 110.09H278.199C280.71 110.09 282.745 112.125 282.745 114.635Z" fill="#99D6E9"/>
<path opacity="0.42" d="M279.005 110.09L265.327 140.414H257.351L271.029 110.09H279.005Z" fill="#EBEBEB"/>
<path opacity="0.42" d="M266.987 110.09L253.309 140.414H245.332L259.011 110.09H266.987Z" fill="#EBEBEB"/>
<path d="M175.44 164.042C175.44 168.02 177.002 171.245 178.928 171.245C180.855 171.245 182.417 168.02 182.417 164.042C182.417 160.064 180.855 156.839 178.928 156.839C177.002 156.839 175.44 160.064 175.44 164.042Z" fill="#E6B54A"/>
<path d="M260.347 103.5H276.965C277.293 103.5 277.558 103.235 277.558 102.907V93.8105C277.558 91.2893 275.515 89.2463 272.994 89.2463H264.319C261.798 89.2463 259.755 91.2899 259.755 93.8105V102.907C259.754 103.235 260.02 103.5 260.347 103.5Z" fill="#BF0411"/>
<path opacity="0.42" d="M267.875 98.148H273.852C274.935 98.148 275.821 97.2618 275.821 96.1788V94.1244C275.821 92.715 274.668 91.5624 273.259 91.5624H267.875C266.792 91.5624 265.906 92.4486 265.906 93.5316V96.1788C265.906 97.2618 266.792 98.148 267.875 98.148Z" fill="#EBEBEB"/>
<path opacity="0.6" d="M178.532 204.03H190.615C193.839 204.03 196.477 201.392 196.477 198.168C196.477 194.944 193.838 192.306 190.615 192.306H178.532C175.307 192.306 172.67 194.944 172.67 198.168C172.67 201.392 175.308 204.03 178.532 204.03Z" fill="#EBEBEB"/>
</g>
<mask id="mask1_73_2966" style="mask-type:luminance" maskUnits="userSpaceOnUse" x="0" y="0" width="300" height="300">
<path d="M300 0H0V300H300V0Z" fill="white"/>
</mask>
<g mask="url(#mask1_73_2966)">
<path d="M312.407 25.976C319.105 10.103 311.668 -8.19498 295.795 -14.8936C279.922 -21.5922 261.624 -14.1549 254.925 1.71818C248.227 17.5912 255.664 35.8892 271.537 42.5878C287.41 49.2864 305.708 41.8491 312.407 25.976Z" fill="#FFF48D"/>
<path d="M220.82 74.4H293.4C293.4 74.4 289.771 65.4504 285.235 65.0874C280.699 64.7244 279.428 67.4166 277.976 67.1448C276.525 66.8724 274.166 59.5998 268.36 59.2368C262.553 58.8738 260.285 64.2648 257.11 65.2626C253.934 66.2604 247.674 65.6898 242.775 57.7968C237.876 49.9038 228.586 58.5666 228.35 64.647C227.987 73.9914 213.743 67.8 213.743 74.4H220.82Z" fill="#EBEBEB"/>
<path d="M16.9061 21H80.3249C80.3249 21 77.1539 13.329 73.1903 13.0116C69.2267 12.6942 68.1167 15.1212 66.8483 14.8836C65.5799 14.646 63.5189 8.32802 58.4453 8.01122C53.3717 7.69382 51.3899 12.423 48.6155 13.2948C45.8411 14.1666 40.3709 13.6776 36.0905 6.78062C31.8095 -0.116383 23.6921 7.30922 23.4863 12.6222C23.1689 20.787 10.7225 16.5624 10.7225 21H16.9061Z" fill="#EBEBEB"/>
<path d="M-17.8614 115.8H33.5844C33.5844 115.8 31.0122 109.577 27.7968 109.32C24.5814 109.063 23.6814 111.031 22.6524 110.839C21.6234 110.645 19.9518 105.521 15.8358 105.263C11.7204 105.006 10.1124 108.842 7.86176 109.55C5.61116 110.257 1.17356 109.86 -2.29864 104.266C-5.77144 98.6711 -12.3564 104.695 -12.5232 109.004C-12.7812 115.627 -22.8774 112.2 -22.8774 115.8H-17.8614Z" fill="#EBEBEB"/>
</g>
<path opacity="0.22" d="M151.131 255.306C209.122 255.306 256.132 252.102 256.132 248.149C256.132 244.197 209.122 240.992 151.131 240.992C93.1404 240.992 46.1298 244.197 46.1298 248.149C46.1298 252.102 93.1404 255.306 151.131 255.306Z" fill="#69C4C9"/>
<path d="M211.196 115.171L243.143 95.6742L245.926 97.0272L221.924 128.697C221.924 128.697 215.765 124.986 214.91 124.46C214.643 124.297 214.493 124.204 214.361 124.133C213.494 123.673 212.958 123.347 212.158 123.008C211.932 122.912 211.734 122.735 211.51 122.617C210.396 122.03 211.196 115.171 211.196 115.171Z" fill="#FFCB9C"/>
<path d="M245.018 91.7994C245.018 91.7994 249.167 83.616 249.812 83.0898C250.459 82.5636 251.108 83.3544 250.322 84.7218C249.536 86.0886 247.505 90.4344 247.505 90.4344C247.505 90.4344 251.622 83.8536 252.175 83.7732C252.727 83.6928 253.201 84.3114 252.545 85.1514C251.889 85.9908 249.378 90.5436 249.378 90.5436C249.378 90.5436 252.219 87.0246 253.036 86.4474C253.852 85.8708 253.613 87.2748 252.944 88.0134C252.275 88.752 249.911 91.7694 249.911 91.7694C249.911 91.7694 252.805 89.793 253.37 89.79C253.936 89.787 253.85 90.2514 253.539 90.5658C253.227 90.8802 249.89 93.0912 249.89 93.0912C249.89 93.0912 248.34 96.5412 245.925 97.0266C243.511 97.512 242.823 96.2286 242.875 95.8362C242.927 95.4438 243.647 88.4538 244.133 87.4992C244.619 86.5446 245.737 87.4968 245.363 89.2026C244.991 90.9096 244.498 91.9932 245.018 91.7994Z" fill="#FFCB9C"/>
<path d="M169.087 133.622L137.434 153.593L137.411 156.688L176.445 149.24C176.445 149.24 175.854 142.074 175.762 141.074C175.734 140.762 175.717 140.587 175.713 140.438C175.686 139.457 175.631 138.832 175.682 137.964C175.697 137.719 175.627 137.463 175.621 137.21C175.589 135.951 169.087 133.622 169.087 133.622Z" fill="#FFCB9C"/>
<path d="M133.13 153.554C133.13 153.554 123.955 153.638 123.197 153.983C122.438 154.329 122.858 155.262 124.433 155.165C126.007 155.067 130.802 155.177 130.802 155.177C130.802 155.177 123.078 155.945 122.761 156.404C122.444 156.863 122.788 157.562 123.832 157.347C124.875 157.132 130.069 156.903 130.069 156.903C130.069 156.903 125.654 157.887 124.775 158.362C123.896 158.837 125.26 159.247 126.219 158.975C127.178 158.704 130.931 157.925 130.931 157.925C130.931 157.925 127.876 159.64 127.622 160.146C127.369 160.652 127.823 160.781 128.243 160.641C128.663 160.502 132.125 158.493 132.125 158.493C132.125 158.493 135.905 158.636 137.412 156.687C138.919 154.739 138.074 153.554 137.699 153.426C137.324 153.298 130.742 150.84 129.671 150.852C128.6 150.864 128.956 152.289 130.651 152.711C132.344 153.134 133.534 153.174 133.13 153.554Z" fill="#FFCB9C"/>
<path d="M194.302 113.501L180.279 119.614L186.601 125.06L193.761 122.197L194.302 113.501Z" fill="#274F6D"/>
<path d="M207.356 235.41L208.84 242.334L213.076 241.799V233.837L207.356 235.41Z" fill="#EBEBEB"/>
<path d="M213.031 241.306C213.031 241.306 215.557 244.23 214.552 246.803C213.547 249.377 195.331 247.467 195.331 247.467C195.331 247.467 194.666 247.054 195.843 246.56L204.341 243.431C204.341 243.431 207.931 241.495 209.785 241.793C211.332 242.043 213.031 241.306 213.031 241.306Z" fill="black"/>
<path d="M247.379 226.197L249.64 233.435L245.408 235.166L241.216 227.742L247.379 226.197Z" fill="#EBEBEB"/>
<path d="M245.191 234.682C245.191 234.682 244.375 238.739 246.667 240.61C248.959 242.481 264.94 231.109 264.94 231.109C264.94 231.109 265.342 230.375 263.985 230.532L254.413 232.089C254.413 232.089 250.046 232.173 248.475 233.429C247.163 234.476 245.191 234.682 245.191 234.682Z" fill="black"/>
<path d="M190.37 162.533C190.37 162.533 195.616 212.639 206.62 237.877H214.438L216.36 194.408L238.933 230.044L250.311 225.168C250.311 225.168 245.821 201.262 230.264 168.877C213.197 133.345 190.37 162.533 190.37 162.533Z" fill="#352E2F"/>
<path d="M252.476 232.49L248.845 217.561L235.063 224.542L246.25 240.347L252.476 232.49Z" fill="black"/>
<path d="M205.268 242.973L200.528 228.527L214.94 227.877L214.714 244.727L205.268 242.973Z" fill="black"/>
<path d="M195.144 116.417L216.503 109.423L231.132 121.466L220.891 137.361L195.144 116.417Z" fill="#274F6D"/>
<path d="M192.424 117.803L166.299 133.52L170.761 151.935L184.53 152.62L192.424 117.803Z" fill="#274F6D"/>
<path d="M214.634 183.882C214.634 183.882 224.468 181.268 232.351 173.31L229.723 166.869L193.201 183.605L193.633 186.322C193.633 186.322 201.956 188.345 210.083 185.48C218.21 182.615 214.634 183.882 214.634 183.882Z" fill="black"/>
<path d="M218.559 183.419L213.34 185.296C212.88 185.461 212.374 185.222 212.209 184.763L211.331 182.322C211.166 181.862 211.405 181.357 211.864 181.191L217.084 179.314C217.543 179.149 218.049 179.387 218.215 179.847L219.092 182.288C219.257 182.747 219.018 183.254 218.559 183.419Z" fill="#E6B54A"/>
<path d="M199.355 184.288H197.892V187.783H199.355V184.288Z" fill="#352E2F"/>
<path d="M204.443 184.017L202.99 184.186L203.392 187.657L204.845 187.489L204.443 184.017Z" fill="#352E2F"/>
<path d="M225.821 179.425L227.11 178.734L225.459 175.654L224.17 176.345L225.821 179.425Z" fill="#352E2F"/>
<path d="M220.842 181.763L222.202 181.225L220.917 177.976L219.556 178.514L220.842 181.763Z" fill="#352E2F"/>
<path d="M181.698 170.51C184.613 181.093 194.898 187.473 204.997 184.916C211.31 183.318 219.133 179.765 227.71 172.368C245.266 157.226 208.359 112.194 194.241 116.416C184.613 119.295 175.598 148.37 181.698 170.51Z" fill="#274F6D"/>
<path d="M210.812 138.119C209.428 138.859 207.754 138.803 206.421 137.972C205.088 137.143 204.3 135.665 204.352 134.096C204.404 132.527 205.29 131.105 206.675 130.366C208.06 129.627 209.734 129.683 211.066 130.513C212.399 131.343 213.187 132.821 213.135 134.39C213.083 135.959 212.198 137.38 210.812 138.119Z" fill="#E6B54A"/>
<path d="M211.894 135.11L210.65 135.454C210.483 135.5 210.35 135.625 210.293 135.788L209.87 137.008C209.728 137.419 209.176 137.488 208.936 137.125L208.225 136.047C208.13 135.903 207.97 135.815 207.797 135.811L206.506 135.786C206.071 135.778 205.834 135.274 206.105 134.933L206.911 133.924C207.019 133.789 207.053 133.61 207.002 133.444L206.627 132.209C206.501 131.792 206.907 131.411 207.314 131.564L208.523 132.018C208.685 132.079 208.867 132.056 209.008 131.957L210.067 131.219C210.424 130.97 210.912 131.239 210.892 131.673L210.834 132.963C210.826 133.136 210.904 133.301 211.042 133.405L212.071 134.184C212.419 134.449 212.314 134.995 211.894 135.11Z" fill="#DB9600"/>
<path d="M193.774 96.0606C195.905 100.009 197.017 104.063 192.785 110.103C192.785 110.103 191.59 114.847 194.896 118.421C198.202 121.996 186.822 128.356 185.145 121.712C185.035 121.277 184.904 120.85 184.754 120.43C182.606 114.442 176.528 110.048 172.575 107.721C168.345 105.231 164.588 97.0002 167.754 91.7118C168.998 89.6334 173.83 87.3672 177.661 87.0588C184.159 86.535 190.677 90.3234 193.774 96.0606Z" fill="#FFCB9C"/>
<path d="M181.798 90.6216L188.669 97.506L184.188 99.5496L181.798 90.6216Z" fill="#FF6252"/>
<path d="M170.97 104.892C170.97 104.892 168.837 105.302 169.156 107.698C169.475 110.094 174.598 112.482 174.882 109.714C175.166 106.946 170.97 104.892 170.97 104.892Z" fill="#FFCB9C"/>
<path d="M186.089 92.8128C186.413 93.2196 186.904 93.3672 187.186 93.1422C187.469 92.9178 187.435 92.406 187.112 91.9992C186.788 91.5924 186.297 91.4454 186.014 91.6698C185.732 91.8948 185.766 92.406 186.089 92.8128Z" fill="black"/>
<path d="M178.963 96.3953C179.287 96.8021 179.778 96.9491 180.061 96.7247C180.343 96.5003 180.31 95.9885 179.986 95.5817C179.663 95.1749 179.171 95.0279 178.889 95.2523C178.606 95.4767 178.64 95.9885 178.963 96.3953Z" fill="black"/>
<path d="M182.161 124.826L180.279 119.614L193.761 122.197L194.477 126.433L182.161 124.826Z" fill="#3B6D8C"/>
<path d="M192.351 121.872L196.09 125.123L198.394 115.975L194.302 113.501L192.351 121.872Z" fill="#3B6D8C"/>
<path d="M197.892 130.216C197.892 130.831 197.393 131.329 196.779 131.329C196.164 131.329 195.666 130.831 195.666 130.216C195.666 129.602 196.165 129.103 196.779 129.103C197.393 129.103 197.892 129.601 197.892 130.216Z" fill="#3B6D8C"/>
<path d="M200.62 136.969C200.62 137.584 200.121 138.082 199.507 138.082C198.892 138.082 198.394 137.584 198.394 136.969C198.394 136.355 198.892 135.856 199.507 135.856C200.122 135.856 200.62 136.354 200.62 136.969Z" fill="#3B6D8C"/>
<path d="M204.35 144.107C204.35 144.722 203.852 145.22 203.237 145.22C202.623 145.22 202.124 144.722 202.124 144.107C202.124 143.492 202.623 142.994 203.237 142.994C203.852 142.994 204.35 143.492 204.35 144.107Z" fill="#3B6D8C"/>
<path d="M207.103 152.62C207.103 153.234 206.605 153.733 205.99 153.733C205.375 153.733 204.877 153.235 204.877 152.62C204.877 152.005 205.375 151.507 205.99 151.507C206.605 151.507 207.103 152.005 207.103 152.62Z" fill="#3B6D8C"/>
<path d="M210.248 161.177C210.248 161.792 209.749 162.29 209.135 162.29C208.52 162.29 208.022 161.792 208.022 161.177C208.022 160.562 208.52 160.064 209.135 160.064C209.75 160.064 210.248 160.562 210.248 161.177Z" fill="#3B6D8C"/>
<path d="M212.195 170.897C212.81 170.897 213.308 170.398 213.308 169.784C213.308 169.169 212.81 168.671 212.195 168.671C211.581 168.671 211.082 169.169 211.082 169.784C211.082 170.398 211.581 170.897 212.195 170.897Z" fill="#3B6D8C"/>
<path d="M185.448 102.191C185.448 102.191 183.775 102.04 182.644 102.558C181.513 103.076 180.608 103.995 181.043 105.52C181.479 107.044 183.362 107.444 185.46 107.519C186.697 107.563 190.345 106.564 191.762 104.825C193.18 103.087 193.811 101.936 193.634 100.51C193.458 99.0833 191.886 98.2835 190.741 98.3819C189.596 98.4803 188.812 99.4331 188.518 100.027C188.222 100.621 187.501 102.068 185.448 102.191Z" fill="#EBEBEB"/>
<path d="M182.276 92.406L183.783 98.0364L176.444 101.419L172.01 98.3736L169.124 104.242L167.632 102.947L172.01 96.8298L182.276 92.406Z" fill="black"/>
<path d="M182.74 91.5647L187.291 95.9885L191.038 91.5647L189.854 88.7495L182.74 91.5647Z" fill="black"/>
<path d="M164.608 100.649L160.298 98.556C158.008 97.4442 157.025 94.7064 158.087 92.3922L164.523 78.3612C165.239 76.7994 166.753 75.756 168.467 75.6414L184.819 74.553C187.153 74.3976 189.242 75.9876 189.715 78.2778L190.836 83.7078L164.608 100.649Z" fill="#274F6D"/>
<path d="M176.855 86.4384L175.31 86.6508C175.104 86.679 174.924 86.8074 174.83 86.994L174.13 88.3866C173.894 88.8558 173.222 88.851 172.993 88.3782L172.314 86.9754C172.223 86.7876 172.046 86.6568 171.839 86.625L170.299 86.3892C169.779 86.3094 169.576 85.6692 169.955 85.305L171.08 84.2256C171.23 84.081 171.3 83.8716 171.266 83.6658L171.014 82.1274C170.93 81.609 171.476 81.2178 171.94 81.4662L173.314 82.2024C173.498 82.3008 173.718 82.3026 173.903 82.2066L175.289 81.492C175.756 81.2508 176.296 81.6504 176.203 82.1676L175.928 83.7018C175.891 83.907 175.958 84.1176 176.106 84.2646L177.214 85.3608C177.588 85.7292 177.375 86.3664 176.855 86.4384Z" fill="#DB9600"/>
<path d="M164.608 100.649C164.608 100.649 182.069 80.6129 196.436 83.0327C196.436 83.0327 184.667 99.9965 164.608 100.649Z" fill="#211915"/>
<path d="M232.533 178.057L229.271 180.197C228.623 180.622 227.753 180.441 227.327 179.793L222.723 172.774C222.298 172.126 222.479 171.255 223.127 170.83L226.389 168.691C227.037 168.265 227.908 168.446 228.332 169.094L232.937 176.114C233.362 176.762 233.182 177.632 232.533 178.057Z" fill="black"/>
<path d="M99.4489 94.1707C99.4489 94.1707 105.494 102.272 105.939 102.358C106.383 102.443 105.939 108.577 105.939 108.577L104.577 112.814L102.177 114.981L97.8625 118.618C97.8625 118.618 96.1801 121.297 93.9289 117.419C91.6771 113.542 90.8683 112.814 90.8683 112.814C90.8683 112.814 90.6595 108.882 90.8683 107.762C91.0771 106.642 93.0301 103.625 93.9289 102.358C94.8271 101.092 97.1941 98.6797 97.2103 97.9357C97.2271 97.1917 97.8625 95.2416 97.8625 95.2416L99.4489 94.1707Z" fill="#A30010"/>
<path d="M57.2886 86.4393L48.33 85.578L47.7326 91.7911L56.6912 92.6524L57.2886 86.4393Z" fill="#1D1D1B"/>
<path d="M75.7891 134.562C64.9591 133.522 56.6515 129.238 51.0745 121.813C44.7061 113.335 43.6765 102.961 43.9405 95.7203C44.1085 91.1147 48.4105 87.7914 52.9093 88.7922L54.4207 89.1222C57.8815 89.8776 60.3061 92.985 60.2149 96.5262C60.0895 101.408 60.8053 107.723 64.1137 112.09C67.0375 115.95 71.7517 118.031 78.5245 118.466L77.4931 134.698C76.9183 134.661 76.3495 134.615 75.7891 134.562Z" fill="#BF0411"/>
<path d="M54.7578 82.8912C54.7578 82.8912 57.0402 73.434 56.8812 72.5652C56.7216 71.6964 55.6536 71.8872 55.3476 73.5312C55.0416 75.1752 53.6898 80.0784 53.6898 80.0784C53.6898 80.0784 54.8952 71.937 54.5052 71.4918C54.1146 71.0466 53.307 71.2206 53.2584 72.3492C53.2098 73.4778 52.104 78.8784 52.104 78.8784C52.104 78.8784 52.2324 74.0844 51.9708 73.0572C51.7092 72.0306 50.9358 73.3272 50.967 74.3832C50.9982 75.4392 50.8297 79.5006 50.8297 79.5006C50.8297 79.5006 49.8552 75.9156 49.4004 75.5238C48.9456 75.132 48.6954 75.5658 48.7308 76.0338C48.7662 76.5018 49.9368 80.5818 49.9368 80.5818C49.9368 80.5818 48.8142 84.432 50.4288 86.4846C52.0434 88.5372 53.481 87.975 53.709 87.6222C53.937 87.27 58.1646 81.1344 58.4292 80.0298C58.6939 78.9252 57.1368 78.924 56.2644 80.5578C55.392 82.1916 55.044 83.4048 54.7578 82.8912Z" fill="#1D1D1B"/>
<path d="M51.8107 88.0356C51.3337 87.8178 50.7757 87.4104 50.1937 86.6706C48.6205 84.6702 49.4629 81.1878 49.6255 80.5836C49.4299 79.8996 48.4669 76.5192 48.4321 76.0572C48.4003 75.6312 48.5545 75.2676 48.8245 75.1314C48.9613 75.0624 49.2427 74.9922 49.5967 75.297C49.8817 75.543 50.2759 76.6218 50.5999 77.6466C50.6419 76.4298 50.6845 74.9598 50.6677 74.3922C50.6449 73.6422 51.0361 72.4698 51.6223 72.3876C51.7633 72.3678 52.1095 72.3852 52.2613 72.9834C52.3753 73.4298 52.4191 74.5206 52.4317 75.645C52.6909 74.2632 52.9375 72.843 52.9591 72.336C53.0005 71.3742 53.5099 71.0928 53.7265 71.0166C54.0799 70.8924 54.4735 71.001 54.7309 71.2944C54.9403 71.5332 54.9049 72.8898 54.6277 75.3396C54.8143 74.5872 54.9715 73.9134 55.0531 73.4766C55.2901 72.2052 55.9237 71.7552 56.3941 71.7558C56.7865 71.7576 57.0931 72.0534 57.1765 72.5112C57.3127 73.254 55.9963 78.975 55.3411 81.744C55.5217 81.363 55.7377 80.9088 56.0005 80.4168C56.6503 79.2 57.6457 78.7884 58.2523 79.0182C58.5727 79.1382 58.8679 79.4892 58.7221 80.1C58.5565 80.7924 57.1285 83.1084 54.2293 87.3882C54.0859 87.6 53.9911 87.7404 53.9617 87.7854C53.8177 88.0074 53.4349 88.2426 52.9021 88.2672C52.6459 88.2792 52.2655 88.2432 51.8107 88.0356ZM49.1011 75.6804C49.0879 75.6744 49.0789 75.672 49.0747 75.6714C49.0759 75.6828 49.0147 75.804 49.0303 76.0116C49.0543 76.3302 49.7761 78.933 50.2261 80.499L50.2501 80.5818L50.2261 80.6652C50.2153 80.7024 49.1665 84.393 50.6659 86.2992C51.6337 87.5292 52.4611 87.6846 52.8691 87.6678C53.2237 87.6528 53.4247 87.5094 53.4583 87.459C53.4877 87.4128 53.5855 87.2694 53.7325 87.0516C57.1939 81.9414 58.0387 80.3742 58.1383 79.9596C58.1881 79.7508 58.1611 79.6278 58.0393 79.5786C57.7297 79.461 57.0139 79.7922 56.5297 80.6988C56.2699 81.1848 56.0569 81.6336 55.8787 82.0098C55.4593 82.8942 55.2673 83.298 54.9139 83.3094C54.8173 83.3124 54.6331 83.2812 54.4963 83.0364L54.4393 82.9338L54.4669 82.8198C55.3429 79.1892 56.6935 73.2096 56.5867 72.6186C56.5753 72.5568 56.5267 72.3558 56.3935 72.3546C56.1775 72.354 55.8013 72.7356 55.6429 73.5852C55.3381 75.2226 54.0349 79.956 53.9797 80.157L53.3935 80.0334C53.9503 76.2738 54.4237 72.1086 54.2521 71.6448C54.1849 71.5806 54.0487 71.538 53.9263 71.5812C53.7139 71.6562 53.5765 71.9472 53.5591 72.3612C53.5099 73.5006 52.4443 78.7158 52.3987 78.9378L51.8047 78.8694C51.8401 77.5476 51.8863 73.9398 51.6805 73.1304C51.6709 73.0938 51.6619 73.0644 51.6535 73.0404C51.4915 73.236 51.2503 73.8012 51.2677 74.373C51.2989 75.4278 51.1375 79.3458 51.1303 79.512L51.0499 81.45L50.5411 79.5786C50.0881 77.913 49.4485 75.9756 49.2049 75.75C49.1587 75.7116 49.1239 75.6912 49.1011 75.6804Z" fill="#211915"/>
<path d="M120.223 169.815L129.219 169.565L129.046 163.326L120.051 163.575L120.223 169.815Z" fill="#1D1D1B"/>
<path d="M122.861 169.535C122.861 169.535 121.761 179.201 122.026 180.044C122.291 180.886 123.328 180.565 123.429 178.896C123.53 177.227 124.267 172.195 124.267 172.195C124.267 172.195 124.073 180.423 124.516 180.816C124.958 181.209 125.738 180.938 125.647 179.812C125.556 178.685 125.989 173.19 125.989 173.19C125.989 173.19 126.452 177.964 126.838 178.95C127.224 179.937 127.832 178.555 127.67 177.51C127.509 176.466 127.176 172.415 127.176 172.415C127.176 172.415 128.585 175.853 129.085 176.185C129.584 176.518 129.779 176.057 129.686 175.597C129.593 175.136 127.929 171.232 127.929 171.232C127.929 171.232 128.569 167.273 126.713 165.435C124.858 163.597 123.501 164.332 123.318 164.71C123.135 165.088 119.696 171.697 119.569 172.826C119.443 173.954 120.988 173.764 121.652 172.036C122.318 170.308 122.514 169.061 122.861 169.535Z" fill="#1D1D1B"/>
<path d="M125.152 164.068C125.653 164.225 126.257 164.561 126.925 165.223C128.733 167.014 128.326 170.574 128.239 171.194C128.517 171.848 129.889 175.085 129.981 175.538C130.066 175.957 129.957 176.337 129.706 176.506C129.578 176.591 129.308 176.695 128.919 176.436C128.606 176.227 128.082 175.205 127.634 174.227C127.742 175.44 127.881 176.904 127.967 177.466C128.083 178.207 127.838 179.419 127.267 179.573C127.129 179.61 126.784 179.635 126.559 179.06C126.391 178.631 126.213 177.554 126.062 176.44C125.975 177.844 125.906 179.283 125.947 179.789C126.024 180.748 125.554 181.09 125.347 181.193C125.012 181.36 124.608 181.3 124.316 181.041C124.079 180.83 123.947 179.479 123.921 177.014C123.829 177.784 123.755 178.472 123.728 178.915C123.65 180.205 123.077 180.73 122.609 180.787C122.22 180.834 121.879 180.578 121.739 180.134C121.513 179.413 122.114 173.574 122.423 170.745C122.291 171.146 122.133 171.623 121.933 172.144C121.438 173.431 120.5 173.963 119.87 173.809C119.537 173.729 119.201 173.417 119.271 172.793C119.35 172.086 120.482 169.612 122.831 165.007C122.948 164.779 123.025 164.629 123.048 164.581C123.163 164.342 123.515 164.062 124.04 163.972C124.293 163.928 124.675 163.917 125.152 164.068ZM129.363 175.994C129.377 175.999 129.386 176 129.391 176C129.388 175.989 129.434 175.861 129.393 175.657C129.33 175.343 128.293 172.849 127.654 171.35L127.619 171.271L127.633 171.185C127.639 171.147 128.225 167.356 126.503 165.649C125.39 164.547 124.55 164.495 124.148 164.562C123.798 164.621 123.616 164.788 123.589 164.842C123.565 164.891 123.486 165.046 123.367 165.28C120.561 170.777 119.916 172.436 119.868 172.86C119.844 173.074 119.887 173.192 120.013 173.226C120.335 173.305 121.004 172.888 121.373 171.928C121.571 171.413 121.727 170.942 121.858 170.547C122.165 169.618 122.305 169.193 122.655 169.138C122.751 169.124 122.937 169.132 123.103 169.358L123.172 169.453L123.159 169.569C122.737 173.28 122.134 179.38 122.312 179.953C122.332 180.013 122.404 180.206 122.537 180.191C122.752 180.165 123.077 179.74 123.13 178.878C123.23 177.215 123.94 172.358 123.971 172.151L124.568 172.202C124.478 176.001 124.522 180.193 124.75 180.632C124.824 180.688 124.964 180.713 125.081 180.655C125.282 180.555 125.383 180.249 125.35 179.836C125.258 178.699 125.674 173.392 125.691 173.167L126.289 173.161C126.416 174.478 126.815 178.064 127.119 178.841C127.133 178.876 127.146 178.904 127.157 178.927C127.294 178.712 127.463 178.122 127.376 177.557C127.215 176.514 126.892 172.606 126.879 172.44L126.72 170.507L127.456 172.302C128.11 173.899 128.984 175.743 129.253 175.937C129.302 175.97 129.34 175.987 129.363 175.994Z" fill="#211915"/>
<path d="M90.2634 236.393L88.8942 242.783L84.9846 242.289V234.941L90.2634 236.393Z" fill="#EBEBEB"/>
<path d="M85.0267 241.834C85.0267 241.834 82.6957 244.532 83.6227 246.907C84.5497 249.283 101.36 247.52 101.36 247.52C101.36 247.52 101.974 247.139 100.888 246.682L93.0457 243.795C93.0457 243.795 89.7325 242.008 88.0213 242.284C86.5945 242.515 85.0267 241.834 85.0267 241.834Z" fill="black"/>
<path d="M71.1198 236.393L72.489 242.783L76.3986 242.289V234.941L71.1198 236.393Z" fill="#EBEBEB"/>
<path d="M76.3566 241.834C76.3566 241.834 78.6876 244.532 77.7606 246.907C76.8336 249.283 60.0222 247.52 60.0222 247.52C60.0222 247.52 59.409 247.139 60.495 246.682L68.337 243.795C68.337 243.795 71.6502 242.008 73.3614 242.284C74.7888 242.515 76.3566 241.834 76.3566 241.834Z" fill="black"/>
<path d="M105.938 169.139C105.938 169.139 101.098 215.379 90.9427 238.67H83.7271L81.9535 198.555L77.8975 238.67H70.0705C70.0705 238.67 57.1471 208.472 61.4785 172.354C65.8093 136.237 105.938 169.139 105.938 169.139Z" fill="#BF0411"/>
<path d="M74.7138 98.0832C74.379 102.325 74.9688 106.268 80.9562 109.885C80.9562 109.885 83.8116 113.542 82.314 117.911C80.8164 122.279 93.1272 123.433 92.0346 117.026C91.9632 116.607 91.9128 116.186 91.8828 115.764C91.4502 109.746 95.0382 103.604 97.575 100.069C100.289 96.2874 100.393 87.7068 95.619 84.333C93.7428 83.007 88.6818 82.8942 85.2408 84.0948C79.4022 86.1336 75.2004 91.9188 74.7138 98.0832Z" fill="#FFCB9C"/>
<path d="M83.0172 88.7736L79.6968 97.3794L84.3672 97.4346L83.0172 88.7736Z" fill="#FF6252"/>
<path d="M97.8822 97.0007C97.8822 97.0007 99.8898 96.5393 100.531 98.7401C101.173 100.941 97.6446 104.977 96.3366 102.684C95.0292 100.391 97.8822 97.0007 97.8822 97.0007Z" fill="#FFCB9C"/>
<path d="M80.1348 92.319C80.01 92.796 79.6404 93.1122 79.3092 93.0252C78.978 92.9388 78.8106 92.4815 78.9354 92.0051C79.0602 91.5281 79.4298 91.2119 79.761 91.2989C80.0922 91.3859 80.2596 91.8426 80.1348 92.319Z" fill="black"/>
<path d="M87.6906 92.6946C87.5658 93.1716 87.1962 93.4878 86.865 93.4008C86.5338 93.3144 86.3664 92.8572 86.4912 92.3808C86.616 91.9038 86.9856 91.5876 87.3168 91.6746C87.648 91.761 87.8154 92.2176 87.6906 92.6946Z" fill="black"/>
<path d="M104.014 98.439C104.58 99.3204 105.176 100.278 105.726 101.283C108.944 77.4252 88.827 74.8326 88.827 74.8326L87.7314 83.0118C87.7314 83.0118 88.0789 84.8322 88.6891 87.6042C95.5117 87.8136 100.485 92.9454 104.014 98.439Z" fill="#BF0411"/>
<path d="M69.9774 242.783L66.3774 230.041L79.677 229.441L77.9784 246.041L69.9774 242.783Z" fill="black"/>
<path d="M92.1894 243.373L96.5646 230.041L83.2644 229.441L83.4726 244.991L92.1894 243.373Z" fill="black"/>
<path d="M63.9763 218.263L65.5423 224.769H79.3033L79.9609 218.263H63.9763Z" fill="#E6B54A"/>
<path d="M82.8247 218.263L83.0761 223.943L95.7697 224.769L97.3381 218.906L82.8247 218.263Z" fill="#E6B54A"/>
<path d="M73.7112 119.954C73.7112 119.954 52.2798 145.801 54.7338 186.441H108.718C108.718 186.441 118.043 135.377 100.375 121.567C82.7076 107.756 73.7112 119.954 73.7112 119.954Z" fill="#BF0411"/>
<path d="M83.2645 184.791L81.2245 188.898L54.5095 188.241L54.0271 182.337L83.2645 184.791Z" fill="#E6B54A"/>
<path d="M83.2644 184.791L85.0878 188.898L108.964 188.241L109.396 182.337L83.2644 184.791Z" fill="#E6B54A"/>
<path d="M55.7772 163.847C55.7772 163.847 87.8412 168.254 111.059 163.847L111.178 154.191C111.178 154.191 71.2692 156.781 58.5234 151.286C58.5234 151.286 56.3106 159.904 55.7772 163.847Z" fill="#E6B54A"/>
<g opacity="0.18">
<path d="M60.5905 193.006C60.5905 193.006 66.0367 188.948 72.3937 194.231C78.7507 199.513 72.3583 208.222 68.9911 211.649C65.6233 215.075 71.2519 222.499 65.5123 224.069C65.5123 224.069 60.9583 209.271 60.5905 193.006Z" fill="#274F6D"/>
</g>
<g opacity="0.18">
<path d="M102.272 195.036C102.272 195.036 97.3483 191.944 92.1769 196.241C87.0055 200.539 91.9597 208.625 94.6993 211.412C97.4389 214.2 92.0749 219.937 96.7435 221.215C96.7435 221.215 100.278 206.241 102.272 195.036Z" fill="#274F6D"/>
</g>
<path d="M73.7113 119.954L76.3771 109.775L84.7771 113.26V120.686L73.7113 119.954Z" fill="#E6B54A"/>
<path d="M101.134 120.677C111.951 121.843 120.208 126.223 125.699 133.712C131.968 142.264 132.878 152.649 132.53 159.886C132.31 164.489 127.969 167.762 123.482 166.709L121.975 166.362C118.523 165.566 116.134 162.431 116.266 158.891C116.448 154.012 115.805 147.689 112.548 143.283C109.669 139.39 104.98 137.254 98.2123 136.741L99.4315 120.522C100.006 120.565 100.574 120.617 101.134 120.677Z" fill="#BF0411"/>
<path d="M82.3813 184.964C77.8909 162.028 83.8261 120.967 83.8867 120.555L85.6675 120.817C85.6075 121.226 79.7167 161.984 84.1477 184.618L82.3813 184.964Z" fill="#A30010"/>
<path d="M60.2053 97.9349L43.9147 98.8121L44.2879 104.032L60.5905 102.899L60.2053 97.9349Z" fill="#E6B54A"/>
<path d="M116.605 156.954L132.887 155.926L132.466 150.711L116.174 151.993L116.605 156.954Z" fill="#E6B54A"/>
<path d="M95.4367 136.715L94.0531 135.9C93.8677 135.791 93.6409 135.78 93.4459 135.871L91.9897 136.548C91.4989 136.777 90.9589 136.343 91.0765 135.814L91.4245 134.246C91.4713 134.036 91.4113 133.817 91.2649 133.66L90.1705 132.484C89.8015 132.088 90.0475 131.441 90.5863 131.389L92.1853 131.236C92.3995 131.215 92.5897 131.09 92.6941 130.903L93.4741 129.499C93.7369 129.025 94.4287 129.059 94.6441 129.556L95.2843 131.029C95.3701 131.226 95.5471 131.368 95.7583 131.41L97.3345 131.717C97.8661 131.821 98.0473 132.489 97.6417 132.848L96.4387 133.912C96.2779 134.054 96.1969 134.267 96.2233 134.48L96.4177 136.074C96.4825 136.611 95.9035 136.99 95.4367 136.715Z" fill="#E6B54A"/>
<path d="M80.1763 98.4371L71.9773 104.032L89.9953 104.578L86.4499 98.8121L80.1763 98.4371Z" fill="black"/>
<path d="M98.2129 119.954L95.5471 109.775L87.1471 113.26V120.686L98.2129 119.954Z" fill="#E6B54A"/>
<path d="M78.0901 86.0574C78.0901 86.0574 80.3863 75.1409 87.0439 74.8409C93.7015 74.5409 96.9259 81.9725 93.9637 88.2695L78.0901 86.0574Z" fill="#A30010"/>
<path d="M97.8631 119.818C97.3915 119.818 96.9445 119.538 96.7531 119.075C96.5005 118.462 96.7921 117.761 97.4047 117.508C97.4545 117.487 102.64 115.272 104.264 110.319C105.379 106.919 104.599 102.961 101.949 98.5542C100.037 95.376 97.6471 93.141 95.0983 91.584C86.5453 86.361 76.1959 88.773 76.0615 88.806C75.4171 88.9626 74.7685 88.5678 74.6113 87.924C74.4547 87.2802 74.8495 86.631 75.4933 86.4738C75.6853 86.4282 94.7791 81.978 104.006 97.317C107.039 102.359 107.89 106.993 106.537 111.091C104.554 117.095 98.5747 119.622 98.3209 119.726C98.1703 119.788 98.0155 119.818 97.8631 119.818Z" fill="#BF0411"/>
<path d="M87.9583 84.0534L86.5747 83.238C86.3893 83.1288 86.1625 83.118 85.9675 83.2086L84.5113 83.886C84.0205 84.1146 83.4805 83.6808 83.5981 83.1522L83.9461 81.5844C83.9929 81.3744 83.9329 81.1554 83.7865 80.9976L82.6921 79.8222C82.3231 79.4256 82.5691 78.7788 83.1079 78.7266L84.7069 78.573C84.9211 78.5526 85.1113 78.4278 85.2157 78.24L85.9957 76.836C86.2585 76.3626 86.9503 76.3962 87.1657 76.893L87.8059 78.366C87.8917 78.5634 88.0687 78.7056 88.2799 78.747L89.8561 79.0548C90.3877 79.1586 90.5689 79.8264 90.1633 80.1852L88.9603 81.249C88.7995 81.3912 88.7185 81.6042 88.7449 81.8172L88.9393 83.4114C89.0041 83.949 88.4245 84.3282 87.9583 84.0534Z" fill="#E6B54A"/>
<path d="M131.867 179.295C131.867 180.975 128.831 182.337 125.085 182.337C121.34 182.337 118.303 180.975 118.303 179.295C118.303 177.615 121.34 176.253 125.085 176.253C128.83 176.254 131.867 177.616 131.867 179.295Z" fill="#1B8772"/>
<path d="M150.26 236.393L148.89 242.783L144.981 242.289V234.941L150.26 236.393Z" fill="#EBEBEB"/>
<path d="M145.023 241.834C145.023 241.834 142.692 244.532 143.619 246.907C144.546 249.283 161.357 247.52 161.357 247.52C161.357 247.52 161.97 247.139 160.884 246.682L153.042 243.795C153.042 243.795 149.729 242.008 148.018 242.284C146.59 242.515 145.023 241.834 145.023 241.834Z" fill="black"/>
<path d="M131.116 236.393L132.486 242.783L136.395 242.289V234.941L131.116 236.393Z" fill="#EBEBEB"/>
<path d="M136.353 241.834C136.353 241.834 138.684 244.532 137.757 246.907C136.83 249.283 120.019 247.52 120.019 247.52C120.019 247.52 119.406 247.139 120.492 246.682L128.334 243.795C128.334 243.795 131.647 242.008 133.358 242.284C134.785 242.515 136.353 241.834 136.353 241.834Z" fill="black"/>
<path d="M165.935 169.139C165.935 169.139 161.094 215.379 150.939 238.67H143.267L141.95 198.555L137.894 238.67H130.067C130.067 238.67 117.144 208.472 121.475 172.354C125.806 136.237 165.935 169.139 165.935 169.139Z" fill="#239F87"/>
<g opacity="0.08">
<path d="M164.239 181.496C164.239 181.496 160.009 177.154 154.73 182.12C149.45 187.085 155.334 193.938 153.32 199.649C151.306 205.36 152.804 211.7 158.827 212.626C158.827 212.626 162.959 196.844 164.239 181.496Z" fill="#274F6D"/>
</g>
<g opacity="0.08">
<path d="M120.731 193.705C120.731 193.705 126.177 189.648 132.534 194.93C138.891 200.213 132.499 208.922 129.131 212.348C125.764 215.775 131.392 223.199 125.653 224.769C125.653 224.769 121.098 209.971 120.731 193.705Z" fill="#274F6D"/>
</g>
<path d="M137.975 126.907L128.967 176.933C131.659 178.165 134.582 178.811 137.542 178.827L153.513 178.916L146.71 126.907H137.975Z" fill="#EBEBEB"/>
<path d="M141.853 121.005C141.853 121.005 112.308 121.847 118.274 179.36C118.274 179.36 121.197 174.337 128.967 176.933C131.077 177.639 133.298 176.2 133.508 173.984L137.975 126.907H146.71L154.142 183.721C154.834 189.015 161.67 190.797 164.789 186.464C164.863 186.361 164.9 186.304 164.9 186.304C164.9 186.304 183.509 128.642 141.853 121.005Z" fill="#31BDAA"/>
<path d="M143.743 88.4106C143.743 90.1638 142.322 91.5852 140.569 91.5852C138.816 91.5852 137.395 90.1638 137.395 88.4106C137.395 86.6574 138.815 85.2366 140.569 85.2366C142.322 85.2366 143.743 86.658 143.743 88.4106Z" fill="black"/>
<path d="M141.487 90.8136C141.487 92.5668 140.066 93.9876 138.313 93.9876C136.561 93.9876 135.139 92.5668 135.139 90.8136C135.139 89.0604 136.561 87.639 138.313 87.639C140.066 87.639 141.487 89.0604 141.487 90.8136Z" fill="black"/>
<path d="M149.591 124.448C149.591 126.526 146.551 128.21 142.799 128.21C139.048 128.21 136.007 126.526 136.007 124.448C136.007 122.371 139.048 120.686 142.799 120.686C146.551 120.686 149.591 122.371 149.591 124.448Z" fill="#EBEBEB"/>
<path d="M152.079 112.814C153.832 112.814 155.254 111.392 155.254 109.639C155.254 107.886 153.832 106.465 152.079 106.465C150.326 106.465 148.904 107.886 148.904 109.639C148.904 111.392 150.326 112.814 152.079 112.814Z" fill="black"/>
<path d="M153.059 112.949C153.059 114.703 151.637 116.123 149.885 116.123C148.132 116.123 146.71 114.702 146.71 112.949C146.71 111.196 148.132 109.775 149.885 109.775C151.638 109.775 153.059 111.196 153.059 112.949Z" fill="black"/>
<path d="M159.167 105.56C159.167 107.314 157.745 108.734 155.992 108.734C154.239 108.734 152.818 107.314 152.818 105.56C152.818 103.807 154.24 102.386 155.992 102.386C157.745 102.386 159.167 103.807 159.167 105.56Z" fill="black"/>
<path d="M161.156 101.403C161.156 103.156 159.735 104.578 157.982 104.578C156.229 104.578 154.808 103.156 154.808 101.403C154.808 99.6498 156.229 98.229 157.982 98.229C159.734 98.229 161.156 99.6504 161.156 101.403Z" fill="black"/>
<path d="M162.341 97.0572C162.341 98.8104 160.92 100.231 159.167 100.231C157.414 100.231 155.992 98.8104 155.992 97.0572C155.992 95.304 157.414 93.8832 159.167 93.8832C160.92 93.8832 162.341 95.304 162.341 97.0572Z" fill="black"/>
<path d="M130.518 103.48C130.183 107.722 130.773 111.665 136.76 115.282C136.76 115.282 139.616 118.939 138.118 123.308C136.621 127.676 148.931 128.83 147.839 122.423C147.767 122.004 147.717 121.583 147.687 121.162C147.254 115.144 150.842 109.001 153.379 105.467C156.094 101.685 156.197 93.1045 151.423 89.7307C149.547 88.4047 144.486 88.2919 141.045 89.4925C135.207 91.5307 131.005 97.3159 130.518 103.48Z" fill="#FFCB9C"/>
<path d="M138.821 94.1707L135.501 102.776L140.172 102.832L138.821 94.1707Z" fill="#FF6252"/>
<path d="M153.686 102.398C153.686 102.398 155.695 101.937 156.336 104.137C156.977 106.338 153.449 110.374 152.141 108.081C150.833 105.789 153.686 102.398 153.686 102.398Z" fill="#FFCB9C"/>
<path d="M135.939 97.7166C135.814 98.1936 135.445 98.5098 135.113 98.4228C134.782 98.3364 134.615 97.8793 134.74 97.4029C134.864 96.9259 135.234 96.6097 135.565 96.6967C135.897 96.7831 136.064 97.2396 135.939 97.7166Z" fill="black"/>
<path d="M143.495 98.0916C143.37 98.5686 143 98.8848 142.669 98.7978C142.338 98.7114 142.171 98.2543 142.295 97.7779C142.42 97.3009 142.79 96.9847 143.121 97.0717C143.452 97.1581 143.62 97.6146 143.495 98.0916Z" fill="black"/>
<path d="M138.856 106.103C138.856 106.103 137.639 105.437 136.613 105.457C135.586 105.476 134.598 105.874 134.426 107.171C134.254 108.469 135.547 109.393 137.111 110.14C138.032 110.581 141.123 111.026 142.769 110.177C144.415 109.328 145.271 108.664 145.607 107.526C145.943 106.388 145.017 105.265 144.118 104.963C143.218 104.66 142.311 105.123 141.893 105.476C141.474 105.828 140.452 106.685 138.856 106.103Z" fill="#CE3E3E"/>
<path d="M135.517 109.208C135.517 109.208 136.718 108.399 138.681 108.612C140.644 108.824 141.414 109.577 142.281 110.379C142.281 110.379 140.101 111.056 137.97 110.451C136.241 109.96 135.517 109.208 135.517 109.208Z" fill="#FF7D7D"/>
<path d="M149.885 86.1858C149.885 87.939 148.463 89.3604 146.71 89.3604C144.957 89.3604 143.536 87.939 143.536 86.1858C143.536 84.4326 144.958 83.0112 146.71 83.0112C148.463 83.0112 149.885 84.4326 149.885 86.1858Z" fill="black"/>
<path d="M145.143 87.6391C145.143 89.3923 143.722 90.8137 141.969 90.8137C140.216 90.8137 138.795 89.3923 138.795 87.6391C138.795 85.8859 140.216 84.4651 141.969 84.4651C143.722 84.4651 145.143 85.8865 145.143 87.6391Z" fill="black"/>
<path d="M154.168 88.659C154.168 90.4122 152.747 91.833 150.994 91.833C149.241 91.833 147.82 90.4116 147.82 88.659C147.82 86.9064 149.241 85.485 150.994 85.485C152.747 85.485 154.168 86.9064 154.168 88.659Z" fill="black"/>
<path d="M155.253 93.096C155.253 94.8492 153.832 96.27 152.079 96.27C150.326 96.27 148.905 94.8492 148.905 93.096C148.905 91.3428 150.326 89.922 152.079 89.922C153.832 89.922 155.253 91.3428 155.253 93.096Z" fill="black"/>
<path d="M159.167 90.3144C159.167 92.0676 157.745 93.4884 155.992 93.4884C154.239 93.4884 152.818 92.0676 152.818 90.3144C152.818 88.5612 154.24 87.1404 155.992 87.1404C157.745 87.1398 159.167 88.5612 159.167 90.3144Z" fill="black"/>
<path d="M161.156 93.096C161.156 94.8492 159.735 96.27 157.982 96.27C156.229 96.27 154.808 94.8492 154.808 93.096C154.808 91.3428 156.229 89.922 157.982 89.922C159.734 89.9214 161.156 91.3428 161.156 93.096Z" fill="black"/>
<path d="M156.756 86.1858C156.756 87.939 155.335 89.3604 153.581 89.3604C151.828 89.3604 150.407 87.939 150.407 86.1858C150.407 84.4326 151.829 83.0112 153.581 83.0112C155.335 83.0112 156.756 84.4326 156.756 86.1858Z" fill="black"/>
<path d="M152.766 83.4966C152.766 85.2498 151.345 86.6706 149.591 86.6706C147.838 86.6706 146.417 85.2492 146.417 83.4966C146.417 81.744 147.839 80.3226 149.591 80.3226C151.344 80.3226 152.766 81.7434 152.766 83.4966Z" fill="black"/>
<path d="M146.71 84.465C146.71 86.2182 145.29 87.639 143.536 87.639C141.783 87.639 140.362 86.2176 140.362 84.465C140.362 82.7124 141.783 81.291 143.536 81.291C145.29 81.2904 146.71 82.7118 146.71 84.465Z" fill="black"/>
<path d="M142.073 86.6712C142.073 88.4244 140.652 89.8458 138.899 89.8458C137.146 89.8458 135.725 88.4244 135.725 86.6712C135.725 84.918 137.146 83.4972 138.899 83.4972C140.652 83.4966 142.073 84.918 142.073 86.6712Z" fill="black"/>
<path d="M159.167 96.2701C159.167 98.0233 157.745 99.4447 155.992 99.4447C154.239 99.4447 152.818 98.0233 152.818 96.2701C152.818 94.5169 154.24 93.0961 155.992 93.0961C157.745 93.0961 159.167 94.5169 159.167 96.2701Z" fill="black"/>
<path d="M158.428 100.857C158.428 102.61 157.006 104.031 155.254 104.031C153.501 104.031 152.08 102.61 152.08 100.857C152.08 99.1038 153.501 97.6824 155.254 97.6824C157.006 97.683 158.428 99.1038 158.428 100.857Z" fill="black"/>
<path d="M158.795 137.579L149.033 140.736L151.985 149.864L161.746 146.707L158.795 137.579Z" fill="#2BAA95"/>
<path d="M124.925 133.264C124.925 133.264 117.47 151.987 134.295 151.864L123.28 160.563C123.28 160.563 117.021 149.541 116.92 149.141C116.82 148.741 117.478 135.841 117.478 135.841L124.413 133.264H124.925Z" fill="#2BAA95"/>
<path d="M161.029 134.925C161.029 134.925 167.115 154.394 150.29 154.271L152.243 166.861C152.243 166.861 168.933 151.202 169.033 150.802C169.133 150.402 168.476 137.502 168.476 137.502L161.54 134.925H161.029Z" fill="#2BAA95"/>
<path d="M121.487 148.933C120.487 144.085 127.112 131.83 136.86 122.213C136.86 122.213 115.638 128.738 110.48 138.862C108.603 142.826 107.649 147.154 108.555 151.577C110.543 161.282 120.023 167.798 137.535 171.499L140.264 158.584C123.98 155.143 121.775 150.327 121.487 148.933Z" fill="#31BDAA"/>
<path d="M151.956 174.994H130.808C130.464 174.994 130.15 174.797 130.001 174.487L119.297 152.312C119.01 151.717 119.443 151.027 120.104 151.027H141.252C141.596 151.027 141.909 151.223 142.059 151.533L152.763 173.708C153.05 174.303 152.617 174.994 151.956 174.994Z" fill="#5B400A"/>
<path d="M151.346 175.831H130.198C129.854 175.831 129.541 175.634 129.391 175.325L118.687 153.149C118.399 152.555 118.833 151.864 119.494 151.864H140.642C140.986 151.864 141.299 152.061 141.449 152.371L152.153 174.546C152.44 175.141 152.007 175.831 151.346 175.831Z" fill="#6E5128"/>
<path d="M143.276 163.873C143.276 163.873 135.118 166.136 134.524 166.625C133.93 167.113 134.527 167.846 135.907 167.383C137.287 166.921 141.589 165.875 141.589 165.875C141.589 165.875 134.885 168.401 134.712 168.886C134.539 169.372 135.012 169.912 135.892 169.472C136.771 169.032 141.347 167.59 141.347 167.59C141.347 167.59 137.646 169.519 136.975 170.152C136.305 170.786 137.618 170.825 138.409 170.355C139.199 169.885 142.359 168.295 142.359 168.295C142.359 168.295 140.044 170.552 139.939 171.064C139.833 171.576 140.269 171.583 140.61 171.358C140.951 171.133 143.56 168.517 143.56 168.517C143.56 168.517 146.963 167.743 147.842 165.647C148.72 163.551 147.685 162.695 147.32 162.671C146.956 162.646 140.501 162.025 139.549 162.291C138.597 162.557 139.255 163.742 140.866 163.715C142.476 163.687 143.546 163.438 143.276 163.873Z" fill="#EBEBEB"/>
<path d="M163.267 148.933C164.268 144.085 159.34 132.862 149.592 123.245C149.592 123.245 169.117 128.738 174.275 138.862C176.152 142.826 177.106 147.154 176.2 151.577C174.493 159.908 167.266 165.889 154.178 169.756C150.468 170.852 146.605 168.59 145.806 164.804C145.093 161.435 147.098 158.083 150.402 157.111C161.341 153.892 163.018 150.137 163.267 148.933Z" fill="#31BDAA"/>
<path d="M131.125 100.232C131.125 100.232 136.16 104.248 145.678 100.232L148.521 108.764C148.521 108.764 144.601 115.584 133.136 112.425C133.136 112.425 128.654 109.422 131.125 100.232Z" fill="#31BDAA"/>
<path d="M138.781 113.552C137.117 113.552 135.217 113.309 133.057 112.714L132.969 112.675C132.779 112.547 128.337 109.445 130.835 100.154L130.953 99.714L131.311 99.9972C131.361 100.036 136.341 103.846 145.562 99.9558L145.861 99.8298L148.847 108.797L148.781 108.914C148.748 108.97 146.012 113.551 138.781 113.552ZM133.268 112.15C143.54 114.96 147.625 109.569 148.191 108.724L145.495 100.633C137.435 103.925 132.631 101.559 131.307 100.723C129.275 108.823 132.869 111.845 133.268 112.15Z" fill="#EBEBEB"/>
<path d="M153.532 96.4109L145.551 99.9576L145.795 100.506L153.775 96.9592L153.532 96.4109Z" fill="#EBEBEB"/>
<path d="M148.44 108.484L148.302 109.068L152.012 109.944L152.15 109.36L148.44 108.484Z" fill="#EBEBEB"/>
<path d="M124.863 129.592L124.285 129.409L122.376 135.436C122.218 135.937 122.216 136.467 122.371 136.969L122.936 138.791L123.515 138.612L122.951 136.79C122.832 136.406 122.833 136.002 122.954 135.62L124.863 129.592Z" fill="#EDEDED"/>
<path d="M123.387 138.293C123.387 138.293 123.706 138.336 124.189 138.663C124.672 138.99 125.098 139.429 124.76 140.017C124.422 140.605 123.906 140.725 123.649 140.643C123.406 140.566 122.52 139.761 122.782 138.644C122.809 138.526 122.895 138.43 123.006 138.382C123.13 138.33 123.291 138.275 123.387 138.293Z" fill="#1D1D1B"/>
<path d="M136.417 133.001L137.002 133.162L135.333 139.259C135.194 139.766 134.907 140.212 134.504 140.549L133.041 141.773L132.651 141.307L134.115 140.084C134.422 139.826 134.641 139.486 134.747 139.099L136.417 133.001Z" fill="#EDEDED"/>
<path d="M132.933 141.11C132.933 141.11 132.641 140.972 132.058 140.985C131.475 140.997 130.879 141.134 130.843 141.812C130.808 142.489 131.176 142.87 131.436 142.94C131.683 143.008 132.863 142.813 133.25 141.733C133.291 141.619 133.272 141.491 133.204 141.391C133.128 141.281 133.023 141.146 132.933 141.11Z" fill="#1D1D1B"/>
<path d="M124.696 130.229C124.857 130.28 125.028 130.19 125.079 130.03L126.113 126.763C126.572 125.316 127.565 124.104 128.839 123.436C130.105 122.773 131.501 122.675 132.989 123.146L133.477 123.3C134.964 123.771 136.049 124.655 136.703 125.926C137.36 127.205 137.474 128.768 137.017 130.215L135.953 133.573C135.919 133.684 135.98 133.802 136.09 133.837L136.847 134.077C136.957 134.111 137.075 134.05 137.111 133.94L138.174 130.582C138.728 128.832 138.585 126.933 137.783 125.372C136.976 123.802 135.65 122.716 133.843 122.143L133.355 121.989C131.548 121.417 129.839 121.542 128.275 122.362C126.72 123.176 125.51 124.647 124.957 126.397L123.922 129.664C123.871 129.825 123.96 129.996 124.12 130.047L124.696 130.229Z" fill="#1D1D1B"/>
<path d="M155.981 148.178C156.649 149.541 156.085 151.187 154.722 151.855C153.359 152.522 151.713 151.959 151.045 150.596C150.377 149.233 150.941 147.587 152.304 146.92C153.667 146.252 155.313 146.816 155.981 148.178Z" fill="#1D1D1B"/>
<path d="M155.578 148.376C156.137 149.516 155.665 150.893 154.525 151.452C153.385 152.011 152.008 151.539 151.449 150.399C150.89 149.258 151.362 147.881 152.502 147.323C153.642 146.764 155.02 147.235 155.578 148.376Z" fill="#B2B2B2"/>
<path d="M155.218 148.552C155.68 149.494 155.29 150.631 154.349 151.093C153.407 151.554 152.27 151.165 151.808 150.223C151.347 149.282 151.736 148.144 152.678 147.683C153.62 147.221 154.757 147.61 155.218 148.552Z" fill="#EDEDED"/>
<path d="M135.413 123.097L134.864 122.857C135.719 120.901 138.266 119.623 138.374 119.57L138.64 120.107C138.616 120.119 136.18 121.343 135.413 123.097Z" fill="#1D1D1B"/>
<path d="M151.335 147.596C149.399 142.609 150.676 137.192 152.443 129.694L152.527 129.34C154.243 122.054 148.085 119.816 147.823 119.725L148.02 119.158C148.09 119.182 154.949 121.672 153.111 129.478L153.028 129.831C151.286 137.224 150.027 142.566 151.894 147.38L151.335 147.596Z" fill="#1D1D1B"/>
<path d="M34.0807 245.779C34.4251 247.256 34.9723 248.592 35.7469 249.612C36.8653 249.536 37.8445 249.383 38.5999 249.176C37.5205 247.354 36.9769 244.904 36.8719 242.46C36.7651 244.085 35.6107 245.407 34.0807 245.779Z" fill="#2CB063"/>
<path d="M40.5823 222.674C40.7305 222.535 40.8715 222.368 41.0107 222.195C40.4305 219.529 39.2599 216.622 37.3657 213.044C37.0663 212.479 36.8623 211.903 36.7189 211.326C37.2511 214.949 38.4769 217.721 39.4519 219.898C39.9073 220.913 40.3099 221.828 40.5823 222.674Z" fill="#2CB063"/>
<path d="M36.4855 209.054C36.5941 205.44 38.7631 202.316 38.8537 202.188C40.0225 200.599 40.2271 198.601 39.5857 196.877C38.2171 198.952 36.6067 202.316 36.4609 206.834C36.4357 207.605 36.4477 208.343 36.4855 209.054Z" fill="#2CB063"/>
<path d="M32.6947 206.834C32.5027 212.786 34.3429 216.897 35.6869 219.899C36.3397 221.356 36.9031 222.615 37.0951 223.747C37.9171 228.601 36.7735 231.34 34.7923 235.275C34.3531 236.147 34.0279 237.31 33.8299 238.607C35.4409 238.88 36.6763 240.191 36.8527 241.825C36.8209 239.213 37.2739 236.684 38.0995 235.044C38.8303 233.593 39.4459 232.319 39.8869 231.037C39.4033 231.139 38.9545 231.203 38.5693 231.226L38.1319 223.884L38.0623 223.889C38.2207 223.873 39.1885 223.739 40.1593 223.024C39.8989 222.154 39.4669 221.187 38.9839 220.108C37.6195 217.061 35.7511 212.888 35.9473 206.818C36.1009 202.069 37.8331 198.55 39.2593 196.434C39.2815 196.401 39.3193 196.392 39.3517 196.373C39.0043 195.664 38.5099 195.02 37.8619 194.491C37.8505 194.504 37.8505 194.524 37.8361 194.534C37.7869 194.57 32.9731 198.219 32.6947 206.834Z" fill="#2CB063"/>
<path d="M33.1596 245.897C33.0288 245.895 31.7868 245.863 30.0582 245.399C30.3882 246.994 30.9528 248.446 31.7676 249.547C32.5002 249.625 33.3018 249.671 34.152 249.671C34.4868 249.671 34.8102 249.661 35.13 249.648C34.4076 248.6 33.8934 247.293 33.561 245.872C33.4284 245.884 33.2958 245.899 33.1596 245.897Z" fill="#2CB063"/>
<path d="M34.7161 193.585C34.6597 193.63 29.0437 198.208 28.7653 206.834C28.5727 212.786 30.4129 216.897 31.7569 219.898C32.4097 221.357 32.9731 222.616 33.1651 223.747C33.9877 228.602 32.8441 231.341 30.8629 235.276C30.5461 235.905 30.2911 236.69 30.0967 237.562C31.7671 238.473 33.2431 238.542 33.2677 238.543C33.2821 238.543 33.2953 238.547 33.3103 238.547C33.5203 237.194 33.8665 235.975 34.3345 235.045C36.2617 231.218 37.4017 228.629 36.5893 223.834C36.4081 222.766 35.8573 221.534 35.2189 220.109C33.8545 217.061 31.9861 212.889 32.1817 206.819C32.4523 198.453 36.7741 194.718 37.4473 194.187C36.6193 193.63 35.6977 193.316 34.7617 193.242C34.8373 193.351 34.8223 193.501 34.7161 193.585Z" fill="#2CB063"/>
<path d="M29.6299 237.286C29.8315 236.442 30.0877 235.673 30.4045 235.045C32.3317 231.218 33.4711 228.629 32.6587 223.833C32.4781 222.764 31.9267 221.534 31.2883 220.107C29.9239 217.061 28.0555 212.887 28.2517 206.818C28.5265 198.315 33.8491 193.643 34.3459 193.226C32.6167 193.217 30.9049 193.983 29.7913 195.475C26.6437 199.694 22.5979 209.252 27.3985 218.321C31.0525 225.223 30.7261 226.661 28.5811 232.316C28.1863 233.357 27.8791 234.424 27.6397 235.508C28.2631 236.283 28.9525 236.857 29.6299 237.286Z" fill="#2CB063"/>
<path d="M38.5579 235.275C36.9721 238.425 36.8257 245.287 39.1033 249.021C39.6061 248.84 39.9391 248.63 40.0759 248.402C38.1583 243.664 37.8445 239.693 39.1261 236.315C39.8911 234.298 40.4815 232.493 40.8799 230.778C40.7353 230.822 40.5955 230.861 40.4557 230.899C40.0027 232.308 39.3529 233.696 38.5579 235.275Z" fill="#2CB063"/>
<path d="M31.0651 249.457C30.3067 248.283 29.7967 246.809 29.4937 245.23C28.8247 245.025 28.1047 244.759 27.3529 244.405C27.5323 245.687 27.8083 246.992 28.1677 248.317C28.3429 248.803 29.4601 249.218 31.0651 249.457Z" fill="#2CB063"/>
<path d="M49.6111 211.292C49.4281 210.216 48.7873 209.341 47.9293 208.803C48.3415 210.344 50.1253 217.789 47.5669 222.82C44.7565 228.347 41.9221 229.123 41.8027 229.153C41.7817 229.157 41.7601 229.16 41.7397 229.16C41.6257 229.16 41.5219 229.083 41.4919 228.968C41.4565 228.832 41.5387 228.691 41.6755 228.655C41.7025 228.648 44.4187 227.878 47.1097 222.587C49.8205 217.255 47.3815 208.739 47.3569 208.654C47.3425 208.605 47.3587 208.558 47.3719 208.513C46.8451 208.297 46.2649 208.21 45.6661 208.262C45.7267 208.297 45.7747 208.352 45.7921 208.424C45.9271 208.992 49.0123 222.357 41.8381 225.962C41.8009 225.98 41.7619 225.989 41.7229 225.989C41.6293 225.989 41.5387 225.937 41.4937 225.847C41.4307 225.721 41.4811 225.566 41.6077 225.502C48.4195 222.08 45.3247 208.678 45.2929 208.543C45.2665 208.432 45.3289 208.336 45.4213 208.279C45.4039 208.282 45.3865 208.28 45.3691 208.283C44.6593 208.403 44.0389 208.727 43.5397 209.174C43.5679 209.206 43.6015 209.233 43.6111 209.278C43.7053 209.704 45.8737 219.761 41.3371 223.226C41.2903 223.262 41.2357 223.28 41.1811 223.28C41.1037 223.28 41.0275 223.244 40.9771 223.178C40.8907 223.066 40.9123 222.905 41.0251 222.82C44.9731 219.804 43.4311 211.013 43.1509 209.589C42.5017 210.383 42.1741 211.433 42.3595 212.525C42.5941 213.907 42.9637 218.474 41.6251 221.242C41.4445 221.615 41.2327 221.919 41.0107 222.195C40.8715 222.368 40.7305 222.535 40.5823 222.674C40.7011 223.043 40.8025 223.403 40.8607 223.747C41.3527 226.653 41.1301 228.8 40.4557 230.9C40.5955 230.863 40.7353 230.824 40.8799 230.779C43.3567 230.012 46.4443 228.173 48.2479 224.443C50.8351 219.091 49.7443 212.075 49.6111 211.292Z" fill="#2CB063"/>
<path d="M40.3543 223.833C40.3105 223.573 40.2427 223.303 40.1593 223.023C39.1891 223.739 38.2213 223.873 38.0623 223.889L38.1319 223.883L38.5693 231.226C38.9551 231.203 39.4033 231.139 39.8869 231.036C40.6087 228.937 40.8589 226.81 40.3543 223.833Z" fill="#2CB063"/>
<path d="M36.8713 242.459C36.8623 242.247 36.8551 242.036 36.8527 241.825C36.6763 240.191 35.4409 238.881 33.8299 238.607C33.4897 240.835 33.5407 243.465 34.0807 245.779C35.6107 245.407 36.7651 244.085 36.8713 242.459Z" fill="#2CB063"/>
<path d="M29.6299 237.286C28.9519 236.857 28.2631 236.283 27.6397 235.508C27.3223 235.114 27.0211 234.671 26.7487 234.167C24.4735 229.954 24.6907 223.108 24.9661 220.831C25.1365 219.46 24.5179 218.185 23.4769 217.422C23.2279 218.656 21.1045 230.268 27.7015 236.356C27.8059 236.452 27.8125 236.614 27.7159 236.719C27.6655 236.773 27.5965 236.801 27.5275 236.801C27.4651 236.801 27.4027 236.779 27.3535 236.732C20.1973 230.129 22.9705 217.324 22.9993 217.196C23.0047 217.172 23.0281 217.16 23.0395 217.139C22.6537 216.934 22.2295 216.785 21.7693 216.728C21.1891 216.656 20.6299 216.737 20.1133 216.917C20.1127 216.924 20.1181 216.929 20.1169 216.936C20.0845 217.093 16.9651 232.808 27.3211 240.382C27.4351 240.466 27.4603 240.627 27.3769 240.741C27.3271 240.81 27.2485 240.846 27.1699 240.846C27.1171 240.846 27.0643 240.83 27.0187 240.797C17.2237 233.633 19.1665 219.458 19.5565 217.159C18.6241 217.669 17.9365 218.575 17.7223 219.682C17.8489 219.712 17.9395 219.827 17.9215 219.959C17.8975 220.139 15.6271 238.013 27.1765 242.783C27.3079 242.837 27.3697 242.988 27.3157 243.119C27.2749 243.218 27.1795 243.278 27.0787 243.278C27.0463 243.278 27.0127 243.272 26.9809 243.259C22.3495 241.345 19.8745 237.416 18.5743 233.317C18.9865 234.815 19.5379 236.293 20.2771 237.662C22.2115 241.244 24.9169 243.262 27.3523 244.405C28.1041 244.758 28.8241 245.025 29.4931 245.23C28.9813 242.562 29.0755 239.608 29.6299 237.286Z" fill="#2CB063"/>
<path d="M33.5605 245.871C33.0055 243.5 32.9557 240.83 33.3097 238.547C33.2953 238.546 33.2815 238.542 33.2671 238.542C33.2425 238.542 31.7665 238.472 30.0961 237.561C29.5837 239.858 29.5201 242.799 30.0577 245.398C31.7863 245.863 33.0283 245.894 33.1591 245.896C33.2959 245.899 33.4285 245.884 33.5605 245.871Z" fill="#2CB063"/>
<path d="M27.354 236.732C27.4032 236.779 27.4656 236.801 27.528 236.801C27.597 236.801 27.666 236.773 27.7164 236.719C27.8124 236.614 27.8058 236.452 27.702 236.356C21.1056 230.268 23.2284 218.657 23.4774 217.422C23.49 217.358 23.4996 217.314 23.5008 217.308C23.5314 217.169 23.445 217.033 23.3064 217.001C23.1948 216.978 23.0946 217.043 23.04 217.14C23.0286 217.16 23.0052 217.172 22.9998 217.196C22.971 217.324 20.1972 230.129 27.354 236.732Z" fill="#006633"/>
<path d="M27.0187 240.797C27.0643 240.83 27.1177 240.846 27.1699 240.846C27.2485 240.846 27.3265 240.81 27.3769 240.741C27.4609 240.627 27.4357 240.466 27.3211 240.382C16.9651 232.808 20.0845 217.094 20.1169 216.936C20.1181 216.929 20.1127 216.924 20.1133 216.917C20.1301 216.786 20.0497 216.66 19.9177 216.632C19.7809 216.608 19.6435 216.692 19.6147 216.832C19.6123 216.844 19.5889 216.964 19.5559 217.159C19.1665 219.458 17.2237 233.633 27.0187 240.797Z" fill="#006633"/>
<path d="M26.9803 243.259C27.0121 243.272 27.0457 243.278 27.0781 243.278C27.1789 243.278 27.2743 243.218 27.3151 243.119C27.3691 242.988 27.3073 242.838 27.1759 242.783C15.6265 238.013 17.8969 220.139 17.9209 219.959C17.9389 219.827 17.8489 219.712 17.7217 219.682C17.7133 219.68 17.7097 219.671 17.7013 219.67C17.5543 219.655 17.4313 219.749 17.4127 219.891C17.3971 220.003 16.5289 226.87 18.5737 233.317C19.8745 237.416 22.3489 241.345 26.9803 243.259Z" fill="#006633"/>
<path d="M28.2523 206.818C28.0561 212.887 29.9245 217.061 31.2889 220.108C31.9267 221.534 32.4787 222.765 32.6593 223.834C33.4717 228.629 32.3323 231.218 30.4051 235.045C30.0883 235.674 29.8327 236.443 29.6305 237.287C29.0755 239.609 28.9819 242.563 29.4937 245.231C29.7967 246.809 30.3073 248.284 31.0651 249.458C31.2901 249.491 31.5247 249.521 31.7677 249.547C30.9529 248.446 30.3883 246.995 30.0583 245.399C29.5201 242.8 29.5843 239.859 30.0967 237.562C30.2911 236.69 30.5461 235.906 30.8629 235.276C32.8441 231.342 33.9877 228.604 33.1651 223.748C32.9731 222.616 32.4097 221.357 31.7569 219.899C30.4135 216.898 28.5727 212.787 28.7653 206.835C29.0437 198.209 34.6597 193.631 34.7161 193.586C34.8223 193.501 34.8373 193.351 34.7611 193.242C34.7575 193.237 34.7599 193.231 34.7563 193.226C34.6687 193.115 34.5061 193.096 34.3957 193.185C34.3933 193.187 34.3669 193.209 34.3453 193.227C33.8491 193.643 28.5265 198.316 28.2523 206.818Z" fill="#006633"/>
<path d="M32.1817 206.818C31.9861 212.888 33.8545 217.061 35.2189 220.108C35.8567 221.534 36.4081 222.766 36.5893 223.833C37.4017 228.628 36.2617 231.217 34.3345 235.045C33.8665 235.974 33.5203 237.193 33.3103 238.547C32.9563 240.83 33.0061 243.501 33.5611 245.871C33.8941 247.292 34.4083 248.6 35.1301 249.647C35.3413 249.639 35.5435 249.625 35.7469 249.611C34.9723 248.591 34.4257 247.255 34.0807 245.779C33.5407 243.464 33.4897 240.835 33.8299 238.607C34.0279 237.31 34.3531 236.147 34.7923 235.275C36.7735 231.341 37.9171 228.601 37.0951 223.747C36.9031 222.615 36.3397 221.356 35.6869 219.899C34.3435 216.897 32.5027 212.786 32.6947 206.834C32.9731 198.219 37.7869 194.57 37.8355 194.534C37.8499 194.524 37.8499 194.504 37.8613 194.491C37.9399 194.402 37.9627 194.275 37.8895 194.176C37.8061 194.062 37.6447 194.036 37.5313 194.122C37.5193 194.131 37.4881 194.154 37.4473 194.186C36.7741 194.718 32.4523 198.452 32.1817 206.818Z" fill="#006633"/>
<path d="M35.9473 206.818C35.7511 212.887 37.6195 217.061 38.9839 220.108C39.4669 221.187 39.8983 222.154 40.1593 223.024C40.2433 223.303 40.3105 223.574 40.3543 223.834C40.8589 226.811 40.6087 228.937 39.8869 231.037C39.4459 232.32 38.8303 233.594 38.0995 235.045C37.2739 236.684 36.8203 239.213 36.8527 241.825C36.8551 242.036 36.8623 242.248 36.8713 242.459C36.9763 244.904 37.5199 247.354 38.5993 249.176C38.7793 249.127 38.9509 249.076 39.1033 249.021C36.8257 245.287 36.9721 238.425 38.5579 235.275C39.3529 233.696 40.0033 232.307 40.4557 230.9C41.1307 228.8 41.3527 226.653 40.8607 223.747C40.8025 223.404 40.7017 223.043 40.5823 222.674C40.3099 221.828 39.9073 220.913 39.4525 219.898C38.4781 217.721 37.2517 214.949 36.7195 211.327C36.6127 210.601 36.5275 209.851 36.4855 209.054C36.4477 208.343 36.4357 207.605 36.4609 206.834C36.6067 202.316 38.2171 198.952 39.5857 196.877C39.6187 196.828 39.6529 196.769 39.6853 196.721C39.7645 196.603 39.7333 196.444 39.6157 196.365C39.5317 196.308 39.4345 196.325 39.3517 196.373C39.3193 196.392 39.2821 196.401 39.2593 196.434C37.8337 198.55 36.1009 202.069 35.9473 206.818Z" fill="#006633"/>
<path d="M41.0257 222.82C40.9129 222.905 40.8913 223.066 40.9777 223.178C41.0281 223.244 41.1043 223.28 41.1817 223.28C41.2363 223.28 41.2909 223.263 41.3377 223.226C45.8749 219.761 43.7065 209.704 43.6117 209.278C43.6021 209.233 43.5679 209.206 43.5403 209.174C43.4815 209.108 43.4023 209.063 43.3057 209.082C43.1671 209.113 43.0801 209.249 43.1107 209.388C43.1125 209.396 43.1281 209.47 43.1515 209.589C43.4317 211.013 44.9737 219.804 41.0257 222.82Z" fill="#006633"/>
<path d="M45.2935 208.543C45.3253 208.679 48.4201 222.081 41.6083 225.503C41.4817 225.567 41.4307 225.721 41.4943 225.848C41.5393 225.937 41.6299 225.989 41.7235 225.989C41.7625 225.989 41.8015 225.98 41.8387 225.962C49.0123 222.358 45.9271 208.993 45.7927 208.425C45.7753 208.352 45.7267 208.297 45.6667 208.263C45.6121 208.232 45.5479 208.217 45.4843 208.235C45.4573 208.241 45.4447 208.266 45.4219 208.28C45.3295 208.336 45.2671 208.433 45.2935 208.543Z" fill="#006633"/>
<path d="M47.1097 222.587C44.4187 227.879 41.7025 228.649 41.6755 228.656C41.5387 228.692 41.4565 228.832 41.4919 228.968C41.5213 229.084 41.6251 229.161 41.7397 229.161C41.7601 229.161 41.7817 229.158 41.8027 229.153C41.9221 229.123 44.7559 228.348 47.5669 222.82C50.1253 217.789 48.3415 210.344 47.9293 208.804C47.8897 208.655 47.8579 208.542 47.8489 208.511C47.8093 208.375 47.6689 208.295 47.5309 208.336C47.4439 208.362 47.3959 208.433 47.3719 208.513C47.3581 208.559 47.3425 208.606 47.3569 208.655C47.3815 208.74 49.8205 217.255 47.1097 222.587Z" fill="#006633"/>
<path d="M39.6696 251.11C39.6696 251.11 39.0619 249.851 37.3957 250.014C35.7301 250.177 36.1657 248.674 34.2997 248.431C32.4337 248.187 32.0965 248.738 29.8267 246.832C27.5574 244.926 25.6723 248.33 23.9833 246.918C22.2949 245.506 21.0853 243.231 18.2251 244.112C15.3655 244.994 16.5703 247.245 14.8759 248.094C13.1815 248.943 11.4162 249.218 10.701 251.153L39.6696 251.11Z" fill="#2FAC66"/>
<path d="M266.96 259.831C266.96 259.831 266.352 258.572 264.686 258.735C263.02 258.898 263.456 257.395 261.59 257.152C259.724 256.908 259.387 257.459 257.117 255.553C254.848 253.647 252.962 257.051 251.273 255.639C249.585 254.227 248.375 251.952 245.515 252.833C242.656 253.715 243.86 255.966 242.166 256.815C240.472 257.664 238.706 257.939 237.991 259.874L266.96 259.831Z" fill="#2FAC66"/>
<path d="M157.745 273.291C157.745 273.291 157.137 272.033 155.471 272.195C153.805 272.358 154.241 270.856 152.375 270.612C150.509 270.368 150.172 270.92 147.902 269.014C145.633 267.107 143.747 270.512 142.058 269.099C140.37 267.688 139.16 265.412 136.3 266.294C133.441 267.175 134.645 269.426 132.951 270.275C131.257 271.124 129.491 271.399 128.776 273.335L157.745 273.291Z" fill="#2FAC66"/>
<path d="M51.6792 38.8055C51.6792 38.3446 51.8132 37.9801 52.0812 37.7121C52.3492 37.4441 52.7137 37.3101 53.1747 37.3101H58.4811C58.5561 37.428 58.6204 37.5834 58.674 37.7764C58.7384 37.9694 58.7705 38.173 58.7705 38.3874C58.7705 38.7948 58.6794 39.0842 58.4972 39.2558C58.3256 39.4273 58.0952 39.513 57.8057 39.513H54.4128V41.0085H58.0308C58.1059 41.1264 58.1702 41.2818 58.2238 41.4748C58.2881 41.657 58.3203 41.8554 58.3203 42.0698C58.3203 42.4771 58.2345 42.7666 58.063 42.9381C57.8915 43.1096 57.661 43.1954 57.3716 43.1954H54.4128V44.8838H58.5454C58.6204 45.0017 58.6848 45.1571 58.7384 45.3501C58.8027 45.543 58.8348 45.7467 58.8348 45.9611C58.8348 46.3685 58.7437 46.6633 58.5615 46.8455C58.39 47.017 58.1595 47.1028 57.87 47.1028H53.1747C52.7137 47.1028 52.3492 46.9688 52.0812 46.7008C51.8132 46.4328 51.6792 46.0683 51.6792 45.6074V38.8055ZM67.289 44.6586C67.1497 44.7766 66.9674 44.873 66.7423 44.9481C66.5279 45.0124 66.276 45.0446 65.9865 45.0446C65.6006 45.0446 65.279 44.9963 65.0217 44.8998C64.7752 44.8034 64.6144 44.6372 64.5393 44.4014C64.2392 43.458 63.9926 42.6969 63.7997 42.118C63.6067 41.5284 63.4566 41.0138 63.3494 40.5743H63.269C63.2369 41.2068 63.2101 41.7857 63.1886 42.311C63.1779 42.8255 63.1672 43.3294 63.1565 43.8225C63.1565 44.3156 63.1457 44.8141 63.1243 45.3179C63.1136 45.8218 63.0921 46.3792 63.06 46.9902C62.9206 47.0438 62.7384 47.0867 62.5133 47.1189C62.2881 47.1618 62.063 47.1832 61.8379 47.1832C61.3662 47.1832 60.9964 47.1082 60.7284 46.9581C60.4711 46.808 60.3425 46.5346 60.3425 46.138L60.8088 37.9372C60.8945 37.7978 61.0821 37.6478 61.3716 37.487C61.661 37.3262 62.0684 37.2458 62.5937 37.2458C63.1618 37.2458 63.6067 37.3369 63.9283 37.5191C64.2499 37.6906 64.4857 37.9747 64.6358 38.3714C64.7323 38.6286 64.8341 38.9234 64.9413 39.2558C65.0593 39.5881 65.1718 39.9311 65.279 40.2849C65.3969 40.6386 65.5095 40.9924 65.6167 41.3462C65.7239 41.6892 65.8204 42.0001 65.9061 42.2788H65.9865C66.2438 41.3783 66.5011 40.51 66.7584 39.6738C67.0157 38.827 67.2515 38.1194 67.4659 37.5513C67.6267 37.4655 67.8304 37.3958 68.0769 37.3422C68.3342 37.2779 68.6183 37.2458 68.9292 37.2458C69.4545 37.2458 69.8833 37.3262 70.2156 37.487C70.5479 37.637 70.7409 37.8568 70.7945 38.1462C70.8373 38.3606 70.8802 38.693 70.9231 39.1432C70.9767 39.5827 71.0303 40.0812 71.0839 40.6386C71.1375 41.1961 71.1911 41.7857 71.2447 42.4074C71.2983 43.0292 71.3465 43.6295 71.3894 44.2084C71.443 44.7766 71.4859 45.3018 71.5181 45.7842C71.5502 46.2559 71.5717 46.6204 71.5824 46.8777C71.4001 46.9849 71.2072 47.0599 71.0035 47.1028C70.8105 47.1564 70.5586 47.1832 70.2477 47.1832C69.8404 47.1832 69.4973 47.1135 69.2186 46.9742C68.9399 46.8348 68.7898 46.5614 68.7684 46.1541C68.7041 44.9856 68.6612 43.935 68.6397 43.0024C68.629 42.0698 68.6076 41.2872 68.5754 40.6547H68.495C68.3878 41.0728 68.2324 41.5981 68.0287 42.2306C67.825 42.863 67.5785 43.6724 67.289 44.6586ZM73.3652 38.8055C73.3652 38.3446 73.4992 37.9801 73.7672 37.7121C74.0352 37.4441 74.3997 37.3101 74.8607 37.3101H80.1671C80.2421 37.428 80.3064 37.5834 80.36 37.7764C80.4244 37.9694 80.4565 38.173 80.4565 38.3874C80.4565 38.7948 80.3654 39.0842 80.1832 39.2558C80.0116 39.4273 79.7812 39.513 79.4917 39.513H76.0988V41.0085H79.7168C79.7919 41.1264 79.8562 41.2818 79.9098 41.4748C79.9741 41.657 80.0063 41.8554 80.0063 42.0698C80.0063 42.4771 79.9205 42.7666 79.749 42.9381C79.5775 43.1096 79.347 43.1954 79.0576 43.1954H76.0988V44.8838H80.2314C80.3064 45.0017 80.3708 45.1571 80.4244 45.3501C80.4887 45.543 80.5209 45.7467 80.5209 45.9611C80.5209 46.3685 80.4297 46.6633 80.2475 46.8455C80.076 47.017 79.8455 47.1028 79.556 47.1028H74.8607C74.3997 47.1028 74.0352 46.9688 73.7672 46.7008C73.4992 46.4328 73.3652 46.0683 73.3652 45.6074V38.8055ZM84.9726 43.9029V46.9902C84.8547 47.0224 84.6671 47.0546 84.4098 47.0867C84.1633 47.1189 83.9167 47.135 83.6701 47.135C83.4236 47.135 83.2038 47.1135 83.0109 47.0706C82.8286 47.0385 82.6732 46.9742 82.5445 46.8777C82.4266 46.7812 82.3355 46.6472 82.2712 46.4757C82.2069 46.3042 82.1747 46.079 82.1747 45.8003V38.2266C82.1747 38.0015 82.2337 37.83 82.3516 37.7121C82.4802 37.5834 82.6517 37.4816 82.8661 37.4066C83.2306 37.2779 83.6541 37.1868 84.1365 37.1332C84.6189 37.0689 85.1334 37.0367 85.6801 37.0367C87.1595 37.0367 88.2744 37.3476 89.0248 37.9694C89.7752 38.5911 90.1504 39.4326 90.1504 40.4939C90.1504 41.1586 89.9789 41.7267 89.6358 42.1984C89.2928 42.6701 88.8854 43.0346 88.4137 43.2918C88.7997 43.8171 89.1802 44.3102 89.5554 44.7712C89.9306 45.2322 90.2254 45.6502 90.4398 46.0254C90.3326 46.4006 90.1343 46.6901 89.8449 46.8938C89.5661 47.0867 89.2499 47.1832 88.8961 47.1832C88.6603 47.1832 88.4566 47.1564 88.2851 47.1028C88.1136 47.0492 87.9635 46.9742 87.8349 46.8777C87.7062 46.7812 87.5883 46.6633 87.4811 46.5239C87.3739 46.3846 87.2721 46.2345 87.1756 46.0737L85.8249 43.9029H84.9726ZM85.9857 41.7642C86.393 41.7642 86.7146 41.6624 86.9505 41.4587C87.1863 41.2443 87.3042 40.9334 87.3042 40.5261C87.3042 40.1187 87.1702 39.8132 86.9022 39.6095C86.6449 39.3951 86.2322 39.2879 85.6641 39.2879C85.5033 39.2879 85.3746 39.2933 85.2781 39.304C85.1817 39.3147 85.0745 39.3308 84.9565 39.3522V41.7642H85.9857ZM100.676 45.4626C100.676 45.795 100.617 46.0415 100.499 46.2023C100.381 46.3631 100.193 46.5186 99.9361 46.6686C99.786 46.7544 99.5984 46.8402 99.3733 46.9259C99.1481 47.001 98.9016 47.0653 98.6336 47.1189C98.3656 47.1832 98.0815 47.2314 97.7813 47.2636C97.4919 47.2958 97.2025 47.3118 96.913 47.3118C96.1412 47.3118 95.4176 47.21 94.7422 47.0063C94.0669 46.7919 93.4773 46.4757 92.9734 46.0576C92.4803 45.6288 92.089 45.0982 91.7996 44.4657C91.5101 43.8332 91.3654 43.0989 91.3654 42.2627C91.3654 41.3837 91.5209 40.6172 91.8317 39.9633C92.1533 39.3094 92.5714 38.768 93.086 38.3392C93.6113 37.8997 94.2062 37.5727 94.8709 37.3583C95.5462 37.1439 96.2377 37.0367 96.9452 37.0367C97.9636 37.0367 98.7676 37.2029 99.3572 37.5352C99.9575 37.8568 100.258 38.2802 100.258 38.8055C100.258 39.0842 100.188 39.3254 100.049 39.5291C99.9093 39.7328 99.7485 39.8936 99.5662 40.0115C99.2982 39.8507 98.9605 39.6953 98.5532 39.5452C98.1565 39.3844 97.7063 39.304 97.2025 39.304C96.302 39.304 95.5837 39.5613 95.0477 40.0758C94.5225 40.5904 94.2598 41.3033 94.2598 42.2145C94.2598 42.7076 94.3295 43.1364 94.4689 43.5009C94.6189 43.8546 94.8173 44.1494 95.0638 44.3853C95.3104 44.6104 95.5945 44.7819 95.9161 44.8998C96.2377 45.007 96.5807 45.0606 96.9452 45.0606C97.181 45.0606 97.3901 45.0392 97.5723 44.9963C97.7545 44.9534 97.8939 44.9052 97.9904 44.8516V43.3401H96.2698C96.2055 43.2222 96.1412 43.0667 96.0769 42.8738C96.0233 42.6808 95.9965 42.4771 95.9965 42.2627C95.9965 41.8768 96.0822 41.5981 96.2537 41.4266C96.436 41.255 96.6665 41.1693 96.9452 41.1693H99.6627C99.9843 41.1693 100.231 41.2604 100.402 41.4426C100.585 41.6142 100.676 41.8607 100.676 42.1823V45.4626ZM102.526 38.8055C102.526 38.3446 102.66 37.9801 102.928 37.7121C103.196 37.4441 103.56 37.3101 104.021 37.3101H109.328C109.403 37.428 109.467 37.5834 109.521 37.7764C109.585 37.9694 109.617 38.173 109.617 38.3874C109.617 38.7948 109.526 39.0842 109.344 39.2558C109.172 39.4273 108.942 39.513 108.652 39.513H105.26V41.0085H108.878C108.953 41.1264 109.017 41.2818 109.071 41.4748C109.135 41.657 109.167 41.8554 109.167 42.0698C109.167 42.4771 109.081 42.7666 108.91 42.9381C108.738 43.1096 108.508 43.1954 108.218 43.1954H105.26V44.8838H109.392C109.467 45.0017 109.531 45.1571 109.585 45.3501C109.649 45.543 109.682 45.7467 109.682 45.9611C109.682 46.3685 109.59 46.6633 109.408 46.8455C109.237 47.017 109.006 47.1028 108.717 47.1028H104.021C103.56 47.1028 103.196 46.9688 102.928 46.7008C102.66 46.4328 102.526 46.0683 102.526 45.6074V38.8055ZM120.163 46.7169C120.013 46.867 119.793 46.9795 119.504 47.0546C119.225 47.1403 118.888 47.1832 118.491 47.1832C118.094 47.1832 117.719 47.1242 117.365 47.0063C117.012 46.8884 116.722 46.6043 116.497 46.1541L114.905 42.9059C114.744 42.5736 114.6 42.2627 114.471 41.9733C114.342 41.6731 114.203 41.3301 114.053 40.9442L113.956 40.9602C113.999 41.5391 114.021 42.1287 114.021 42.729C114.031 43.3294 114.037 43.919 114.037 44.4978V46.9902C113.919 47.0224 113.737 47.0546 113.49 47.0867C113.254 47.1189 113.018 47.135 112.783 47.135C112.547 47.135 112.338 47.1189 112.155 47.0867C111.973 47.0546 111.823 46.9902 111.705 46.8938C111.587 46.7973 111.496 46.6686 111.432 46.5078C111.368 46.3363 111.335 46.1166 111.335 45.8486V37.8086C111.485 37.5942 111.716 37.4334 112.027 37.3262C112.338 37.219 112.67 37.1654 113.024 37.1654C113.42 37.1654 113.796 37.2297 114.149 37.3583C114.514 37.4762 114.803 37.755 115.018 38.1945L116.626 41.4426C116.787 41.775 116.931 42.0912 117.06 42.3914C117.189 42.6808 117.328 43.0185 117.478 43.4044L117.558 43.3883C117.515 42.8094 117.489 42.2306 117.478 41.6517C117.467 41.0728 117.462 40.4939 117.462 39.915V37.3101C117.58 37.2779 117.757 37.2458 117.993 37.2136C118.239 37.1814 118.48 37.1654 118.716 37.1654C119.188 37.1654 119.547 37.2511 119.793 37.4226C120.04 37.5834 120.163 37.9265 120.163 38.4518V46.7169ZM127.218 39.2718C126.392 39.2718 125.76 39.5238 125.32 40.0276C124.881 40.5314 124.661 41.2443 124.661 42.1662C124.661 43.0989 124.902 43.8171 125.385 44.321C125.878 44.8248 126.537 45.0767 127.363 45.0767C127.802 45.0767 128.172 45.0178 128.472 44.8998C128.783 44.7819 129.078 44.6479 129.356 44.4978C129.539 44.6479 129.678 44.8302 129.775 45.0446C129.882 45.2482 129.935 45.4894 129.935 45.7682C129.935 46.2077 129.689 46.5829 129.196 46.8938C128.713 47.1939 127.974 47.344 126.977 47.344C126.258 47.344 125.583 47.2422 124.951 47.0385C124.318 46.8348 123.766 46.5239 123.294 46.1058C122.823 45.677 122.447 45.141 122.169 44.4978C121.901 43.8439 121.767 43.0667 121.767 42.1662C121.767 41.3301 121.895 40.5958 122.153 39.9633C122.421 39.3201 122.78 38.7787 123.23 38.3392C123.691 37.8997 124.227 37.5674 124.838 37.3422C125.449 37.1171 126.103 37.0046 126.8 37.0046C127.786 37.0046 128.547 37.1654 129.083 37.487C129.63 37.8086 129.903 38.2213 129.903 38.7251C129.903 39.0038 129.833 39.245 129.694 39.4487C129.555 39.6524 129.394 39.8132 129.212 39.9311C128.933 39.7489 128.633 39.5934 128.311 39.4648C128 39.3362 127.636 39.2718 127.218 39.2718ZM136.627 46.9902C136.509 47.0224 136.327 47.0546 136.081 47.0867C135.834 47.1189 135.593 47.135 135.357 47.135C134.864 47.135 134.494 47.0546 134.248 46.8938C134.001 46.7222 133.878 46.3685 133.878 45.8325V43.6617C133.61 43.265 133.32 42.8255 133.009 42.3431C132.698 41.8607 132.393 41.3676 132.093 40.8638C131.793 40.3599 131.514 39.8668 131.257 39.3844C130.999 38.8913 130.79 38.441 130.63 38.0337C130.769 37.8407 130.956 37.6638 131.192 37.503C131.439 37.3422 131.739 37.2618 132.093 37.2618C132.511 37.2618 132.849 37.3476 133.106 37.5191C133.374 37.6906 133.626 38.0122 133.862 38.4839L135.196 41.1693H135.293C135.443 40.837 135.571 40.5368 135.679 40.2688C135.797 39.9901 135.909 39.7167 136.016 39.4487C136.124 39.17 136.236 38.8859 136.354 38.5965C136.472 38.2963 136.606 37.9533 136.756 37.5674C136.949 37.4709 137.163 37.3958 137.399 37.3422C137.635 37.2886 137.86 37.2618 138.075 37.2618C138.45 37.2618 138.766 37.3637 139.023 37.5674C139.291 37.7603 139.425 38.0551 139.425 38.4518C139.425 38.5804 139.398 38.7358 139.345 38.9181C139.291 39.1003 139.168 39.379 138.975 39.7542C138.782 40.1187 138.498 40.6172 138.123 41.2497C137.758 41.8822 137.26 42.7076 136.627 43.726V46.9902ZM146.732 43.1793C146.261 43.0185 145.832 42.8577 145.446 42.6969C145.06 42.5254 144.728 42.3217 144.449 42.0858C144.17 41.85 143.95 41.5713 143.79 41.2497C143.64 40.9174 143.565 40.5154 143.565 40.0437C143.565 39.1325 143.913 38.4035 144.61 37.8568C145.317 37.3101 146.303 37.0367 147.568 37.0367C148.029 37.0367 148.458 37.0689 148.855 37.1332C149.251 37.1975 149.589 37.2994 149.868 37.4387C150.157 37.5674 150.382 37.7389 150.543 37.9533C150.704 38.157 150.784 38.3982 150.784 38.6769C150.784 38.9556 150.72 39.1968 150.591 39.4005C150.463 39.5934 150.307 39.7596 150.125 39.899C149.889 39.7489 149.573 39.6202 149.176 39.513C148.78 39.3951 148.346 39.3362 147.874 39.3362C147.392 39.3362 147.038 39.4058 146.813 39.5452C146.588 39.6738 146.475 39.84 146.475 40.0437C146.475 40.2045 146.545 40.3385 146.684 40.4457C146.823 40.5422 147.032 40.6333 147.311 40.719L148.163 40.9924C149.171 41.314 149.943 41.7267 150.479 42.2306C151.026 42.7237 151.299 43.399 151.299 44.2566C151.299 45.1678 150.94 45.9075 150.222 46.4757C149.503 47.0331 148.447 47.3118 147.054 47.3118C146.561 47.3118 146.1 47.269 145.671 47.1832C145.253 47.1082 144.883 46.9956 144.561 46.8455C144.251 46.6847 144.004 46.4918 143.822 46.2666C143.65 46.0308 143.565 45.7628 143.565 45.4626C143.565 45.1518 143.656 44.8891 143.838 44.6747C144.02 44.4496 144.218 44.2781 144.433 44.1602C144.733 44.396 145.097 44.5997 145.526 44.7712C145.966 44.9427 146.443 45.0285 146.957 45.0285C147.483 45.0285 147.853 44.9481 148.067 44.7873C148.281 44.6265 148.389 44.4389 148.389 44.2245C148.389 44.0101 148.303 43.8493 148.131 43.7421C147.96 43.6242 147.719 43.5116 147.408 43.4044L146.732 43.1793ZM152.823 38.8055C152.823 38.3446 152.957 37.9801 153.225 37.7121C153.493 37.4441 153.858 37.3101 154.319 37.3101H159.625C159.7 37.428 159.764 37.5834 159.818 37.7764C159.882 37.9694 159.914 38.173 159.914 38.3874C159.914 38.7948 159.823 39.0842 159.641 39.2558C159.469 39.4273 159.239 39.513 158.95 39.513H155.557V41.0085H159.175C159.25 41.1264 159.314 41.2818 159.368 41.4748C159.432 41.657 159.464 41.8554 159.464 42.0698C159.464 42.4771 159.378 42.7666 159.207 42.9381C159.035 43.1096 158.805 43.1954 158.515 43.1954H155.557V44.8838H159.689C159.764 45.0017 159.829 45.1571 159.882 45.3501C159.947 45.543 159.979 45.7467 159.979 45.9611C159.979 46.3685 159.888 46.6633 159.705 46.8455C159.534 47.017 159.303 47.1028 159.014 47.1028H154.319C153.858 47.1028 153.493 46.9688 153.225 46.7008C152.957 46.4328 152.823 46.0683 152.823 45.6074V38.8055ZM164.43 43.9029V46.9902C164.313 47.0224 164.125 47.0546 163.868 47.0867C163.621 47.1189 163.375 47.135 163.128 47.135C162.881 47.135 162.662 47.1135 162.469 47.0706C162.286 47.0385 162.131 46.9742 162.002 46.8777C161.884 46.7812 161.793 46.6472 161.729 46.4757C161.665 46.3042 161.633 46.079 161.633 45.8003V38.2266C161.633 38.0015 161.691 37.83 161.809 37.7121C161.938 37.5834 162.11 37.4816 162.324 37.4066C162.688 37.2779 163.112 37.1868 163.594 37.1332C164.077 37.0689 164.591 37.0367 165.138 37.0367C166.617 37.0367 167.732 37.3476 168.483 37.9694C169.233 38.5911 169.608 39.4326 169.608 40.4939C169.608 41.1586 169.437 41.7267 169.094 42.1984C168.751 42.6701 168.343 43.0346 167.872 43.2918C168.257 43.8171 168.638 44.3102 169.013 44.7712C169.388 45.2322 169.683 45.6502 169.898 46.0254C169.79 46.4006 169.592 46.6901 169.303 46.8938C169.024 47.0867 168.708 47.1832 168.354 47.1832C168.118 47.1832 167.914 47.1564 167.743 47.1028C167.571 47.0492 167.421 46.9742 167.293 46.8777C167.164 46.7812 167.046 46.6633 166.939 46.5239C166.832 46.3846 166.73 46.2345 166.633 46.0737L165.283 43.9029H164.43ZM165.443 41.7642C165.851 41.7642 166.172 41.6624 166.408 41.4587C166.644 41.2443 166.762 40.9334 166.762 40.5261C166.762 40.1187 166.628 39.8132 166.36 39.6095C166.103 39.3951 165.69 39.2879 165.122 39.2879C164.961 39.2879 164.832 39.2933 164.736 39.304C164.639 39.3147 164.532 39.3308 164.414 39.3522V41.7642H165.443ZM177.017 46.733C176.867 46.8616 176.631 46.9742 176.31 47.0706C175.999 47.1671 175.656 47.2154 175.28 47.2154C174.83 47.2154 174.444 47.151 174.123 47.0224C173.801 46.883 173.581 46.6954 173.463 46.4596C173.345 46.213 173.201 45.8968 173.029 45.5109C172.858 45.1142 172.675 44.6747 172.482 44.1923C172.3 43.7099 172.107 43.2007 171.904 42.6647C171.711 42.118 171.523 41.5659 171.341 41.0085C171.159 40.451 170.987 39.9043 170.826 39.3683C170.665 38.8323 170.526 38.3285 170.408 37.8568C170.558 37.7067 170.773 37.5727 171.051 37.4548C171.341 37.3262 171.646 37.2618 171.968 37.2618C172.365 37.2618 172.686 37.3476 172.933 37.5191C173.19 37.6799 173.378 37.9854 173.496 38.4357C173.785 39.4862 174.074 40.4939 174.364 41.4587C174.664 42.4128 174.975 43.4098 175.296 44.4496H175.393C175.682 43.4419 175.977 42.3431 176.277 41.1532C176.588 39.9633 176.883 38.7787 177.162 37.5995C177.355 37.503 177.558 37.4226 177.773 37.3583C177.998 37.294 178.25 37.2618 178.529 37.2618C178.925 37.2618 179.263 37.353 179.542 37.5352C179.82 37.7067 179.96 37.9962 179.96 38.4035C179.96 38.6394 179.901 38.9824 179.783 39.4326C179.676 39.8829 179.531 40.3921 179.349 40.9602C179.177 41.5177 178.979 42.1019 178.754 42.713C178.539 43.324 178.32 43.9029 178.094 44.4496C177.88 44.9856 177.676 45.4626 177.483 45.8807C177.29 46.2881 177.135 46.5722 177.017 46.733ZM184.185 46.9902C184.067 47.0224 183.88 47.0546 183.623 47.0867C183.376 47.1189 183.129 47.135 182.883 47.135C182.636 47.135 182.417 47.1135 182.224 47.0706C182.041 47.0385 181.886 46.9742 181.757 46.8777C181.629 46.7812 181.532 46.6472 181.468 46.4757C181.404 46.3042 181.371 46.079 181.371 45.8003V37.3101C181.489 37.2886 181.677 37.2618 181.934 37.2297C182.191 37.1868 182.438 37.1654 182.674 37.1654C182.92 37.1654 183.135 37.1868 183.317 37.2297C183.51 37.2618 183.671 37.3262 183.799 37.4226C183.928 37.5191 184.025 37.6531 184.089 37.8246C184.153 37.9962 184.185 38.2213 184.185 38.5V46.9902ZM191.239 39.2718C190.414 39.2718 189.782 39.5238 189.342 40.0276C188.902 40.5314 188.683 41.2443 188.683 42.1662C188.683 43.0989 188.924 43.8171 189.406 44.321C189.899 44.8248 190.559 45.0767 191.384 45.0767C191.824 45.0767 192.194 45.0178 192.494 44.8998C192.805 44.7819 193.099 44.6479 193.378 44.4978C193.56 44.6479 193.7 44.8302 193.796 45.0446C193.903 45.2482 193.957 45.4894 193.957 45.7682C193.957 46.2077 193.71 46.5829 193.217 46.8938C192.735 47.1939 191.995 47.344 190.998 47.344C190.28 47.344 189.605 47.2422 188.972 47.0385C188.34 46.8348 187.788 46.5239 187.316 46.1058C186.844 45.677 186.469 45.141 186.19 44.4978C185.922 43.8439 185.788 43.0667 185.788 42.1662C185.788 41.3301 185.917 40.5958 186.174 39.9633C186.442 39.3201 186.801 38.7787 187.252 38.3392C187.713 37.8997 188.249 37.5674 188.86 37.3422C189.471 37.1171 190.125 37.0046 190.821 37.0046C191.808 37.0046 192.569 37.1654 193.105 37.487C193.651 37.8086 193.925 38.2213 193.925 38.7251C193.925 39.0038 193.855 39.245 193.716 39.4487C193.576 39.6524 193.416 39.8132 193.233 39.9311C192.955 39.7489 192.654 39.5934 192.333 39.4648C192.022 39.3362 191.658 39.2718 191.239 39.2718ZM195.457 38.8055C195.457 38.3446 195.591 37.9801 195.859 37.7121C196.127 37.4441 196.492 37.3101 196.952 37.3101H202.259C202.334 37.428 202.398 37.5834 202.452 37.7764C202.516 37.9694 202.548 38.173 202.548 38.3874C202.548 38.7948 202.457 39.0842 202.275 39.2558C202.103 39.4273 201.873 39.513 201.584 39.513H198.191V41.0085H201.809C201.884 41.1264 201.948 41.2818 202.002 41.4748C202.066 41.657 202.098 41.8554 202.098 42.0698C202.098 42.4771 202.012 42.7666 201.841 42.9381C201.669 43.1096 201.439 43.1954 201.149 43.1954H198.191V44.8838H202.323C202.398 45.0017 202.463 45.1571 202.516 45.3501C202.58 45.543 202.613 45.7467 202.613 45.9611C202.613 46.3685 202.522 46.6633 202.339 46.8455C202.168 47.017 201.937 47.1028 201.648 47.1028H196.952C196.492 47.1028 196.127 46.9688 195.859 46.7008C195.591 46.4328 195.457 46.0683 195.457 45.6074V38.8055ZM207.035 39.5613C206.96 39.4434 206.891 39.2826 206.826 39.0789C206.762 38.8752 206.73 38.6608 206.73 38.4357C206.73 38.0176 206.821 37.7174 207.003 37.5352C207.196 37.353 207.443 37.2618 207.743 37.2618H214.754C214.829 37.3798 214.899 37.5406 214.963 37.7442C215.027 37.9479 215.059 38.1623 215.059 38.3874C215.059 38.8055 214.963 39.1057 214.77 39.2879C214.588 39.4702 214.346 39.5613 214.046 39.5613H212.261V46.9902C212.143 47.0224 211.956 47.0546 211.699 47.0867C211.452 47.1189 211.205 47.135 210.959 47.135C210.712 47.135 210.493 47.1135 210.3 47.0706C210.117 47.0385 209.962 46.9742 209.833 46.8777C209.705 46.7812 209.608 46.6472 209.544 46.4757C209.48 46.3042 209.447 46.079 209.447 45.8003V39.5613H207.035ZM216.421 38.8055C216.421 38.3446 216.555 37.9801 216.823 37.7121C217.091 37.4441 217.455 37.3101 217.916 37.3101H223.223C223.298 37.428 223.362 37.5834 223.416 37.7764C223.48 37.9694 223.512 38.173 223.512 38.3874C223.512 38.7948 223.421 39.0842 223.239 39.2558C223.067 39.4273 222.837 39.513 222.547 39.513H219.154V41.0085H222.772C222.847 41.1264 222.912 41.2818 222.965 41.4748C223.03 41.657 223.062 41.8554 223.062 42.0698C223.062 42.4771 222.976 42.7666 222.804 42.9381C222.633 43.1096 222.402 43.1954 222.113 43.1954H219.154V44.8838H223.287C223.362 45.0017 223.426 45.1571 223.48 45.3501C223.544 45.543 223.576 45.7467 223.576 45.9611C223.576 46.3685 223.485 46.6633 223.303 46.8455C223.131 47.017 222.901 47.1028 222.612 47.1028H217.916C217.455 47.1028 217.091 46.9688 216.823 46.7008C216.555 46.4328 216.421 46.0683 216.421 45.6074V38.8055ZM227.509 37.5995C227.691 37.4923 227.964 37.3905 228.329 37.294C228.704 37.1975 229.079 37.1493 229.454 37.1493C229.99 37.1493 230.462 37.2297 230.869 37.3905C231.287 37.5406 231.555 37.7818 231.673 38.1141C231.866 38.6715 232.075 39.3201 232.3 40.0598C232.526 40.7994 232.751 41.5659 232.976 42.3592C233.201 43.1418 233.421 43.919 233.635 44.6908C233.85 45.4519 234.037 46.1273 234.198 46.7169C234.069 46.867 233.876 46.9849 233.619 47.0706C233.362 47.1671 233.056 47.2154 232.702 47.2154C232.445 47.2154 232.225 47.1939 232.043 47.151C231.872 47.1082 231.727 47.0438 231.609 46.9581C231.502 46.8723 231.411 46.7598 231.336 46.6204C231.271 46.481 231.212 46.3202 231.159 46.138L230.869 45.0285H227.959C227.873 45.3501 227.787 45.6824 227.702 46.0254C227.616 46.3685 227.53 46.7008 227.444 47.0224C227.294 47.076 227.133 47.1189 226.962 47.151C226.801 47.1939 226.603 47.2154 226.367 47.2154C225.82 47.2154 225.413 47.1242 225.145 46.942C224.888 46.749 224.759 46.4864 224.759 46.1541C224.759 46.004 224.78 45.8539 224.823 45.7038C224.866 45.5538 224.914 45.3769 224.968 45.1732C225.043 44.8838 225.145 44.5246 225.274 44.0958C225.413 43.667 225.563 43.2061 225.724 42.713C225.885 42.2091 226.056 41.6946 226.238 41.1693C226.421 40.644 226.592 40.1509 226.753 39.6899C226.914 39.2182 227.058 38.8002 227.187 38.4357C227.326 38.0712 227.434 37.7925 227.509 37.5995ZM229.438 39.6738C229.288 40.1241 229.117 40.6279 228.924 41.1854C228.741 41.7321 228.575 42.2895 228.425 42.8577H230.419C230.269 42.2788 230.114 41.716 229.953 41.1693C229.803 40.6118 229.663 40.1134 229.535 39.6738H229.438ZM242.253 44.6586C242.114 44.7766 241.932 44.873 241.707 44.9481C241.492 45.0124 241.24 45.0446 240.951 45.0446C240.565 45.0446 240.243 44.9963 239.986 44.8998C239.739 44.8034 239.579 44.6372 239.504 44.4014C239.203 43.458 238.957 42.6969 238.764 42.118C238.571 41.5284 238.421 41.0138 238.314 40.5743H238.233C238.201 41.2068 238.174 41.7857 238.153 42.311C238.142 42.8255 238.131 43.3294 238.121 43.8225C238.121 44.3156 238.11 44.8141 238.089 45.3179C238.078 45.8218 238.056 46.3792 238.024 46.9902C237.885 47.0438 237.703 47.0867 237.477 47.1189C237.252 47.1618 237.027 47.1832 236.802 47.1832C236.33 47.1832 235.961 47.1082 235.693 46.9581C235.435 46.808 235.307 46.5346 235.307 46.138L235.773 37.9372C235.859 37.7978 236.046 37.6478 236.336 37.487C236.625 37.3262 237.033 37.2458 237.558 37.2458C238.126 37.2458 238.571 37.3369 238.893 37.5191C239.214 37.6906 239.45 37.9747 239.6 38.3714C239.697 38.6286 239.798 38.9234 239.906 39.2558C240.023 39.5881 240.136 39.9311 240.243 40.2849C240.361 40.6386 240.474 40.9924 240.581 41.3462C240.688 41.6892 240.785 42.0001 240.87 42.2788H240.951C241.208 41.3783 241.465 40.51 241.723 39.6738C241.98 38.827 242.216 38.1194 242.43 37.5513C242.591 37.4655 242.795 37.3958 243.041 37.3422C243.298 37.2779 243.583 37.2458 243.893 37.2458C244.419 37.2458 244.847 37.3262 245.18 37.487C245.512 37.637 245.705 37.8568 245.759 38.1462C245.802 38.3606 245.844 38.693 245.887 39.1432C245.941 39.5827 245.995 40.0812 246.048 40.6386C246.102 41.1961 246.155 41.7857 246.209 42.4074C246.263 43.0292 246.311 43.6295 246.354 44.2084C246.407 44.7766 246.45 45.3018 246.482 45.7842C246.514 46.2559 246.536 46.6204 246.547 46.8777C246.364 46.9849 246.171 47.0599 245.968 47.1028C245.775 47.1564 245.523 47.1832 245.212 47.1832C244.805 47.1832 244.462 47.1135 244.183 46.9742C243.904 46.8348 243.754 46.5614 243.733 46.1541C243.668 44.9856 243.625 43.935 243.604 43.0024C243.593 42.0698 243.572 41.2872 243.54 40.6547H243.459C243.352 41.0728 243.197 41.5981 242.993 42.2306C242.789 42.863 242.543 43.6724 242.253 44.6586Z" fill="#4F4F4F"/>
</g>
<defs>
<clipPath id="clip0_73_2966">
<rect width="300" height="300" fill="white"/>
</clipPath>
</defs>
</svg>
