<svg width="300" height="300" viewBox="0 0 300 300" fill="none" xmlns="http://www.w3.org/2000/svg">
<path opacity="0.32" d="M28.8 222C28.8 156.223 41.4 58.8 147.9 58.8C250.2 58.8 267 156.223 267 222H28.8Z" fill="#69ADF7"/>
<path d="M91.7586 160.452L95.1666 158.044L91.9104 151.29L87.9042 152.457L83.3892 147.215L85.1364 143.426L78.939 139.205L76.053 142.219L69.5226 139.937L69.141 135.782L61.6638 135.225L60.6714 139.278L53.8746 140.567L51.4668 137.159L44.7126 140.416L45.879 144.422L40.6374 148.937L36.8484 147.19L32.6274 153.387L35.6412 156.273L33.3594 162.804L29.2044 163.185L28.6476 170.663L32.7006 171.655L33.99 178.452L30.582 180.86L33.8382 187.614L37.8444 186.447L42.3594 191.689L40.6116 195.478L46.809 199.699L49.695 196.685L56.226 198.967L56.607 203.122L64.0848 203.679L65.0778 199.626L71.8746 198.337L74.2824 201.745L81.0366 198.488L79.8696 194.482L85.1112 189.967L88.9002 191.714L93.1212 185.517L90.1074 182.631L92.3892 176.1L96.5442 175.719L97.1011 168.241L93.048 167.249L91.7586 160.452ZM66.4374 186.251C57.1596 188.219 48.0426 182.294 46.074 173.016C44.1054 163.738 50.031 154.621 59.3088 152.653C68.5866 150.684 77.7036 156.61 79.6722 165.887C81.6408 175.165 75.7158 184.282 66.4374 186.251Z" fill="#A4BBF9"/>
<path d="M147.82 97.5834L153.277 95.2374L150.738 84.87L144.815 85.311L140.077 76.6782L143.629 71.9184L136.247 64.2096L131.338 67.5534L122.918 62.4462L123.614 56.5476L113.367 53.5632L110.788 58.9134L100.942 58.7004L98.5962 53.2434L88.2288 55.782L88.6698 61.7052L80.0376 66.4434L75.2778 62.8908L67.569 70.2732L70.9128 75.1824L65.8056 83.6022L59.907 82.9056L56.922 93.1536L62.2722 95.733L62.0592 105.578L56.6022 107.924L59.1408 118.291L65.064 117.85L69.8022 126.483L66.249 131.243L73.6314 138.952L78.5406 135.608L86.9604 140.715L86.2632 146.614L96.5112 149.599L99.0912 144.248L108.936 144.461L111.282 149.918L121.649 147.38L121.208 141.457L129.841 136.718L134.602 140.271L142.31 132.889L138.967 127.979L144.074 119.56L149.972 120.256L152.957 110.008L147.607 107.429L147.82 97.5834ZM104.939 126.026C91.4388 126.026 80.4942 115.082 80.4942 101.581C80.4942 88.0794 91.4388 77.1354 104.939 77.1354C118.44 77.1354 129.385 88.08 129.385 101.581C129.385 115.081 118.441 126.026 104.939 126.026Z" fill="#A4BBF9"/>
<path d="M159.488 219.101C200.175 219.101 233.158 186.118 233.158 145.432C233.158 104.745 200.175 71.7618 159.488 71.7618C118.802 71.7618 85.8186 104.745 85.8186 145.432C85.8186 186.118 118.802 219.101 159.488 219.101Z" stroke="white" stroke-width="3.4444" stroke-miterlimit="10" stroke-dasharray="13.78 13.78"/>
<path d="M272.995 156.445C273.323 162.861 258.723 164.627 238.358 167.112C217.993 169.597 197.656 182.68 197.656 182.68C197.656 182.68 208.211 156.785 233.387 149.159C258.563 141.534 272.674 150.19 272.995 156.445Z" fill="#82AD85"/>
<path d="M264.817 155.325C264.817 155.325 223.499 147.463 197.656 182.68" stroke="white" stroke-width="0.9219" stroke-miterlimit="10" stroke-linecap="round"/>
<path d="M262.732 150.514L257.818 154.641L262.732 159.403" stroke="white" stroke-width="0.9219" stroke-miterlimit="10" stroke-linecap="round"/>
<path d="M251.667 147.844L244.619 155.225L254.072 161.899" stroke="white" stroke-width="0.9219" stroke-miterlimit="10" stroke-linecap="round"/>
<path d="M237.281 150.514L232.714 157.762L239.801 164.426" stroke="white" stroke-width="0.9219" stroke-miterlimit="10" stroke-linecap="round"/>
<path d="M213.342 164.426L211.918 168.19L214.408 170.183" stroke="white" stroke-width="0.9219" stroke-miterlimit="10" stroke-linecap="round"/>
<path d="M233.066 108.982C232.726 107.809 220.718 112.189 220.718 112.189C220.718 112.189 221.081 122.318 219.937 122.465C218.794 122.612 211.918 117.339 211.918 117.339C211.918 117.339 202.013 124.429 197.655 134.183C197.655 134.183 203.56 140.726 203.239 142.493C202.919 144.26 191.854 146.102 191.854 146.102C191.854 146.102 190.004 155.251 190.528 163.225C190.528 163.225 196.024 164.945 196.024 165.747C196.024 166.549 190.435 170.718 190.435 170.718C190.435 170.718 189.602 180.179 190.808 181.622C192.014 183.065 202.438 177.613 202.438 177.613C202.438 177.613 202.88 170.878 204.182 169.595C205.484 168.313 211.186 173.284 211.186 173.284C211.186 173.284 220.635 164.443 224.284 159.402C227.934 154.361 228.326 152.173 228.326 152.173C228.326 152.173 219.637 147.784 219.937 146.102C220.237 144.42 233.065 142.493 233.065 142.493C233.065 142.493 234.989 132.618 234.989 126.893C234.989 126.893 226.811 127.55 226.33 126.043C225.849 124.537 234.989 118.355 234.989 118.355C234.989 118.355 234.509 113.953 233.066 108.982Z" fill="#8BBB90"/>
<path d="M230.179 112.189C230.179 112.189 208.198 153.336 190.808 181.624" stroke="white" stroke-width="0.9219" stroke-miterlimit="10" stroke-linecap="round"/>
<path d="M267.907 174.156C268.092 175.171 252.968 198.109 228.035 199.793C203.101 201.478 192.451 188.35 192.451 188.35C192.451 188.35 204.497 171.685 224.716 168.185C244.934 164.686 267.63 172.642 267.907 174.156Z" fill="#8BBB90"/>
<path d="M192.451 188.35C192.451 188.35 229.703 178.508 258.047 176.81" stroke="white" stroke-width="0.9219" stroke-miterlimit="10" stroke-linecap="round"/>
<path d="M251.069 171.829L246.536 177.858L253.441 182.773" stroke="white" stroke-width="0.9219" stroke-miterlimit="10" stroke-linecap="round"/>
<path d="M241.287 171.158L235.934 179.315L245.096 188.278" stroke="white" stroke-width="0.9219" stroke-miterlimit="10" stroke-linecap="round"/>
<path d="M214.292 176.315L209.949 184.211L214.762 192.482" stroke="white" stroke-width="0.9219" stroke-miterlimit="10" stroke-linecap="round"/>
<path d="M228.047 197.09C228.047 197.09 227.911 202.07 228.845 205.409" stroke="#BA5454" stroke-width="0.9219" stroke-miterlimit="10" stroke-linecap="round"/>
<path d="M101.156 127.405C100.807 126.424 100.532 121.281 100.532 121.281V100.815C100.532 97.6308 97.9512 95.0502 94.7676 95.0502H44.4864C41.3028 95.0502 38.7216 97.6314 38.7216 100.815V129.715C38.7216 132.898 41.3028 135.479 44.4864 135.479H89.5668H94.7676H108.716C108.716 135.479 102.242 130.454 101.156 127.405Z" fill="#69ADF7"/>
<path d="M58.3875 113.916C60.1863 112.117 60.1863 109.2 58.3875 107.402C56.5887 105.603 53.6723 105.603 51.8734 107.402C50.0746 109.2 50.0746 112.117 51.8734 113.916C53.6723 115.715 56.5887 115.715 58.3875 113.916Z" fill="#1F3E56"/>
<path d="M47.3898 125.152C47.3898 120.877 50.856 117.41 55.1316 117.41C59.4072 117.41 62.8734 120.877 62.8734 125.152H47.3898Z" fill="#1F3E56"/>
<path d="M93.2082 110.659H66.8628C66.045 110.659 65.382 109.996 65.382 109.178C65.382 108.361 66.045 107.698 66.8628 107.698H93.2082C94.026 107.698 94.689 108.361 94.689 109.178C94.689 109.996 94.026 110.659 93.2082 110.659Z" fill="#1F3E56"/>
<path d="M93.2082 116.175H66.8628C66.045 116.175 65.382 115.512 65.382 114.694C65.382 113.876 66.045 113.213 66.8628 113.213H93.2082C94.026 113.213 94.689 113.876 94.689 114.694C94.689 115.512 94.026 116.175 93.2082 116.175Z" fill="#1F3E56"/>
<path d="M79.713 122.292H66.8628C66.045 122.292 65.382 121.629 65.382 120.811C65.382 119.993 66.045 119.33 66.8628 119.33H79.713C80.5308 119.33 81.1938 119.993 81.1938 120.811C81.1932 121.629 80.5302 122.292 79.713 122.292Z" fill="#1F3E56"/>
<path d="M100.532 101.581H38.7216V100.759C38.7216 97.6063 41.277 95.0509 44.4294 95.0509H94.824C97.9764 95.0509 100.532 97.6063 100.532 100.759V101.581Z" fill="#1F3E56"/>
<path d="M87.4056 100.127C88.2824 100.127 88.9932 99.4166 88.9932 98.5397C88.9932 97.6629 88.2824 96.9521 87.4056 96.9521C86.5288 96.9521 85.818 97.6629 85.818 98.5397C85.818 99.4166 86.5288 100.127 87.4056 100.127Z" fill="white"/>
<path d="M94.197 98.5397C94.197 99.4163 93.4866 100.127 92.6094 100.127C91.7328 100.127 91.0218 99.4163 91.0218 98.5397C91.0218 97.6631 91.7322 96.9521 92.6094 96.9521C93.4866 96.9521 94.197 97.6625 94.197 98.5397Z" fill="white"/>
<path d="M82.2018 100.127C83.0786 100.127 83.7894 99.4166 83.7894 98.5397C83.7894 97.6629 83.0786 96.9521 82.2018 96.9521C81.325 96.9521 80.6142 97.6629 80.6142 98.5397C80.6142 99.4166 81.325 100.127 82.2018 100.127Z" fill="white"/>
<path d="M170.216 98.9875H128.165C126.197 98.9875 124.601 97.3921 124.601 95.4235V81.5179C124.601 79.5493 126.196 77.9539 128.165 77.9539H170.216C172.185 77.9539 173.78 79.5493 173.78 81.5179V95.4235C173.78 97.3915 172.184 98.9875 170.216 98.9875Z" fill="#CC8C40"/>
<path d="M170.29 98.9875H130.094C128.166 98.9875 126.603 97.4245 126.603 95.4967V81.4447C126.603 79.5169 128.166 77.9539 130.094 77.9539H170.29C172.217 77.9539 173.78 79.5169 173.78 81.4447V95.4967C173.78 97.4245 172.217 98.9875 170.29 98.9875Z" fill="#F4B247"/>
<path d="M126.604 81.4447C126.604 81.4447 137.506 98.9875 165.855 98.9875H129.933C128.095 98.9875 126.604 97.4971 126.604 95.6587V81.4447H126.604Z" fill="#E5A345"/>
<path d="M161.993 77.9539L170.021 79.5799C170.021 79.5799 172.459 80.1589 172.459 82.8667C172.459 85.5745 172.459 98.2279 172.459 98.2279C172.459 98.2279 173.78 97.2895 173.78 95.4967C173.78 93.7033 173.78 81.4447 173.78 81.4447C173.78 81.4447 173.607 77.9539 170.29 77.9539C166.972 77.9539 161.993 77.9539 161.993 77.9539Z" fill="#F2CD70"/>
<path d="M133.979 92.9262V83.604H135.862V87.273H139.55V83.604H141.432V92.9262H139.55V88.8498H135.862V92.9262H133.979Z" fill="white"/>
<path d="M143.378 92.9262V83.604H150.29V85.1808H145.26V87.2478H149.94V88.8186H145.26V91.3554H150.468V92.9262H143.378Z" fill="white"/>
<path d="M152.115 92.9262V83.6802H153.997V91.3554H158.678V92.9262H152.115Z" fill="white"/>
<path d="M160.019 92.9262V83.604H163.039C164.184 83.604 164.93 83.6508 165.277 83.7438C165.812 83.8836 166.259 84.1878 166.619 84.6564C166.979 85.125 167.159 85.7304 167.159 86.472C167.159 87.0444 167.056 87.525 166.847 87.9156C166.639 88.3056 166.376 88.6116 166.056 88.8342C165.736 89.0568 165.41 89.2044 165.08 89.2758C164.63 89.3646 163.979 89.4096 163.127 89.4096H161.9V92.9262H160.019ZM161.902 85.1808V87.8262H162.932C163.673 87.8262 164.17 87.7776 164.42 87.6798C164.669 87.5826 164.866 87.4296 165.008 87.222C165.149 87.0144 165.22 86.7726 165.22 86.4966C165.22 86.1576 165.12 85.878 164.921 85.6572C164.722 85.437 164.47 85.299 164.165 85.2438C163.94 85.2018 163.488 85.1802 162.81 85.1802H161.902V85.1808Z" fill="white"/>
<path d="M185.621 84.7933C189.851 84.7933 193.279 81.3648 193.279 77.1355C193.279 72.9062 189.851 69.4777 185.621 69.4777C181.392 69.4777 177.964 72.9062 177.964 77.1355C177.964 81.3648 181.392 84.7933 185.621 84.7933Z" fill="#A4BBF9"/>
<path d="M180.89 67.3482L176.258 58.0806L181.319 56.4792L182.861 66.7248L180.89 67.3482Z" fill="#A4BBF9"/>
<path d="M195.686 72.4212L205.608 69.438L206.323 74.6976L195.964 74.469L195.686 72.4212Z" fill="#A4BBF9"/>
<path d="M189.786 66.9769L193.598 57.3433L198.168 60.0445L191.565 68.0287L189.786 66.9769Z" fill="#A4BBF9"/>
<path d="M284.4 244.627H14.4L31.6026 222.335H267.197L284.4 244.627Z" fill="#1B4B52"/>
<path d="M278.289 250.738H20.511C17.136 250.738 14.4 248.002 14.4 244.627H284.4C284.4 248.002 281.664 250.738 278.289 250.738Z" fill="#153C3F"/>
<path d="M127.259 181.332L120.59 185.83C120.59 185.83 120.274 166.58 120.787 155.339C121.3 144.098 122.032 138.884 122.561 136.379C123.09 133.873 123.968 132.154 140.521 130.897L127.259 181.332Z" fill="#151230"/>
<path d="M127.259 181.332C127.625 168.6 129.176 146.173 129.567 140.86C129.958 135.548 127.496 129.343 163.57 129.613C199.643 129.883 199.019 129.268 199.291 143.774C199.562 158.281 200.614 182.398 200.614 182.398C200.614 182.398 184.349 185.441 166.853 186.891C149.357 188.341 127.259 181.332 127.259 181.332Z" fill="#211944"/>
<path d="M135.669 157.428C135.669 157.428 168.945 155.047 193.117 156.133" stroke="white" stroke-width="0.9219" stroke-miterlimit="10" stroke-linecap="round"/>
<path d="M154.913 163.93C154.913 163.93 149.83 164.911 146.467 165.876C143.104 166.841 134.836 170.764 131.207 180.46C127.579 190.156 119.542 224.18 119.542 224.18C119.542 224.18 145.09 228.374 167.258 228.276C189.427 228.178 210.812 222.251 210.812 222.251C210.812 222.251 199.166 184.046 196.927 177.779C194.689 171.511 189.514 165.966 183.059 164.492C176.603 163.019 172.964 162.691 172.964 162.691L154.913 163.93Z" fill="#FBD995"/>
<path d="M160.514 111.124C153.329 112.09 146.889 118.588 148.108 132.708C149.327 146.829 154.434 152.806 164.235 153.038C174.036 153.27 178.876 141.601 177.821 129.561C176.768 117.523 172.169 109.559 160.514 111.124Z" fill="#EC6B65"/>
<path d="M148.023 131.511C148.023 131.511 146.066 132.489 145.739 130.715C145.412 128.942 144.585 120.188 145.922 115.933C147.26 111.679 150.267 109.633 154.502 108.747C158.737 107.861 174.873 106.019 177.593 111.251C180.314 116.483 179.94 128.524 179.94 128.524C179.94 128.524 179.296 130.121 177.822 129.562C177.822 129.562 176.984 110.602 163.077 110.933C148.783 111.273 147.835 125.296 148.023 131.511Z" fill="#1F3E56"/>
<path d="M163.341 128.497C163.341 128.497 164.807 135.531 164.81 136.683C164.813 137.835 163.532 138.754 163.532 138.754" stroke="#BA5454" stroke-width="0.9219" stroke-miterlimit="10" stroke-linecap="round"/>
<path d="M157.414 141.897L168.773 142.804C168.773 142.804 167.136 147.065 162.765 146.432C158.417 145.803 157.414 141.897 157.414 141.897Z" fill="white"/>
<path d="M157.891 131.98C157.8 132.627 157.201 133.079 156.554 132.988C155.906 132.897 155.455 132.298 155.546 131.65C155.637 131.002 156.236 130.551 156.883 130.642C157.531 130.734 157.982 131.332 157.891 131.98Z" fill="#1F3E56"/>
<path d="M155.037 128.24C155.037 128.24 156.048 126.985 158.498 127.658" stroke="#1F3E56" stroke-width="2.2963" stroke-miterlimit="10" stroke-linecap="round"/>
<path d="M151.432 134.183C151.432 134.183 153.692 134.464 155.069 135.481" stroke="#BA5454" stroke-width="0.9219" stroke-miterlimit="10" stroke-linecap="round"/>
<path d="M146.881 127.499C146.881 127.499 145.922 115.933 148.462 113.081C151.988 109.121 154.503 108.747 154.503 108.747C154.503 108.747 154.968 107.185 155.295 106.673C155.295 106.673 147.794 108.432 146.047 113.729C144.301 119.027 145.433 128.148 145.433 128.148L146.881 127.499Z" fill="#69ADF7"/>
<path d="M178.847 125.814C178.847 125.814 178.512 114.213 175.672 111.662C171.727 108.119 169.186 108.027 169.186 108.027C169.186 108.027 168.55 106.526 168.169 106.054C168.169 106.054 175.819 106.968 178.144 112.038C180.47 117.108 180.359 126.298 180.359 126.298L178.847 125.814Z" fill="#69ADF7"/>
<path d="M148.111 127.427C148.111 127.427 144.563 126.866 143.602 131.329C142.641 135.792 144.799 140.726 149.191 139.727C149.191 139.727 147.72 134.446 148.111 127.427Z" fill="#69ADF7"/>
<path opacity="0.27" d="M143.408 132.716C143.408 132.716 147.269 134.271 149.191 139.726C149.191 139.726 143.245 140.945 143.408 132.716Z" fill="#69ADF7"/>
<path d="M177.334 125.533C177.334 125.533 180.8 124.593 182.236 128.928C183.671 133.261 182.055 138.399 177.582 137.877C177.582 137.877 178.477 132.469 177.334 125.533Z" fill="#69ADF7"/>
<path opacity="0.27" d="M182.579 130.286C182.579 130.286 178.907 132.247 177.583 137.876C177.583 137.876 183.624 138.449 182.579 130.286Z" fill="#69ADF7"/>
<path d="M146.845 139.551C146.845 139.551 146.623 138.365 145.047 138.425C145.047 138.425 143.013 145.511 146.515 147.436C150.016 149.361 159.201 148.237 159.201 148.237L159.44 146.535C159.44 146.535 151.36 146.909 148.327 145.88C145.294 144.851 146.845 139.551 146.845 139.551Z" fill="#69ADF7"/>
<path d="M159.274 144.821C158.068 145.254 157.332 145.88 157.364 146.592C157.396 147.304 157.255 149.552 159.003 149.644C160.751 149.737 164.491 149.96 165.536 149.503C166.581 149.047 166.825 145.158 165.325 145.098C163.825 145.039 160.213 144.484 159.274 144.821Z" fill="#69ADF7"/>
<path d="M156.696 151.23L154.913 163.93C154.913 163.93 159.526 167.066 164.669 166.43C169.813 165.794 172.964 162.691 172.964 162.691L170.727 151.098L156.696 151.23Z" fill="#EC6B65"/>
<path d="M156.696 151.23C156.696 151.23 159.566 153.158 164.235 153.038C168.904 152.918 170.727 151.099 170.727 151.099L171.393 154.55C171.393 154.55 168.65 156.881 164.033 156.988C159.417 157.094 156.191 154.831 156.191 154.831L156.696 151.23Z" fill="#B25252"/>
<path d="M220.449 133.66C219.091 134.428 219.137 136.355 219.774 138.468C220.411 140.581 222.506 150.603 222.506 150.603C222.506 150.603 223.296 157.174 224.728 158.62C224.728 158.62 228.262 196.509 228.047 197.091C227.832 197.673 218.172 190.59 218.172 190.59L207.742 211.766C207.742 211.766 222.646 227.975 237.887 221.857C253.129 215.74 246.049 185.542 243.425 173.873C240.801 162.204 239.21 159.31 239.21 159.31C239.21 159.31 240.772 157.672 240.316 154.279C239.86 150.885 237.055 143.433 236.695 143.116C236.334 142.8 224.977 142.119 224.977 142.119C224.977 142.119 223.507 137.412 223.177 135.963C222.848 134.514 221.133 133.273 220.449 133.66Z" fill="#EC6B65"/>
<path d="M113.172 194.398L128.834 206.116C128.834 206.116 118.019 225.366 111.55 225.215C105.081 225.064 99.8742 220.547 100.6 213.834C101.326 207.122 113.172 194.398 113.172 194.398Z" fill="#EC6B65"/>
<path d="M119.864 205.289C119.864 205.289 148.789 213.46 157.701 215.468C166.613 217.476 172.885 217.491 178.894 221.688C184.903 225.885 185.957 229.169 184.234 230.659C184.234 230.659 182.33 232.663 180.416 230.88C180.416 230.88 179.48 232.155 177.737 231.478C175.993 230.8 174.776 228.682 172.382 228.779C169.989 228.875 169.897 231.242 163.378 230.976C156.859 230.71 111.454 227.355 107.131 224.362C102.807 221.369 103.837 205.419 119.864 205.289Z" fill="#EC6B65"/>
<path d="M176.026 225.388C176.026 225.388 179.649 227.887 180.416 230.88" stroke="#BA5454" stroke-width="0.9219" stroke-miterlimit="10" stroke-linecap="round"/>
<path d="M179.26 223.997C179.26 223.997 183.232 227.689 184.234 230.659" stroke="#BA5454" stroke-width="0.9219" stroke-miterlimit="10" stroke-linecap="round"/>
<path d="M111.979 193.504L129.516 206.644C129.516 206.644 146.863 177.413 146.467 165.876C146.467 165.876 139.09 166.967 130.685 174.717C122.279 182.466 111.979 193.504 111.979 193.504Z" fill="#FBD995"/>
<path d="M187.378 166.167C187.378 166.167 201.239 174.059 219.028 189.171L207.742 211.765C207.742 211.765 185.001 182.341 183.12 174.848C181.239 167.356 187.378 166.167 187.378 166.167Z" fill="#FBD995"/>
<path d="M154.392 109.512C154.617 106.624 156.644 104.605 159.094 102.975C161.543 101.345 164.435 101.257 164.806 102.131C165.177 103.006 164.523 104.148 164.523 104.148C164.523 104.148 170.783 101.161 173.624 103.78C176.464 106.4 176.752 110.8 176.12 111.781C175.489 112.762 172.237 111.319 172.237 111.319C172.237 111.319 174.322 115.807 171.733 117.253C169.144 118.7 163.874 116.973 161.641 112.957C161.641 112.957 153.929 115.462 154.392 109.512Z" fill="#1F3E56"/>
<path d="M169.034 131.98C169.126 132.627 169.724 133.079 170.372 132.988C171.019 132.897 171.471 132.298 171.38 131.65C171.289 131.002 170.69 130.551 170.042 130.642C169.395 130.734 168.944 131.332 169.034 131.98Z" fill="#1F3E56"/>
<path d="M171.889 128.24C171.889 128.24 170.878 126.985 168.428 127.658" stroke="#1F3E56" stroke-width="2.2963" stroke-miterlimit="10" stroke-linecap="round"/>
<path d="M174.358 134.183C174.358 134.183 172.098 134.464 170.722 135.481" stroke="#BA5454" stroke-width="0.9219" stroke-miterlimit="10" stroke-linecap="round"/>
<path d="M222.506 150.603C220.98 150.007 220.298 157.313 223.922 157.163C227.546 157.013 232.725 154.278 233.057 152.86C233.39 151.441 228.666 150.937 226.803 150.929C224.939 150.922 224.198 151.263 222.506 150.603Z" fill="#EC6B65"/>
<path d="M222.506 150.603C222.506 150.603 223.453 151.069 224.977 151C226.501 150.931 231.155 150.79 232.885 152.276C234.616 153.763 227.555 156.394 227.555 156.394" stroke="#BA5454" stroke-width="0.9219" stroke-miterlimit="10" stroke-linecap="round"/>
<g clip-path="url(#clip0_73_2839)">
<path d="M100.331 105.811L100.405 105.718C100.507 105.662 100.579 105.573 100.652 105.486L102.953 103.174C103.236 102.89 103.519 102.607 103.802 102.324C104.234 101.89 104.694 101.892 105.124 102.33C105.342 102.548 105.56 102.762 105.773 102.984C105.93 103.146 105.941 103.301 105.813 103.417C105.693 103.525 105.549 103.502 105.392 103.347C105.169 103.127 104.951 102.903 104.725 102.684C104.525 102.487 104.394 102.487 104.196 102.684C103.029 103.848 101.863 105.013 100.697 106.178C100.497 106.379 100.497 106.506 100.694 106.705C101.87 107.88 103.046 109.054 104.222 110.226C104.402 110.406 104.517 110.407 104.7 110.226C105.882 109.049 107.063 107.871 108.243 106.69C108.426 106.507 108.425 106.379 108.243 106.195C108.023 105.972 107.797 105.754 107.576 105.532C107.424 105.378 107.42 105.237 107.571 105.079C107.792 104.848 108.017 104.62 108.249 104.398C108.352 104.3 108.373 104.234 108.256 104.127C108.021 103.91 107.795 103.681 107.575 103.449C107.473 103.341 107.409 103.342 107.302 103.449C106.485 104.273 105.659 105.092 104.84 105.912C104.486 106.268 104.453 106.273 104.091 105.92C103.976 105.808 103.859 105.698 103.752 105.579C103.681 105.502 103.625 105.504 103.554 105.576C103.301 105.831 103.047 106.086 102.788 106.337C102.704 106.418 102.717 106.476 102.794 106.553C103.301 107.056 103.808 107.558 104.306 108.07C104.423 108.19 104.486 108.168 104.592 108.061C105.301 107.345 106.018 106.637 106.729 105.922C106.846 105.805 106.966 105.749 107.116 105.849C107.266 105.95 107.258 106.138 107.103 106.294C106.354 107.045 105.604 107.795 104.853 108.545C104.454 108.943 104.45 108.946 104.047 108.547C103.425 107.933 102.807 107.315 102.193 106.694C101.991 106.489 101.993 106.385 102.193 106.187C102.602 105.776 103.014 105.368 103.428 104.961C103.591 104.801 103.705 104.804 103.876 104.964C104.031 105.11 104.19 105.254 104.331 105.414C104.437 105.534 104.499 105.509 104.599 105.408C105.412 104.589 106.232 103.777 107.048 102.959C107.416 102.589 107.446 102.585 107.809 102.947C107.989 103.125 108.165 103.308 108.343 103.487C108.504 103.664 108.672 103.831 108.842 103.998C109.006 104.158 109 104.359 108.84 104.522C108.752 104.611 108.65 104.688 108.585 104.798C108.465 104.923 108.351 105.054 108.224 105.17C108.124 105.262 108.11 105.33 108.219 105.429C108.372 105.567 108.517 105.716 108.657 105.868C108.98 106.218 109.006 106.634 108.68 106.979C108.141 107.552 107.577 108.102 107.021 108.658C106.391 109.291 105.759 109.923 105.126 110.554C104.673 111.007 104.257 111.015 103.808 110.567C102.643 109.404 101.48 108.238 100.32 107.07C100.223 106.973 100.124 106.876 100.086 106.737C100.039 106.546 100.039 106.347 100.086 106.156C100.179 106.05 100.232 105.914 100.331 105.811Z" fill="white"/>
</g>
<path d="M195.266 185.889H192.523C189.67 185.889 187.206 187.885 186.614 190.676L176.978 236.117H184.431L195.266 185.889Z" fill="#151230"/>
<path d="M257.499 236.118H180.413L189.585 190.541C190.13 187.835 192.506 185.889 195.266 185.889H260.53C264.19 185.889 266.933 189.239 266.211 192.827L257.499 236.118Z" fill="#211944"/>
<path d="M180.413 236.118H145.889C143.401 236.118 141.384 234.101 141.384 231.613V230.987H181.446L180.413 236.118Z" fill="#151230"/>
<path d="M226.018 220.667C229.797 220.667 232.86 217.604 232.86 213.826C232.86 210.047 229.797 206.984 226.018 206.984C222.24 206.984 219.176 210.047 219.176 213.826C219.176 217.604 222.24 220.667 226.018 220.667Z" fill="#6B94F7"/>
<path d="M224.977 142.118C224.977 142.118 226.564 151.682 227.964 152.145C229.364 152.608 234.254 152.373 236.129 152.257C238.004 152.141 239.733 151.296 239.506 148.94C239.276 146.564 237.742 142.044 235.813 141.552C233.884 141.06 225.121 139.189 224.977 142.118Z" fill="#EC6B65"/>
<path d="M228.47 140.51L231.577 152.42" stroke="#BA5454" stroke-width="0.9219" stroke-miterlimit="10" stroke-linecap="round"/>
<path d="M232.937 140.953L235.806 152.276" stroke="#BA5454" stroke-width="0.9219" stroke-miterlimit="10" stroke-linecap="round"/>
<path d="M225.209 143.422C225.209 143.422 226.487 150.631 227.555 151.772C228.622 152.913 236.129 152.257 236.129 152.257" stroke="#BA5454" stroke-width="0.9219" stroke-miterlimit="10" stroke-linecap="round"/>
<path d="M101.55 185.285H50.4385C50.4385 185.285 48.1765 185.487 48.1765 197.23V233.735H94.3081C94.3081 233.735 97.6879 232.796 97.6879 223.166C97.6879 223.166 97.6879 197.567 97.6879 195.287C97.6879 193.005 97.8325 185.285 101.55 185.285Z" fill="#6B94F7"/>
<path d="M101.55 185.285C102.768 185.285 103.039 190.277 103.039 193.118C103.039 195.96 103.039 199.748 103.039 199.748H97.6884V195.286C97.6884 195.286 97.3554 185.285 101.55 185.285Z" fill="#5A80CC"/>
<path d="M89.2356 198.488H55.4118C54.813 198.488 54.3282 198.002 54.3282 197.404V197.179C54.3282 196.58 54.8136 196.096 55.4118 196.096H89.2356C89.8344 196.096 90.3192 196.581 90.3192 197.179V197.404C90.3192 198.002 89.8344 198.488 89.2356 198.488Z" fill="#1F3E56"/>
<path d="M89.2356 206.459H55.4118C54.813 206.459 54.3282 205.974 54.3282 205.376V205.151C54.3282 204.552 54.8136 204.067 55.4118 204.067H89.2356C89.8344 204.067 90.3192 204.553 90.3192 205.151V205.376C90.3192 205.975 89.8344 206.459 89.2356 206.459Z" fill="#1F3E56"/>
<path d="M89.2356 214.432H55.4118C54.813 214.432 54.3282 213.946 54.3282 213.348V213.123C54.3282 212.524 54.8136 212.039 55.4118 212.039H89.2356C89.8344 212.039 90.3192 212.525 90.3192 213.123V213.348C90.3192 213.946 89.8344 214.432 89.2356 214.432Z" fill="#1F3E56"/>
<path d="M89.2356 222.403H55.4118C54.813 222.403 54.3282 221.918 54.3282 221.32V221.095C54.3282 220.496 54.8136 220.011 55.4118 220.011H89.2356C89.8344 220.011 90.3192 220.496 90.3192 221.095V221.32C90.3192 221.918 89.8344 222.403 89.2356 222.403Z" fill="#1F3E56"/>
<path d="M41.6088 220.45H89.3724C89.3724 220.45 88.2846 233.735 94.3086 233.735H48.177C48.177 233.735 41.6088 232.493 41.6088 220.45Z" fill="#80AAFF"/>
<path d="M227.125 99.021H196.976C194.836 99.021 193.101 100.756 193.101 102.896V115.643C192.144 120.772 185.38 126.543 185.38 126.543C193.211 126.218 197.816 124.353 197.816 124.353H227.125C229.265 124.353 231.001 122.618 231.001 120.478V102.896C231 100.756 229.265 99.021 227.125 99.021Z" fill="white"/>
<path d="M214.06 111.794C214.06 113.195 212.924 114.33 211.524 114.33C210.124 114.33 208.988 113.195 208.988 111.794C208.988 110.394 210.124 109.259 211.524 109.259C212.924 109.259 214.06 110.394 214.06 111.794Z" fill="#1F3E56"/>
<path d="M222.372 111.794C222.372 113.195 221.237 114.33 219.836 114.33C218.436 114.33 217.301 113.195 217.301 111.794C217.301 110.394 218.436 109.259 219.836 109.259C221.237 109.259 222.372 110.394 222.372 111.794Z" fill="#1F3E56"/>
<path d="M203.212 114.33C204.612 114.33 205.747 113.195 205.747 111.794C205.747 110.394 204.612 109.259 203.212 109.259C201.811 109.259 200.676 110.394 200.676 111.794C200.676 113.195 201.811 114.33 203.212 114.33Z" fill="#1F3E56"/>
<g clip-path="url(#clip1_73_2839)">
<path d="M176.28 186.811L176.355 186.718C176.456 186.662 176.528 186.573 176.601 186.486L178.902 184.174C179.185 183.89 179.468 183.607 179.751 183.324C180.183 182.89 180.643 182.892 181.074 183.33C181.291 183.548 181.509 183.762 181.722 183.984C181.879 184.146 181.89 184.301 181.762 184.417C181.642 184.525 181.498 184.502 181.341 184.347C181.118 184.127 180.9 183.903 180.674 183.684C180.474 183.487 180.343 183.487 180.145 183.684C178.978 184.848 177.812 186.013 176.646 187.178C176.446 187.379 176.446 187.506 176.644 187.705C177.819 188.88 178.995 190.054 180.171 191.226C180.352 191.406 180.466 191.407 180.649 191.226C181.832 190.049 183.013 188.871 184.192 187.69C184.376 187.507 184.374 187.379 184.192 187.195C183.972 186.972 183.746 186.754 183.525 186.532C183.373 186.378 183.369 186.237 183.52 186.079C183.741 185.848 183.966 185.62 184.198 185.398C184.301 185.3 184.322 185.234 184.206 185.127C183.97 184.91 183.745 184.681 183.524 184.449C183.422 184.341 183.358 184.342 183.252 184.449C182.434 185.273 181.608 186.092 180.789 186.912C180.435 187.268 180.403 187.273 180.04 186.92C179.925 186.808 179.809 186.698 179.701 186.579C179.63 186.502 179.574 186.504 179.504 186.576C179.25 186.831 178.996 187.086 178.737 187.337C178.653 187.418 178.667 187.476 178.744 187.553C179.25 188.056 179.757 188.558 180.255 189.07C180.372 189.19 180.435 189.168 180.541 189.061C181.25 188.345 181.967 187.637 182.678 186.922C182.795 186.805 182.915 186.749 183.065 186.849C183.215 186.95 183.208 187.138 183.052 187.294C182.303 188.045 181.553 188.795 180.802 189.545C180.403 189.943 180.399 189.946 179.996 189.547C179.374 188.933 178.757 188.315 178.142 187.694C177.94 187.489 177.942 187.385 178.142 187.187C178.551 186.776 178.963 186.368 179.377 185.961C179.54 185.801 179.655 185.804 179.825 185.964C179.98 186.11 180.14 186.254 180.28 186.414C180.386 186.534 180.448 186.509 180.548 186.408C181.361 185.589 182.181 184.777 182.997 183.959C183.365 183.589 183.396 183.585 183.758 183.947C183.938 184.125 184.115 184.308 184.293 184.487C184.453 184.664 184.622 184.831 184.792 184.998C184.956 185.158 184.95 185.359 184.789 185.522C184.701 185.611 184.6 185.688 184.534 185.798C184.414 185.923 184.301 186.054 184.174 186.17C184.073 186.262 184.059 186.33 184.168 186.429C184.321 186.567 184.466 186.716 184.606 186.868C184.929 187.218 184.955 187.634 184.629 187.979C184.09 188.552 183.526 189.102 182.971 189.658C182.34 190.291 181.708 190.923 181.076 191.554C180.623 192.007 180.206 192.015 179.757 191.567C178.592 190.404 177.43 189.238 176.269 188.07C176.172 187.973 176.073 187.876 176.035 187.737C175.988 187.546 175.988 187.347 176.035 187.156C176.128 187.05 176.181 186.914 176.28 186.811Z" fill="#00468B"/>
</g>
<defs>
<clipPath id="clip0_73_2839">
<rect width="8.91354" height="8.8983" fill="white" transform="translate(100.051 102)"/>
</clipPath>
<clipPath id="clip1_73_2839">
<rect width="8.91354" height="8.8983" fill="white" transform="translate(176 183)"/>
</clipPath>
</defs>
</svg>
