<svg width="16" height="18" viewBox="0 0 16 18" fill="none" xmlns="http://www.w3.org/2000/svg">
<g id="Home">
<path id="Home_2" d="M5.61223 16.3111V13.763C5.61223 13.1126 6.14339 12.5853 6.79861 12.5853H9.19376C9.50841 12.5853 9.81017 12.7093 10.0327 12.9302C10.2551 13.1511 10.3801 13.4507 10.3801 13.763V16.3111C10.3782 16.5815 10.485 16.8416 10.6769 17.0335C10.8688 17.2254 11.13 17.3333 11.4024 17.3333H13.0364C13.7996 17.3353 14.5322 17.0357 15.0726 16.5007C15.6129 15.9656 15.9166 15.2392 15.9166 14.4815V7.22239C15.9166 6.61039 15.6433 6.02987 15.1704 5.63723L9.61161 1.2299C8.64464 0.45714 7.25918 0.48209 6.32108 1.28915L0.889095 5.63723C0.393869 6.0183 0.0978789 6.60054 0.083252 7.22239V14.4741C0.083252 16.0532 1.37274 17.3333 2.9634 17.3333H4.56016C5.12594 17.3333 5.58575 16.8802 5.58985 16.3185L5.61223 16.3111Z" fill="#00468B"/>
</g>
</svg>
