h<svg width="16" height="18" viewBox="0 0 16 18" fill="none" xmlns="http://www.w3.org/2000/svg">
<g id="Home">
<g id="Home_2">
<mask id="path-1-inside-1_224_1513" fill="white">
<path fill-rule="evenodd" clip-rule="evenodd" d="M5.63093 16.3095V13.7539C5.63092 13.1039 6.16085 12.5757 6.81743 12.5713H9.22249C9.88221 12.5713 10.417 13.1008 10.417 13.7539V16.3174C10.4169 16.8693 10.8618 17.3204 11.4191 17.3333H13.0225C14.6209 17.3333 15.9166 16.0506 15.9166 14.4682V7.1982C15.908 6.57569 15.6128 5.99113 15.1149 5.61087L9.63135 1.23776C8.6707 0.47631 7.30509 0.47631 6.34443 1.23776L0.88494 5.6188C0.385134 5.99752 0.0894075 6.58306 0.083252 7.20614V14.4682C0.083252 16.0506 1.37898 17.3333 2.97734 17.3333H4.58072C5.15188 17.3333 5.6149 16.875 5.6149 16.3095"/>
</mask>
<path d="M4.13093 16.3095C4.13093 17.1379 4.8025 17.8095 5.63093 17.8095C6.45936 17.8095 7.13093 17.1379 7.13093 16.3095H4.13093ZM5.63093 13.7539H7.13093V13.7539L5.63093 13.7539ZM6.81743 12.5713V11.0713L6.80746 11.0714L6.81743 12.5713ZM10.417 16.3174L11.917 16.3179V16.3174H10.417ZM11.4191 17.3333L11.3843 18.8329C11.3959 18.8332 11.4075 18.8333 11.4191 18.8333V17.3333ZM13.0225 17.3333V15.8333V17.3333ZM15.9166 7.1982H17.4166C17.4166 7.19135 17.4165 7.18449 17.4164 7.17764L15.9166 7.1982ZM15.1149 5.61087L14.1796 6.7836C14.1879 6.79014 14.1961 6.7966 14.2045 6.80297L15.1149 5.61087ZM9.63135 1.23776L10.5666 0.065017L10.5631 0.0622393L9.63135 1.23776ZM6.34443 1.23776L5.41267 0.0622181L5.40563 0.0678602L6.34443 1.23776ZM0.88494 5.6188L1.79085 6.81435C1.80193 6.80595 1.8129 6.7974 1.82374 6.7887L0.88494 5.6188ZM0.083252 7.20614L-1.41667 7.19132C-1.41672 7.19626 -1.41675 7.2012 -1.41675 7.20614H0.083252ZM7.13093 16.3095V13.7539H4.13093V16.3095H7.13093ZM7.13093 13.7539C7.13094 13.9424 6.98124 14.0703 6.8274 14.0713L6.80746 11.0714C5.34046 11.0811 4.1309 12.2653 4.13093 13.7539L7.13093 13.7539ZM6.81743 14.0713H9.22249V11.0713H6.81743V14.0713ZM9.22249 14.0713C9.06803 14.0713 8.91701 13.9434 8.91701 13.7539H11.917C11.917 12.2582 10.6964 11.0713 9.22249 11.0713V14.0713ZM8.91701 13.7539V16.3174H11.917V13.7539H8.91701ZM8.91701 16.317C8.91662 17.6976 10.0259 18.8014 11.3843 18.8329L11.4539 15.8337C11.6976 15.8394 11.9171 16.041 11.917 16.3179L8.91701 16.317ZM11.4191 18.8333H13.0225V15.8333H11.4191V18.8333ZM13.0225 18.8333C15.435 18.8333 17.4166 16.8932 17.4166 14.4682H14.4166C14.4166 15.208 13.8067 15.8333 13.0225 15.8333V18.8333ZM17.4166 14.4682V7.1982H14.4166V14.4682H17.4166ZM17.4164 7.17764C17.4016 6.09145 16.8863 5.07633 16.0253 4.41876L14.2045 6.80297C14.3393 6.90593 14.4145 7.05994 14.4167 7.21877L17.4164 7.17764ZM16.0501 4.43813L10.5666 0.0650222L8.6961 2.41049L14.1796 6.7836L16.0501 4.43813ZM10.5631 0.0622393C9.05662 -1.13185 6.91917 -1.13185 5.41268 0.0622393L7.27618 2.41327C7.69101 2.08447 8.28478 2.08447 8.6996 2.41327L10.5631 0.0622393ZM5.40563 0.0678602L-0.0538594 4.44891L1.82374 6.7887L7.28323 2.40765L5.40563 0.0678602ZM-0.02097 4.42326C-0.888079 5.0803 -1.4059 6.10047 -1.41667 7.19132L1.58318 7.22096C1.58471 7.06565 1.65835 6.91475 1.79085 6.81435L-0.02097 4.42326ZM-1.41675 7.20614V14.4682H1.58325V7.20614H-1.41675ZM-1.41675 14.4682C-1.41675 16.8932 0.564808 18.8333 2.97734 18.8333V15.8333C2.19315 15.8333 1.58325 15.208 1.58325 14.4682H-1.41675ZM2.97734 18.8333H4.58072V15.8333H2.97734V18.8333ZM4.58072 18.8333C5.96605 18.8333 7.1149 17.7176 7.1149 16.3095H4.1149C4.1149 16.0323 4.33771 15.8333 4.58072 15.8333V18.8333Z" fill="#6C757D" mask="url(#path-1-inside-1_224_1513)"/>
</g>
</g>
</svg>
