<svg width="12" height="11" viewBox="0 0 12 11" fill="none" xmlns="http://www.w3.org/2000/svg">
<path id="Fill 1" d="M6.58578 0.35525L7.92167 2.94562C8.02009 3.13329 8.20793 3.26362 8.42458 3.29259L11.4252 3.71427C11.6005 3.73802 11.7595 3.82723 11.8669 3.96335C11.9731 4.09773 12.0187 4.26803 11.9929 4.43543C11.9719 4.57445 11.9041 4.70304 11.8003 4.80151L9.62603 6.83523C9.467 6.97714 9.39498 7.18741 9.43339 7.39304L9.96871 10.2522C10.0257 10.5974 9.78867 10.9229 9.43339 10.9884C9.28696 11.011 9.13693 10.9872 9.0049 10.9224L6.32833 9.57678C6.12968 9.48005 5.89503 9.48005 5.69639 9.57678L3.01982 10.9224C2.69094 11.0909 2.28346 10.9762 2.10042 10.6634C2.0326 10.5389 2.0086 10.397 2.0308 10.2585L2.56612 7.39883C2.60453 7.19378 2.53191 6.98236 2.37348 6.84044L0.19921 4.80788C-0.0594455 4.56692 -0.0672472 4.17014 0.181806 3.92048C0.187207 3.91527 0.193209 3.90948 0.19921 3.90369C0.302432 3.80232 0.438061 3.73802 0.584493 3.72123L3.58514 3.29896C3.80118 3.26942 3.98902 3.14025 4.08805 2.95141L5.37592 0.35525C5.49055 0.132821 5.7282 -0.00561746 5.98625 0.000174961H6.06667C6.29052 0.0262408 6.48556 0.160046 6.58578 0.35525Z" fill="#FFB800"/>
</svg>
