<svg width="37" height="37" viewBox="0 0 37 37" fill="none" xmlns="http://www.w3.org/2000/svg">
<g id="01">
<circle id="Ellipse 209" cx="18.5" cy="18.5" r="18" fill="#F6F7F9" stroke="#00468B"/>
<path id="Icon" fill-rule="evenodd" clip-rule="evenodd" d="M27.578 11.0525C27.4712 11.0922 27.3264 11.1777 27.256 11.2425C27.1857 11.3073 24.9377 13.7912 22.2605 16.7622C18.6514 20.7673 17.3255 22.2064 17.1324 22.328C16.8244 22.5221 16.4856 22.5462 16.1608 22.3973C16.0448 22.3442 14.8409 21.2984 13.3337 19.9416C11.5943 18.3759 10.6337 17.5453 10.4867 17.4803C9.79276 17.1731 9.00294 17.6863 9.00001 18.4464C8.9994 18.603 9.03479 18.8135 9.07866 18.9143C9.13485 19.0432 10.1566 20.0385 12.5252 22.2715C14.3768 24.0171 15.9864 25.5022 16.102 25.5716C16.417 25.7607 16.8452 25.7505 17.1584 25.5464C17.4246 25.373 28.72 12.8595 28.8792 12.5616C29.2306 11.9044 28.7762 11.0798 28.0217 11.0051C27.8699 10.9901 27.696 11.0087 27.578 11.0525Z" fill="#00468B"/>
</g>
</svg>
