<svg width="107" height="105" viewBox="0 0 107 105" fill="none" xmlns="http://www.w3.org/2000/svg">
<g id="taskers 1" clip-path="url(#clip0_81_2489)">
<g id="Layer 2">
<g id="Layer 1">
<path id="Vector" d="M4.22093 44.9703L5.09593 43.8777C6.29728 43.2061 7.13918 42.1561 8.00472 41.1344L35.1534 13.8534C38.4957 10.5047 41.8349 7.16237 45.1709 3.82633C50.2696 -1.29596 55.6993 -1.27231 60.779 3.88782C63.3426 6.47025 65.9155 8.98647 68.4317 11.6067C70.2858 13.5223 70.4135 15.348 68.9047 16.7196C67.4858 17.9966 65.7878 17.727 63.9385 15.8966C61.3088 13.2953 58.7358 10.6561 56.0682 8.0689C53.7034 5.75133 52.1615 5.74187 49.8203 8.0689C36.0504 21.8072 22.2901 35.5518 8.53918 49.3027C6.17431 51.6676 6.17431 53.1763 8.50607 55.5128C22.3799 69.3867 36.2538 83.2385 50.1277 97.0682C52.2608 99.1919 53.6135 99.2013 55.7703 97.0682C69.723 83.1786 83.6599 69.2716 97.5811 55.3473C99.7426 53.1858 99.7236 51.677 97.5811 49.5013C94.9797 46.8669 92.3121 44.2986 89.7108 41.6736C87.9182 39.8574 87.8662 38.1973 89.6446 36.3338C92.2554 33.6094 94.9088 30.9182 97.6473 28.2932C98.8676 27.1392 99.1135 26.3635 97.7372 25.0959C94.9608 22.5324 92.298 19.8365 89.6966 17.0932C88.4905 15.8209 87.7385 15.8398 86.4804 17.0932C76.8317 26.8223 67.0885 36.4851 57.4209 46.1669C53.2446 50.3621 52.8615 50.4236 48.5811 46.252C47.2236 44.9371 45.852 43.6317 44.5797 42.2365C43.7426 41.3189 43.0851 41.352 42.2527 42.1939C39.2588 45.2067 36.2601 48.2149 33.2094 51.1804C32.2162 52.1263 32.377 52.8216 33.2851 53.7203C39.2635 59.6561 45.2466 65.5871 51.1257 71.6223C52.4973 73.0412 53.2493 72.7763 54.4932 71.5182C62.8649 63.0757 71.3216 54.7135 79.7122 46.2851C81.098 44.8946 82.5122 44.2324 84.2811 45.4196C86.05 46.6067 85.9601 48.8297 84.1297 50.6649C75.2851 59.5252 66.4342 68.3793 57.577 77.227C52.8709 81.9284 52.8189 81.9567 48.0608 77.2601C40.7297 70.0079 33.4396 62.7162 26.1905 55.3851C23.802 52.9682 23.8257 51.7432 26.1905 49.402C31.0149 44.5588 35.8723 39.7376 40.7628 34.9385C42.6831 33.0466 44.0358 33.0844 46.0459 34.9763C47.8811 36.7027 49.7588 38.4007 51.4189 40.2878C52.6628 41.7067 53.4007 41.404 54.5736 40.2169C64.175 30.554 73.852 20.9669 83.4723 11.3182C87.8236 6.95268 88.1784 6.90066 92.4588 11.1716C94.5824 13.2763 96.6635 15.4284 98.7635 17.5473C100.655 19.6378 102.647 21.6101 104.652 23.5777C106.586 25.4696 106.516 27.8344 104.624 29.7547C103.588 30.8094 102.386 31.7176 101.616 33.0182C100.197 34.4892 98.8581 36.0311 97.3588 37.4074C96.1763 38.4953 96.0108 39.2993 97.2926 40.4581C99.104 42.0946 100.811 43.8446 102.462 45.6371C106.279 49.7709 106.577 54.6757 102.736 58.7574C96.375 65.5115 89.7155 72.0007 83.1649 78.5655C75.7203 86.0353 68.2662 93.4926 60.8027 100.937C55.4581 106.277 50.5392 106.376 45.2419 101.093C31.5004 87.3676 17.7811 73.6104 4.08377 59.8216C2.94391 58.677 1.77093 57.5324 1.32161 55.8912C0.765844 53.6421 0.765844 51.2916 1.32161 49.0426C2.41891 47.7939 3.04323 46.1811 4.22093 44.9703Z" fill="#00468B"/>
</g>
</g>
</g>
<defs>
<clipPath id="clip0_81_2489">
<rect width="105.18" height="105" fill="white" transform="translate(0.910156)"/>
</clipPath>
</defs>
</svg>
