<svg width="18" height="14" viewBox="0 0 18 14" fill="none" xmlns="http://www.w3.org/2000/svg">
<g id="Ticket">
<path id="Ticket_2" fill-rule="evenodd" clip-rule="evenodd" d="M17.156 5.78258C17.0432 5.89219 16.89 5.95483 16.7288 5.95483C16.1325 5.95483 15.6489 6.42458 15.6489 6.99613C15.6489 7.57158 16.1268 8.03899 16.7176 8.04525C17.0504 8.04839 17.3333 8.27387 17.3333 8.59722V10.6054C17.3333 12.2958 15.9229 13.6667 14.1821 13.6667H11.5548C11.2832 13.6667 11.0631 13.453 11.0631 13.1891V11.498C11.0631 11.1692 10.7972 10.9108 10.4587 10.9108C10.1283 10.9108 9.85425 11.1692 9.85425 11.498V13.1891C9.85425 13.453 9.63423 13.6667 9.36343 13.6667H3.81782C2.08507 13.6667 0.666626 12.2966 0.666626 10.6054V8.59722C0.666626 8.27387 0.949508 8.04839 1.28236 8.04525C1.87391 8.03899 2.35102 7.57158 2.35102 6.99613C2.35102 6.44024 1.88358 6.01746 1.27107 6.01746C1.10989 6.01746 0.956761 5.95483 0.843931 5.84522C0.731101 5.7356 0.666626 5.58685 0.666626 5.43026V3.40247C0.666626 1.71447 2.08829 0.333374 3.82588 0.333374H9.36343C9.63423 0.333374 9.85425 0.547114 9.85425 0.810963V2.81527C9.85425 3.13627 10.1283 3.40247 10.4587 3.40247C10.7972 3.40247 11.0631 3.13627 11.0631 2.81527V0.810963C11.0631 0.547114 11.2832 0.333374 11.5548 0.333374H14.1821C15.9229 0.333374 17.3333 1.7035 17.3333 3.39464V5.36763C17.3333 5.52421 17.2688 5.67297 17.156 5.78258ZM10.4587 9.3919C10.7972 9.3919 11.0631 9.1257 11.0631 8.8047V5.67297C11.0631 5.35197 10.7972 5.08577 10.4587 5.08577C10.1283 5.08577 9.85425 5.35197 9.85425 5.67297V8.8047C9.85425 9.1257 10.1283 9.3919 10.4587 9.3919Z" fill="#00468B"/>
</g>
</svg>
